<svg width="995" height="837" viewBox="0 0 995 837" fill="none" xmlns="http://www.w3.org/2000/svg">
<path d="M992.644 385.802C1005.54 408.134 946.18 459.983 942.5 462.108C910.112 469.744 908.6 475.516 893.5 462.108C886.06 405.556 882.529 424.507 912.474 412.612C942.958 395.013 979.751 363.469 992.644 385.802Z" fill="#E9C46A"/>
<path d="M628 137.5C624.5 117.5 627.35 126.296 616.5 95C606.895 67.296 594.5 46 580 30C567.312 16 531.207 0.243804 501.235 0.471211C461.774 0.651698 420.795 21.0461 396.368 52.7287C371.941 84.4112 365.03 126.072 378.67 159.132C388.382 182.908 408.108 203.665 406.298 230.326C404.775 249.538 392.034 267.693 377.985 283.087C363.613 298.416 347.402 312.548 336.166 329.834C324.93 347.12 319.43 368.879 328.997 384.953C336.281 397.072 350.761 403.78 358.581 415.338C370.093 432.298 364.927 456.125 356.618 476.493C348.093 496.985 336.548 517.212 335.035 538.428C332.62 573.475 360.259 602.973 394.811 613.161C429.363 623.348 495.24 640.276 531.736 629C624 621 633 652 693.5 612C704 601.5 715.78 592.482 717.5 550C715.676 523.5 710.153 520.182 708.5 491C707.062 461.694 705 460.5 717.5 425C724.289 405.719 737.38 384.764 714.5 332C702.367 304.019 722.5 278 691.583 251.206C674.755 236.623 648.902 232.402 649.982 210.934C650.373 202.672 654.105 194.238 654.281 186.101C654.849 170.202 646 162 640.5 155C636.197 149.524 633.021 143.824 628 137.5Z" fill="#340404"/>
<path d="M502.568 300.099C502.568 300.099 597.118 320.812 603.782 352.667C607.564 370.879 627.014 445.278 603.782 483.247C580.549 521.216 585.592 630.476 603.782 653L388.118 642.989C388.118 642.989 417.305 534.215 402.357 483.247C387.409 432.278 269.5 425.5 388.118 329.895C456.194 296.688 502.568 300.099 502.568 300.099Z" fill="#21C292"/>
<path d="M520.171 251.905C518.996 289.695 532.113 325.468 533.624 331.108C526.762 345.035 479.878 354.576 462.71 316.865C458.995 263.462 463.654 201.771 463.654 201.771L488.439 228.373L520.171 251.905Z" fill="#E9C46A"/>
<path d="M519.105 288.731C514.615 296.507 499.882 296.407 486.199 288.507C472.515 280.607 459.789 259.89 464.279 252.113C468.769 244.336 477.694 242.3 502.459 260.345C516.142 268.245 523.595 280.954 519.105 288.731Z" fill="#C29D44"/>
<path d="M593.393 137.334C602.18 219.978 568.617 278.428 517.096 283.455C465.574 288.481 428.446 214.906 440.827 144.189C474.146 80.3278 523.199 73.0396 523.199 73.0396L554.252 71.6442L593.393 137.334Z" fill="#E9C46A"/>
<path d="M530 310C530 310 582.309 318.641 699.397 418.011C804.66 443.391 903.031 418.011 903.031 418.011L903.031 471.5C903.031 471.5 697.884 505.908 679 497.5C662.796 485.34 581.557 418.534 530 310Z" fill="#21C292"/>
<path d="M62.0955 459.749C36.0176 454.36 7.33025 422.775 2.76546 413.16C-1.79933 403.545 0.887089 376.45 15.8897 380.949C30.8923 385.449 47.7166 390.037 57.3482 396.614C63.0573 400.461 75.3184 410.7 73.5334 402.389C71.7484 394.078 54.4565 382.251 62.0143 377.403C68.2992 373.412 96.8246 392.725 103.629 410.453C107.42 420.261 109.92 421.411 107.502 432.832C105.083 444.253 103.461 468.276 62.0955 459.749Z" fill="#E9C46A"/>
<path d="M602.659 776.49C574.94 791.359 548.158 797.345 537.549 796.49C514.342 765.773 507.151 767.407 518.549 756.664C529.946 745.921 535.705 761.717 546.217 756.664C552.404 753.644 567.401 748.145 559.311 745.535C551.221 742.926 532.333 751.987 531.913 743.018C531.599 735.58 562.587 720.532 581.342 723.504C591.732 725.125 593.977 723.534 602.659 731.339C611.341 739.144 637.44 744.859 602.659 776.49Z" fill="#E9C46A"/>
<path d="M534.853 70.7915C523.636 105.928 503.452 122.11 471.403 139.27C439.354 156.43 430.853 149.893 396 139.27L453.376 22.8287H528.29L575.5 70.7915L592 111.5L595 139.27V153C528.306 144.829 534.853 70.7915 534.853 70.7915Z" fill="#340404"/>
<path d="M91.5 461C91.5 461 238.747 530.564 294.5 532.5C350.253 534.436 484.026 395.055 484.026 395.055L389.468 341.833C389.468 341.833 409.5 286 288.5 461C247.392 461 105.873 421.281 105.873 421.281L91.5 461Z" fill="#21C292"/>
<path d="M525.384 242.821C514.73 247.439 494.714 226.371 491.745 219.52C488.775 212.669 522.813 216.623 527.131 216.581C533.169 215.658 544.957 210.76 547.926 217.611C550.896 224.462 531.256 240.276 525.384 242.821Z" fill="#AE9712"/>
<path d="M533.218 233.842C533.447 237.65 527.38 241.384 522.251 242.144C518.651 241.154 514.639 240.63 509.957 236.194C509.957 232.947 514.858 230.197 520.342 230.197C525.827 230.197 532.642 232.493 533.218 233.842Z" fill="#E75151"/>
<path d="M815.989 756.975C816.368 782.139 807.497 823.257 765.59 824.237C723.678 825.117 627.398 835.403 585.876 817.678C555.594 804.74 485.162 781.166 433.923 768.939C414.881 764.421 398.517 761.412 387.808 761.141C359.902 760.519 331.224 731.453 310.723 711.868C302.465 703.894 295.509 697.511 290.537 695.117C285.647 692.817 281.97 690.065 279.677 687.231C278.072 685.196 277.08 683.153 277.004 681.206C276.846 676.6 281.661 672.874 292.521 672.874C295.585 672.874 298.719 673.05 301.858 673.408C320.895 675.004 341.163 680.766 352.56 680.408C365.86 679.873 402.112 716.832 409.378 718.691C412.441 719.489 421.61 722.594 433.316 723.655C449.225 724.981 470.024 722.411 487.158 704.686C496.104 695.38 508.948 684.567 522.563 673.848C501.5 640 563 639.5 576.475 634.414C576.556 634.414 576.556 634.319 576.556 634.319C581.289 632.196 588.831 628.07 593.5 625.5C594 626 595.438 630.732 596.5 636.02C598.49 639.564 599.649 644.606 602.858 647.791C605.998 650.983 609.745 653.465 614.098 654.702C616.473 655.325 620.138 655.852 624.965 656.298C625.875 656.386 626.791 656.386 627.789 656.474C633.683 657.008 640.715 657.36 648.594 657.806C654.862 658.158 661.672 658.517 668.634 659.051C698.759 661.181 732.56 665.164 747.855 676.154C755.045 681.381 763.075 687.59 771.029 694.413C781.277 703.184 791.297 713.017 799.327 722.769C807.357 732.609 813.322 742.354 815.312 751.308C815.685 753.249 815.913 755.109 815.989 756.975Z" fill="#2A94F4"/>
<path d="M615 712.021C599.29 718.062 579.717 725.315 558.848 732.987C506.662 752.168 446.51 773.987 419.257 786.35C404.908 792.853 384.706 796.626 362.729 798.495C362.644 798.495 362.56 798.516 362.463 798.516C355.697 799.09 348.729 799.482 341.71 799.713C341.283 799.72 340.816 799.741 340.401 799.755C311.288 800.665 281.494 798.936 259.633 796.304C259.581 796.283 259.517 796.283 259.432 796.262C244.539 794.477 233.32 792.251 228.615 790.207C214.894 784.214 204.278 757.579 201.627 734.436C200.668 725.875 200.765 717.803 202.223 711.405C205.477 697.02 221.861 679.848 241.784 666.835C241.804 666.807 241.804 666.807 241.804 666.807C254.656 658.4 269.044 651.714 282.311 648.599C300.542 644.329 333.201 644.084 360.972 643.265C364.375 643.181 367.726 643.055 370.927 642.936H370.947C375.788 642.754 380.383 642.516 384.564 642.236C391 641.711 395 641.711 405 641.711C399.483 642.081 414 641.711 414 641.711H418H421.24L518 642.236C553.5 646.5 546.741 642.936 565.5 661C579 674 573.138 681.57 575.776 681.08C581.467 680.023 586.114 678.791 589.912 677.349L615 712.021Z" fill="#2A94F4"/>
<path d="M373.38 819.907C358.355 793.884 435.327 720.911 440.161 718.12C482 706.855 482 706.855 500.416 722.006C506.277 789.523 516.447 766.287 477.453 782.515C437.404 805.636 388.404 845.93 373.38 819.907Z" fill="#AE9047"/>
<path d="M372.38 827.907C357.355 801.884 434.327 728.911 439.161 726.12C481 714.855 481 714.855 499.416 730.006C505.277 797.523 515.447 774.287 476.453 790.515C436.404 813.636 387.404 853.93 372.38 827.907Z" fill="#E9C46A"/>
<ellipse cx="920.013" cy="404.182" rx="8" ry="24" transform="rotate(42.0388 920.013 404.182)" fill="#E9C46A"/>
<path d="M493.19 170.969C498.778 169.472 503.059 171.949 501.561 166.36C500.064 160.771 494.319 157.455 488.73 158.952C483.142 160.45 479.825 166.194 481.323 171.783C482.82 177.372 487.601 172.467 493.19 170.969Z" fill="#340404"/>
<path d="M548.578 170.729C554.167 169.231 558.447 171.708 556.95 166.119C555.453 160.531 549.708 157.214 544.119 158.711C538.531 160.209 535.214 165.953 536.711 171.542C538.209 177.131 542.99 172.226 548.578 170.729Z" fill="#340404"/>
<path d="M266.062 711.505C338.19 666.349 402.177 691.335 425.154 709.472" stroke="#2B80CD" stroke-width="6"/>
<path d="M516.53 724.427C606.509 667.836 688.614 702.864 718.42 727.452" stroke="#2B80CD" stroke-width="6"/>
</svg>
