<svg width="874" height="808" viewBox="0 0 874 808" fill="none" xmlns="http://www.w3.org/2000/svg">
<g opacity="0.8">
<path d="M872 356.5C882.09 373.976 844.199 406.906 841.319 408.569C815.974 414.544 791.314 419.061 779.498 408.569C773.675 364.314 820.19 338.344 824.494 348.855C779.498 393.47 861.91 339.024 872 356.5Z" fill="#C7AC6B"/>
<path d="M559.494 189.379C536.16 173.623 571.93 158.342 559.494 129.5C545.105 103.5 550.311 75.5131 545.105 60.2208C535.541 32.7952 508.75 12.4039 477.504 4.3309C436.4 -6.42109 388.064 3.38662 353.791 29.499C319.518 55.6114 300.677 96.936 305.622 135.031C309.078 162.401 323.794 189.413 314.456 216.583C307.499 236.102 289.166 251.413 270.245 263.497C251.006 275.423 230.189 285.596 213.665 300.423C197.141 315.25 185.335 336.31 190.793 355.646C194.981 370.243 208.17 381.22 213.074 395.384C220.307 416.178 208.27 439.477 193.928 458.314C179.329 477.22 161.661 495.013 154.154 516.614C141.84 552.32 162.346 590.599 195.443 610.752C228.541 630.905 292.343 666.737 333.464 665.15C445.948 661.129 450.603 687.37 559.494 656.5C593.226 646.978 575.081 651.128 584.814 646C615.639 629.76 644.559 633.747 651 603C657.7 572.184 646.5 579.5 641.5 524.5C638.318 489.5 697.136 439.005 663.767 388.546C645.692 361.214 627.374 326.936 605.414 317.342C583.455 307.748 566.27 285.993 573.397 264.01C576.114 255.543 582.356 247.824 584.814 239.427C589.852 223.083 581.458 206.226 568.01 195.319C565.596 193.548 562.864 191.619 559.494 189.379Z" fill="#422626"/>
<path d="M52.6606 422.795C30.3055 418.175 5.71348 391.099 1.80035 382.857C-2.11279 374.614 0.190125 351.387 13.051 355.244C25.9119 359.101 40.3344 363.034 48.591 368.672C53.4851 371.971 63.9958 380.748 62.4657 373.624C60.9355 366.499 46.1122 356.36 52.591 352.204C57.9787 348.783 82.4319 365.339 88.2646 380.536C91.5145 388.944 93.6579 389.929 91.5848 399.72C89.5117 409.511 88.1208 430.104 52.6606 422.795Z" fill="#C7AC6B"/>
<path d="M475.5 283.5C475.5 283.5 516 299 620.5 377.5C644 391 786 377.5 786 377.5L795 415C795 415 627.385 445.408 608.5 437C592.296 424.84 501 394.5 475.5 283.5Z" fill="#058596"/>
<path d="M74.2632 425.984C74.2632 425.984 182.01 472.048 237.763 473.984C293.516 475.919 413.263 331.484 413.263 331.484L371.5 302C371.5 302 355 283 247.763 417.484C206.655 417.484 90.7632 382.984 90.7632 382.984L74.2632 425.984Z" fill="#058596"/>
<path d="M444.568 271.099C444.568 271.099 508.336 288.145 515 320C518.782 338.212 557.732 407.031 534.5 445C511.268 482.969 527.592 601.476 545.782 624L330.118 613.989C330.118 613.989 359.305 505.215 344.357 454.247C329.409 403.278 297 414.833 330.5 325.5C386.5 278.099 444.568 271.099 444.568 271.099Z" fill="#058596"/>
<g filter="url(#filter0_d_0_1)">
<path d="M462.171 222.905C460.996 260.695 474.113 296.468 475.624 302.107C468.762 316.035 421.878 325.575 404.71 287.865C400.995 234.462 405.654 172.771 405.654 172.771L430.439 199.373L462.171 222.905Z" fill="#C7AC6B"/>
</g>
<path d="M461.105 264.886C456.615 272.663 441.882 272.563 428.199 264.662C414.515 256.762 401.789 236.045 406.279 228.268C410.769 220.491 419.694 218.455 444.459 236.5C458.142 244.4 465.595 257.109 461.105 264.886Z" fill="#C29D44"/>
<g filter="url(#filter1_d_0_1)">
<path d="M513.588 104.8C536.969 184.554 514.365 248.051 464.565 262.183C414.765 276.315 365.114 210.537 364.688 138.747C386.088 69.9678 433.055 54.0508 433.055 54.0508L463.362 47.1414L513.588 104.8Z" fill="#C7AC6B"/>
</g>
<path d="M544.659 747.49C516.94 762.359 490.158 768.344 479.549 767.49C456.342 736.772 449.151 738.407 460.549 727.664C471.947 716.921 477.705 732.717 488.217 727.664C494.404 724.644 509.401 719.145 501.311 716.535C493.221 713.925 474.333 722.987 473.913 714.018C473.599 706.579 504.587 691.532 523.342 694.504C533.732 696.125 535.978 694.534 544.659 702.339C553.341 710.144 579.44 715.859 544.659 747.49Z" fill="#E9C46A"/>
<path d="M455.5 82.9998C444.283 118.136 441 120.546 424 137.171C393.5 167 377.353 177.623 342.5 167L399.376 7H474.29L521.5 54.9629L538 95.6713L541 123.441V137.171C474.306 129 455.5 82.9998 455.5 82.9998Z" fill="#422626"/>
<path d="M465.862 226.381C456.057 232.603 433.004 214.91 429.003 208.605C425.003 202.301 459.241 200.904 463.5 200.189C469.32 198.337 480.201 191.663 484.202 197.967C488.202 204.272 471.266 222.952 465.862 226.381Z" fill="#6D1042"/>
<path d="M474.5 216.07C468.282 222.577 466.421 224.717 461.431 226.127C457.733 225.606 450.454 223.645 445.243 219.845C444.827 216.624 452.461 217.057 457.9 216.355C463.34 215.653 480.718 209.562 474.5 216.07Z" fill="#AC5656"/>
<path d="M757.989 727.975C758.368 753.139 749.498 794.257 707.59 795.237C665.678 796.116 569.398 806.402 527.876 788.677C497.594 775.74 427.162 752.165 375.923 739.938C356.881 735.421 340.517 732.411 329.809 732.141C301.902 731.519 273.224 702.452 252.723 682.867C244.465 674.894 237.509 668.51 232.537 666.116C227.647 663.817 223.97 661.064 221.677 658.231C220.072 656.195 219.08 654.153 219.004 652.205C218.846 647.6 223.661 643.874 234.521 643.874C237.585 643.874 240.719 644.049 243.858 644.408C262.895 646.004 283.163 651.766 294.56 651.407C307.86 650.873 344.112 687.831 351.378 689.691C354.442 690.489 363.61 693.593 375.316 694.655C391.225 695.98 412.024 693.411 429.158 675.685C438.104 666.38 450.948 655.566 464.563 644.847C443.5 611 505 610.5 518.475 605.414C518.556 605.414 518.557 605.319 518.557 605.319C523.289 603.196 530.831 599.07 535.5 596.5C536 597 537.438 601.732 538.5 607.02C540.49 610.563 541.649 615.605 544.859 618.791C547.998 621.983 551.745 624.465 556.098 625.702C558.473 626.324 562.138 626.852 566.965 627.298C567.875 627.386 568.791 627.386 569.789 627.474C575.683 628.008 582.716 628.36 590.594 628.806C596.862 629.158 603.672 629.516 610.634 630.05C640.759 632.181 674.56 636.164 689.855 647.153C697.045 652.381 705.075 658.589 713.03 665.413C723.277 674.184 733.297 684.017 741.327 693.769C749.357 703.609 755.322 713.354 757.312 722.308C757.685 724.249 757.913 726.108 757.989 727.975Z" fill="#39658C"/>
<path d="M557 683.021C541.29 689.062 521.717 696.314 500.848 703.987C448.662 723.167 388.51 744.987 361.257 757.349C346.908 763.852 326.706 767.626 304.729 769.495C304.644 769.495 304.56 769.516 304.463 769.516C297.697 770.09 290.729 770.482 283.71 770.713C283.283 770.72 282.816 770.741 282.401 770.755C253.288 771.665 223.494 769.936 201.633 767.304C201.581 767.283 201.517 767.283 201.432 767.262C186.539 765.476 175.32 763.25 170.615 761.206C156.894 755.214 146.278 728.578 143.627 705.436C142.668 696.874 142.765 688.803 144.223 682.405C147.477 668.019 163.861 650.848 183.784 637.835C183.804 637.807 183.804 637.807 183.804 637.807C196.656 629.399 211.044 622.714 224.311 619.599C242.542 615.329 275.201 615.084 302.972 614.265C306.375 614.181 309.726 614.055 312.927 613.936H312.947C317.788 613.754 322.383 613.516 326.564 613.236C333 612.711 337 612.711 347 612.711C341.483 613.08 356 612.711 356 612.711H360H363.24L460 613.236C495.5 617.5 488.742 613.936 507.5 632C521 645 515.138 652.57 517.776 652.08C523.467 651.023 528.114 649.791 531.912 648.349L557 683.021Z" fill="#39658C"/>
<path d="M314.38 798.906C299.355 772.883 376.327 699.91 381.161 697.119C423 685.855 423 685.855 441.416 701.005C447.277 768.523 457.447 745.287 418.453 761.514C378.404 784.636 329.404 824.929 314.38 798.906Z" fill="#C7AC6B"/>
<path d="M208.062 682.504C280.19 637.349 344.177 662.334 367.154 680.471" stroke="#305373" stroke-opacity="0.8" stroke-width="10" stroke-linecap="round"/>
<path d="M458.53 695.427C548.509 638.835 630.614 673.864 660.42 698.452" stroke="#315473" stroke-width="10" stroke-linecap="round"/>
<path d="M485.384 150.674C492.469 151.707 496.443 154.412 496.944 150.971C497.446 147.529 492.11 143.902 485.025 142.869C477.941 141.837 471.791 143.79 471.289 147.231C470.788 150.673 478.3 149.642 485.384 150.674Z" fill="#340404"/>
<path d="M430.257 153.988C437.365 153.133 441.908 154.705 441.493 151.252C441.078 147.799 434.979 145.693 427.87 146.548C420.762 147.403 415.337 150.895 415.752 154.348C416.167 157.802 423.149 154.843 430.257 153.988Z" fill="#340404"/>
</g>
<defs>
<filter id="filter0_d_0_1" x="399.273" y="172.771" width="80.3515" height="149.62" filterUnits="userSpaceOnUse" color-interpolation-filters="sRGB">
<feFlood flood-opacity="0" result="BackgroundImageFix"/>
<feColorMatrix in="SourceAlpha" type="matrix" values="0 0 0 0 0 0 0 0 0 0 0 0 0 0 0 0 0 0 127 0" result="hardAlpha"/>
<feOffset dy="4"/>
<feGaussianBlur stdDeviation="2"/>
<feComposite in2="hardAlpha" operator="out"/>
<feColorMatrix type="matrix" values="0 0 0 0 0 0 0 0 0 0 0 0 0 0 0 0 0 0 0.25 0"/>
<feBlend mode="normal" in2="BackgroundImageFix" result="effect1_dropShadow_0_1"/>
<feBlend mode="normal" in="SourceGraphic" in2="effect1_dropShadow_0_1" result="shape"/>
</filter>
<filter id="filter1_d_0_1" x="360.688" y="47.1414" width="166.151" height="224.97" filterUnits="userSpaceOnUse" color-interpolation-filters="sRGB">
<feFlood flood-opacity="0" result="BackgroundImageFix"/>
<feColorMatrix in="SourceAlpha" type="matrix" values="0 0 0 0 0 0 0 0 0 0 0 0 0 0 0 0 0 0 127 0" result="hardAlpha"/>
<feOffset dy="4"/>
<feGaussianBlur stdDeviation="2"/>
<feComposite in2="hardAlpha" operator="out"/>
<feColorMatrix type="matrix" values="0 0 0 0 0 0 0 0 0 0 0 0 0 0 0 0 0 0 0.25 0"/>
<feBlend mode="normal" in2="BackgroundImageFix" result="effect1_dropShadow_0_1"/>
<feBlend mode="normal" in="SourceGraphic" in2="effect1_dropShadow_0_1" result="shape"/>
</filter>
</defs>
</svg>
