<svg width="995" height="837" viewBox="0 0 995 837" fill="none" xmlns="http://www.w3.org/2000/svg">
<path d="M992.644 385.802C1005.54 408.134 946.18 459.983 942.5 462.108C910.112 469.744 908.6 475.516 893.5 462.108C886.06 405.556 882.529 424.507 912.474 412.612C942.958 395.013 979.751 363.469 992.644 385.802Z" fill="#E9C46A"/>
<path d="M628 137.5C619.521 121.324 621.85 125.796 611 94.5C601.395 66.7959 583.73 47.0191 575.366 34.5193C560.162 12.1568 531.207 0.243804 501.235 0.471211C461.774 0.651698 420.795 21.0461 396.368 52.7287C371.941 84.4112 365.03 126.072 378.67 159.132C388.382 182.908 408.108 203.665 406.298 230.326C404.775 249.538 392.034 267.693 377.985 283.087C363.613 298.416 347.402 312.548 336.166 329.834C324.93 347.12 319.43 368.879 328.997 384.953C336.281 397.072 350.761 403.78 358.581 415.338C370.093 432.298 364.927 456.125 356.618 476.493C348.093 496.985 336.548 517.212 335.035 538.428C332.62 573.475 360.259 602.973 394.811 613.161C429.363 623.348 495.24 640.276 531.736 629C631.642 598.442 616.5 635.5 689 606C699.5 600.5 715.78 592.482 717.5 550C715.676 523.5 710.153 520.182 708.5 491C707.062 461.694 705 460.5 717.5 425C724.289 405.719 737.38 384.764 714.5 332C702.367 304.019 722.5 278 691.583 251.206C674.755 236.623 648.902 232.402 649.982 210.934C650.373 202.672 654.105 194.238 654.281 186.101C654.849 170.202 646 162 640.5 155C636.197 149.524 633.021 143.824 628 137.5Z" fill="#340404"/>
<path d="M502.568 300.106C502.568 300.106 597.118 322.345 603.782 356.546C607.564 376.1 627.014 455.978 603.782 496.744C580.549 537.509 585.592 654.817 603.782 679L388.118 668.252C388.118 668.252 417.305 551.466 402.357 496.744C387.409 442.021 321.813 408.419 388.118 332.097C456.194 296.444 502.568 300.106 502.568 300.106Z" fill="#21C292"/>
<path d="M593.393 137.334C602.18 219.978 568.617 278.428 517.096 283.455C465.574 288.481 428.446 214.906 440.827 144.189C474.146 80.3278 523.199 73.0396 523.199 73.0396L554.252 71.6442L593.393 137.334Z" fill="#E9C46A"/>
<path d="M516.799 306.459C516.799 306.459 582.309 318.641 699.397 418.011C804.66 443.391 903.031 412.918 903.031 412.918L903.031 471.5C903.031 471.5 697.884 505.908 679 497.5C662.796 485.34 568.357 414.992 516.799 306.459Z" fill="#21C292"/>
<path d="M62.0955 459.749C36.0176 454.36 7.33025 422.775 2.76546 413.16C-1.79933 403.545 0.887089 376.45 15.8897 380.949C30.8923 385.449 47.7166 390.037 57.3482 396.614C63.0573 400.461 75.3184 410.7 73.5334 402.389C71.7484 394.078 54.4565 382.251 62.0143 377.403C68.2992 373.412 96.8246 392.725 103.629 410.453C107.42 420.261 109.92 421.411 107.502 432.832C105.083 444.253 103.461 468.276 62.0955 459.749Z" fill="#E9C46A"/>
<path d="M602.659 776.49C574.94 791.359 548.158 797.345 537.549 796.49C514.342 765.773 507.151 767.407 518.549 756.664C529.946 745.921 535.705 761.717 546.217 756.664C552.404 753.644 567.401 748.145 559.311 745.535C551.221 742.926 532.333 751.987 531.913 743.018C531.599 735.58 562.587 720.532 581.342 723.504C591.732 725.125 593.977 723.534 602.659 731.339C611.341 739.144 637.44 744.859 602.659 776.49Z" fill="#E9C46A"/>
<path d="M534.853 70.7915C523.636 105.928 503.452 122.11 471.403 139.27C439.354 156.43 430.853 149.893 396 139.27L453.376 22.8287H528.29L575.5 70.7915L592 111.5L595 139.27V153C528.306 144.829 534.853 70.7915 534.853 70.7915Z" fill="#340404"/>
<path d="M91.5 461C91.5 461 238.747 530.564 294.5 532.5C350.253 534.436 484.026 395.055 484.026 395.055L389.468 341.833C389.468 341.833 409.5 286 288.5 461C247.392 461 105.873 421.281 105.873 421.281L91.5 461Z" fill="#21C292"/>
<path d="M517.171 251.905C515.996 289.695 529.113 325.468 530.624 331.108C523.762 345.035 476.878 354.576 459.71 316.865C455.995 263.462 460.654 201.771 460.654 201.771L485.439 228.373L517.171 251.905Z" fill="#E9C46A"/>
<path d="M525.384 242.821C514.73 247.439 494.714 226.371 491.745 219.52C488.775 212.669 522.813 216.623 527.131 216.581C533.169 215.658 544.957 210.76 547.926 217.611C550.896 224.462 531.256 240.276 525.384 242.821Z" fill="#AE9712"/>
<path d="M534.522 227.572C535.504 231.259 530.303 236.127 525.427 237.892C521.702 237.639 517.666 237.925 512.194 234.511C511.548 231.328 515.803 227.658 521.178 226.566C526.552 225.473 533.688 226.366 534.522 227.572Z" fill="#E75151"/>
<path d="M550.884 171.304C556.117 168.838 558.478 162.845 556.157 157.919C553.835 152.993 547.71 151 542.476 153.466C537.243 155.933 534.882 161.926 537.204 166.852C539.525 171.778 545.65 173.771 550.884 171.304Z" fill="#340404"/>
<path d="M500.409 174.419C505.643 171.953 507.886 165.71 505.419 160.476C502.953 155.243 496.71 153 491.476 155.466C486.243 157.933 484 164.175 486.466 169.409C488.933 174.643 495.175 176.886 500.409 174.419Z" fill="#340404"/>
<ellipse cx="525.955" cy="186.058" rx="21.6678" ry="19.3446" transform="rotate(-30 525.955 186.058)" fill="#E9C46A"/>
<path d="M503.657 164.656C514.149 167.203 520.201 178.55 517.174 190C514.147 201.45 503.188 208.668 492.696 206.122C482.203 203.575 476.151 192.228 479.178 180.777C482.205 169.327 493.165 162.109 503.657 164.656Z" fill="#E9C46A"/>
<ellipse rx="21.619" ry="19.3899" transform="matrix(0.652266 -0.75799 0.766326 0.642451 542.614 182.614)" fill="#E9C46A"/>
<path d="M815.989 766.772C816.368 788.465 807.497 823.911 765.59 824.756C723.678 825.514 627.398 834.382 585.876 819.101C555.594 807.949 485.162 787.625 433.923 777.085C414.881 773.191 398.517 770.596 387.808 770.363C359.902 769.827 331.224 744.769 310.723 727.886C302.465 721.012 295.509 715.509 290.537 713.445C285.647 711.463 281.97 709.09 279.677 706.648C278.072 704.893 277.08 703.132 277.004 701.453C276.846 697.483 281.661 694.271 292.521 694.271C295.585 694.271 298.719 694.422 301.858 694.731C320.895 696.107 341.163 701.074 352.56 700.765C365.86 700.305 402.112 732.165 409.378 733.768C412.441 734.456 421.61 737.132 433.316 738.048C449.225 739.19 470.024 736.975 487.158 721.695C496.104 713.673 508.948 704.351 522.563 695.11C542.143 681.894 563.251 668.98 576.475 661.116C576.556 661.116 576.556 661.034 576.556 661.034C581.289 659.203 589.331 655.215 594 653C594.764 654.836 595.438 657.942 596.5 662.5C598.49 665.555 599.649 669.901 602.858 672.647C605.998 675.399 609.745 677.539 614.098 678.606C616.473 679.142 620.138 679.597 624.965 679.981C625.875 680.057 626.791 680.057 627.789 680.133C633.683 680.593 640.715 680.897 648.594 681.281C654.862 681.585 661.672 681.894 668.634 682.354C698.759 684.191 732.56 687.624 747.855 697.098C755.045 701.605 763.075 706.957 771.029 712.839C781.277 720.4 791.297 728.877 799.327 737.284C807.357 745.766 813.322 754.167 815.312 761.886C815.685 763.559 815.913 765.163 815.989 766.772Z" fill="#2A94F4"/>
<path d="M615 718.498C599.29 724.095 579.717 730.813 558.848 737.92C506.662 755.689 446.51 775.902 419.257 787.354C404.908 793.379 384.706 796.874 362.729 798.606C362.644 798.606 362.56 798.625 362.463 798.625C355.697 799.157 348.729 799.52 341.71 799.734C341.283 799.741 340.816 799.76 340.401 799.773C311.288 800.616 281.494 799.014 259.633 796.576C259.581 796.556 259.517 796.556 259.432 796.537C244.539 794.883 233.32 792.821 228.615 790.928C214.894 785.377 204.278 760.702 201.627 739.263C200.668 731.332 200.765 723.855 202.223 717.928C205.477 704.601 221.861 688.694 241.784 676.638C241.804 676.612 241.804 676.612 241.804 676.612C254.656 668.824 269.044 662.631 282.311 659.745C300.542 655.79 333.201 655.563 360.972 654.804C364.375 654.726 367.726 654.609 370.927 654.499H370.947C375.788 654.331 380.383 654.11 384.564 653.851C397.5 650 397.5 650 409.017 649.331C409.5 649 409.5 649 409.5 649H410L421.24 653.364L505 668.5C543 676.612 554.829 661.745 571 681C574.733 680.254 573.138 690.289 575.776 689.835C581.467 688.856 586.114 687.715 589.912 686.379L615 718.498Z" fill="#2A94F4"/>
<path d="M372.38 827.907C357.355 801.884 434.327 728.911 439.161 726.12C481 714.855 481 714.855 499.416 730.006C505.277 797.523 515.447 774.287 476.453 790.515C436.404 813.636 387.404 853.93 372.38 827.907Z" fill="#E9C46A"/>
<ellipse cx="920.013" cy="404.182" rx="8" ry="24" transform="rotate(42.0388 920.013 404.182)" fill="#E9C46A"/>
</svg>
