<svg width="960" height="837" viewBox="0 0 960 837" fill="none" xmlns="http://www.w3.org/2000/svg">
<g opacity="0.8">
<path d="M957.557 377.325C970.451 399.658 911.092 451.507 907.413 453.631C875.025 461.267 873.513 467.039 858.413 453.631C850.973 397.08 847.442 416.03 877.387 404.136C907.87 386.536 944.663 354.993 957.557 377.325Z" fill="#E9C46A"/>
<ellipse cx="883.013" cy="393.182" rx="8" ry="24" transform="rotate(40.722 883.013 393.182)" fill="#E9C46A"/>
<path d="M613.5 134.5C610 114.5 614.571 119.389 600.5 88C587.5 59 573.5 45.5 556 30C541.856 17.4728 507.207 0.243804 477.235 0.471211C437.774 0.651698 396.795 21.0461 372.368 52.7287C347.941 84.4112 341.03 126.072 354.67 159.132C364.382 182.908 384.108 203.665 382.298 230.326C380.775 249.538 368.034 267.693 353.985 283.087C339.613 298.416 323.402 312.548 312.166 329.834C300.93 347.12 295.43 368.879 304.997 384.953C312.281 397.072 326.761 403.78 334.581 415.338C346.093 432.298 340.927 456.125 332.618 476.493C324.093 496.985 312.548 517.212 311.035 538.428C308.62 573.475 336.259 602.973 370.811 613.161C405.363 623.348 471.24 640.276 507.736 629C600 621 609 652 669.5 612C680 601.5 691.78 592.482 693.5 550C691.676 523.5 686.153 520.182 684.5 491C683.062 461.694 695.655 465.445 684.5 429.5C675.5 400.5 679.38 417.764 656.5 365C644.367 337.019 669.5 320.5 656.5 274C650.505 252.555 624.902 232.402 625.982 210.934C626.373 202.672 630.105 194.238 630.281 186.101C630.849 170.202 622 162 616.5 155C612.197 149.524 613.5 143 613.5 134.5Z" fill="#340404"/>
<path d="M62.0955 468.749C36.0176 463.36 7.33025 431.775 2.76546 422.16C-1.79933 412.545 0.887089 385.45 15.8897 389.949C30.8923 394.449 47.7166 399.037 57.3482 405.614C63.0573 409.461 75.3184 419.7 73.5334 411.389C71.7484 403.078 54.4565 391.251 62.0143 386.403C68.2992 382.412 96.8246 401.725 103.629 419.453C107.42 429.261 109.92 430.411 107.502 441.832C105.083 453.253 103.461 477.276 62.0955 468.749Z" fill="#E9C46A"/>
<path d="M515.5 315C515.5 315 547.5 308.951 662.5 406C767.763 431.38 866.134 406 866.134 406L866.134 459.489C866.134 459.489 660.987 493.898 642.103 485.489C625.899 473.329 515.5 442 515.5 315Z" fill="#21C292"/>
<path d="M91 469.5C91 469.5 214.747 530.564 270.5 532.5C326.253 534.436 460.026 395.055 460.026 395.055L365.468 341.833C365.468 341.833 385.5 286 264.5 461C223.392 461 107.5 426.5 107.5 426.5L91 469.5Z" fill="#21C292"/>
<path d="M478.568 300.099C478.568 300.099 573.118 320.812 579.782 352.667C583.564 370.879 603.014 445.278 579.782 483.247C556.549 521.216 561.592 630.476 579.782 653L364.118 642.989C364.118 642.989 393.305 534.215 378.357 483.247C363.409 432.278 245.5 425.5 364.118 329.895C432.194 296.688 478.568 300.099 478.568 300.099Z" fill="#21C292"/>
<g filter="url(#filter0_d_0_1)">
<path d="M496.171 251.905C494.996 289.695 508.113 325.468 509.624 331.108C502.762 345.035 455.878 354.576 438.71 316.865C434.995 263.462 439.654 201.771 439.654 201.771L464.439 228.373L496.171 251.905Z" fill="#E9C46A"/>
</g>
<path d="M495.105 288.731C490.615 296.507 475.882 296.407 462.199 288.507C448.515 280.607 435.789 259.89 440.279 252.113C444.769 244.336 453.694 242.3 478.459 260.345C492.142 268.245 499.595 280.954 495.105 288.731Z" fill="#C29D44"/>
<g filter="url(#filter1_d_0_1)">
<path d="M569.393 137.334C578.18 219.978 544.617 278.428 493.096 283.455C441.574 288.481 404.446 214.906 416.827 144.189C450.146 80.3278 499.199 73.0396 499.199 73.0396L530.252 71.6442L569.393 137.334Z" fill="#E9C46A"/>
</g>
<path d="M578.659 776.49C550.94 791.359 524.158 797.345 513.548 796.49C490.342 765.773 483.151 767.407 494.548 756.664C505.946 745.922 511.705 761.717 522.217 756.664C528.404 753.644 543.401 748.145 535.311 745.535C527.221 742.926 508.333 751.987 507.913 743.018C507.599 735.58 538.587 720.532 557.342 723.504C567.732 725.125 569.977 723.534 578.659 731.339C587.341 739.144 613.44 744.859 578.659 776.49Z" fill="#E9C46A"/>
<path d="M510.853 70.7915C499.636 105.928 479.452 122.11 447.403 139.27C415.354 156.43 406.853 149.893 372 139.27L429.376 22.8287H504.29L551.5 70.7915L568 111.5L571 139.27V153C504.306 144.829 510.853 70.7915 510.853 70.7915Z" fill="#340404"/>
<path d="M501.384 242.821C490.73 247.439 470.714 226.371 467.745 219.52C464.775 212.669 498.813 216.623 503.131 216.581C509.169 215.658 520.957 210.76 523.926 217.611C526.896 224.462 507.256 240.276 501.384 242.821Z" fill="#AE9712"/>
<path d="M509.218 233.841C509.447 237.65 503.38 241.384 498.251 242.144C494.651 241.154 490.639 240.63 485.957 236.194C485.957 232.947 490.858 230.197 496.342 230.197C501.827 230.197 508.642 232.493 509.218 233.841Z" fill="#E75151"/>
<path d="M791.989 756.975C792.368 782.139 783.497 823.257 741.59 824.237C699.678 825.117 603.398 835.403 561.876 817.678C531.594 804.74 461.162 781.166 409.923 768.939C390.881 764.421 374.517 761.412 363.808 761.141C335.902 760.519 307.224 731.453 286.723 711.868C278.465 703.894 271.509 697.51 266.537 695.116C261.647 692.817 257.97 690.065 255.677 687.231C254.072 685.196 253.08 683.153 253.004 681.205C252.846 676.6 257.661 672.874 268.521 672.874C271.585 672.874 274.719 673.05 277.858 673.408C296.895 675.004 317.163 680.766 328.56 680.408C341.86 679.873 378.112 716.832 385.378 718.691C388.441 719.489 397.61 722.593 409.316 723.655C425.225 724.981 446.024 722.411 463.158 704.686C472.104 695.38 484.948 684.567 498.563 673.848C477.5 640 539 639.5 552.475 634.414C552.556 634.414 552.556 634.319 552.556 634.319C557.289 632.196 564.831 628.07 569.5 625.5C570 626 571.438 630.732 572.5 636.02C574.49 639.564 575.649 644.606 578.858 647.791C581.998 650.983 585.745 653.465 590.098 654.702C592.473 655.325 596.138 655.852 600.965 656.298C601.875 656.386 602.791 656.386 603.789 656.474C609.683 657.008 616.715 657.36 624.594 657.806C630.862 658.158 637.672 658.516 644.634 659.051C674.759 661.181 708.56 665.164 723.855 676.154C731.045 681.381 739.075 687.59 747.029 694.413C757.277 703.184 767.297 713.017 775.327 722.769C783.357 732.609 789.322 742.354 791.312 751.308C791.685 753.249 791.913 755.109 791.989 756.975Z" fill="#2176C2"/>
<path d="M591 712.021C575.29 718.062 555.717 725.315 534.848 732.987C482.662 752.167 422.51 773.987 395.257 786.35C380.908 792.853 360.706 796.626 338.729 798.495C338.644 798.495 338.56 798.516 338.463 798.516C331.697 799.09 324.729 799.482 317.71 799.713C317.283 799.72 316.816 799.741 316.401 799.755C287.288 800.665 257.494 798.936 235.633 796.304C235.581 796.283 235.517 796.283 235.432 796.262C220.539 794.477 209.32 792.251 204.615 790.207C190.894 784.214 180.278 757.579 177.627 734.436C176.668 725.875 176.765 717.803 178.223 711.405C181.477 697.02 197.861 679.848 217.784 666.835C217.804 666.807 217.804 666.807 217.804 666.807C230.656 658.4 245.044 651.714 258.311 648.599C276.542 644.329 309.201 644.084 336.972 643.265C340.375 643.181 343.726 643.055 346.927 642.936H346.947C351.788 642.754 356.383 642.516 360.564 642.236C367 641.711 371 641.711 381 641.711C375.483 642.081 390 641.711 390 641.711H394H397.24L494 642.236C529.5 646.5 522.741 642.936 541.5 661C555 674 549.138 681.57 551.776 681.08C557.467 680.023 562.114 678.791 565.912 677.349L591 712.021Z" fill="#2176C2"/>
<path d="M349.38 819.907C334.355 793.884 411.327 720.911 416.161 718.119C458 706.855 458 706.855 476.416 722.005C482.277 789.523 492.447 766.287 453.453 782.515C413.404 805.636 364.404 845.93 349.38 819.907Z" fill="#AE9047"/>
<g filter="url(#filter2_i_0_1)">
<path d="M348.38 827.907C333.355 801.884 410.327 728.911 415.161 726.119C457 714.855 457 714.855 475.416 730.005C481.277 797.523 491.447 774.287 452.453 790.515C412.404 813.636 363.404 853.93 348.38 827.907Z" fill="#E9C46A"/>
</g>
<path d="M242.062 711.505C314.19 666.349 378.177 691.335 401.154 709.472" stroke="#0B5EA9" stroke-width="10" stroke-linecap="round"/>
<path d="M492.53 724.427C582.509 667.836 664.614 702.864 694.42 727.452" stroke="#0B5EA8" stroke-width="10" stroke-linecap="round"/>
<path d="M524.56 173.846C531.719 173.737 536.073 175.775 536.02 172.297C535.967 168.819 530.12 166.089 522.962 166.198C515.803 166.308 510.043 169.216 510.096 172.694C510.15 176.171 517.401 173.956 524.56 173.846Z" fill="#340404"/>
<path d="M468.636 173.812C475.79 173.547 480.188 175.49 480.059 172.014C479.93 168.538 474.026 165.936 466.872 166.201C459.717 166.466 454.022 169.498 454.15 172.974C454.279 176.45 461.481 174.077 468.636 173.812Z" fill="#340404"/>
</g>
<defs>
<filter id="filter0_d_0_1" x="433.273" y="201.771" width="80.3515" height="149.62" filterUnits="userSpaceOnUse" color-interpolation-filters="sRGB">
<feFlood flood-opacity="0" result="BackgroundImageFix"/>
<feColorMatrix in="SourceAlpha" type="matrix" values="0 0 0 0 0 0 0 0 0 0 0 0 0 0 0 0 0 0 127 0" result="hardAlpha"/>
<feOffset dy="4"/>
<feGaussianBlur stdDeviation="2"/>
<feComposite in2="hardAlpha" operator="out"/>
<feColorMatrix type="matrix" values="0 0 0 0 0 0 0 0 0 0 0 0 0 0 0 0 0 0 0.25 0"/>
<feBlend mode="normal" in2="BackgroundImageFix" result="effect1_dropShadow_0_1"/>
<feBlend mode="normal" in="SourceGraphic" in2="effect1_dropShadow_0_1" result="shape"/>
</filter>
<filter id="filter1_d_0_1" x="410.431" y="71.6442" width="164.358" height="220.054" filterUnits="userSpaceOnUse" color-interpolation-filters="sRGB">
<feFlood flood-opacity="0" result="BackgroundImageFix"/>
<feColorMatrix in="SourceAlpha" type="matrix" values="0 0 0 0 0 0 0 0 0 0 0 0 0 0 0 0 0 0 127 0" result="hardAlpha"/>
<feOffset dy="4"/>
<feGaussianBlur stdDeviation="2"/>
<feComposite in2="hardAlpha" operator="out"/>
<feColorMatrix type="matrix" values="0 0 0 0 0 0 0 0 0 0 0 0 0 0 0 0 0 0 0.25 0"/>
<feBlend mode="normal" in2="BackgroundImageFix" result="effect1_dropShadow_0_1"/>
<feBlend mode="normal" in="SourceGraphic" in2="effect1_dropShadow_0_1" result="shape"/>
</filter>
<filter id="filter2_i_0_1" x="346.439" y="718.103" width="134.681" height="122.251" filterUnits="userSpaceOnUse" color-interpolation-filters="sRGB">
<feFlood flood-opacity="0" result="BackgroundImageFix"/>
<feBlend mode="normal" in="SourceGraphic" in2="BackgroundImageFix" result="shape"/>
<feColorMatrix in="SourceAlpha" type="matrix" values="0 0 0 0 0 0 0 0 0 0 0 0 0 0 0 0 0 0 127 0" result="hardAlpha"/>
<feOffset dy="15"/>
<feGaussianBlur stdDeviation="2"/>
<feComposite in2="hardAlpha" operator="arithmetic" k2="-1" k3="1"/>
<feColorMatrix type="matrix" values="0 0 0 0 0 0 0 0 0 0 0 0 0 0 0 0 0 0 0.25 0"/>
<feBlend mode="normal" in2="shape" result="effect1_innerShadow_0_1"/>
</filter>
</defs>
</svg>
