<svg width="872" height="794" viewBox="0 0 872 794" fill="none" xmlns="http://www.w3.org/2000/svg">
<g opacity="0.8">
<path d="M869.416 362.03C879.506 379.507 841.615 412.436 838.735 414.099C813.39 420.075 788.73 424.591 776.914 414.099C771.091 369.845 817.606 343.875 821.91 354.386C776.914 399 859.326 344.554 869.416 362.03Z" fill="#C7AC6B"/>
<path d="M553.629 162.376C531.163 149.701 564.695 133.98 552.249 109C538.021 86.6688 542.307 61.4159 537.024 48.09C527.332 24.2045 501.484 7.60034 471.699 2.2382C432.515 -4.93338 386.954 6.64628 355.09 31.9343C323.226 57.2224 306.33 95.1647 311.892 128.832C315.796 153.026 330.359 176.241 322.139 201.009C315.998 218.816 298.985 233.54 281.341 245.422C263.391 257.182 243.905 267.472 228.595 281.659C213.284 295.845 202.585 315.311 208.201 332.226C212.505 344.992 225.251 354.003 230.222 366.34C237.554 384.452 226.687 405.927 213.536 423.56C200.142 441.269 183.816 458.167 177.203 477.863C166.361 510.414 186.667 543.332 218.483 559.353C250.3 575.374 311.563 603.57 350.479 599.742C456.939 589.555 461.953 612.672 564.39 578.764C596.125 568.296 579.032 573.061 588.133 567.918C616.959 551.632 644.445 553.489 649.839 525.703C655.475 497.841 645.035 505.02 639.031 456.287C635.211 425.275 689.763 376.811 656.992 333.791C639.24 310.489 621.098 281.009 600.076 273.746C579.054 266.483 562.273 248.099 568.519 228.085C570.897 220.378 576.632 213.132 578.767 205.502C583.163 190.637 574.823 176.105 561.833 167.171C559.506 165.734 556.873 164.175 553.629 162.376Z" fill="#422626"/>
<path d="M52.6606 419.795C30.3055 415.175 5.71348 388.099 1.80035 379.857C-2.11278 371.614 0.190125 348.387 13.051 352.244C25.9119 356.101 40.3344 360.034 48.591 365.672C53.4851 368.971 63.9958 377.748 62.4657 370.624C60.9355 363.499 46.1122 353.36 52.591 349.204C57.9787 345.783 82.4319 362.339 88.2646 377.536C91.5145 385.944 93.6579 386.929 91.5848 396.72C89.5117 406.511 88.1208 427.104 52.6606 419.795Z" fill="#C7AC6B"/>
<path d="M478.928 295.372C477.135 288.404 483.259 282.46 490.047 284.844C515.073 293.636 567.997 317.985 613.741 377.123C617.226 381.628 623.765 382.569 628.981 380.279C665.064 364.434 749.604 370.932 777.152 373.581C782.202 374.067 786 378.325 786 383.398L786 414.86C786 419.6 782.696 423.683 778.049 424.622C743.871 431.533 610.25 457.898 589.97 451.852C589.251 451.638 588.736 451.3 588.132 450.856C571.127 438.362 504.644 395.328 478.928 295.372Z" fill="#058596"/>
<path d="M77.4028 414.802C75.6059 419.484 77.5308 424.749 81.9815 427.061C107.623 440.385 190.99 481.876 237.763 483.5C286.162 485.18 382.784 376.559 407.434 347.873C410.791 343.965 410.491 338.212 406.859 334.559L373.007 300.515C372.013 299.516 370.79 298.761 369.382 298.811C361.474 299.091 329.326 307.708 238.686 405.342C235.421 408.859 230.066 409.644 225.845 407.362C179.775 382.45 117.495 380.018 97.3445 379.922C93.3297 379.903 89.8289 382.418 88.3906 386.167L77.4028 414.802Z" fill="#058596"/>
<path d="M766.989 707.975C767.368 733.139 758.497 774.256 716.59 775.237C674.678 776.116 578.398 786.402 536.876 768.677C506.594 755.74 436.162 732.165 384.923 719.938C365.881 715.421 349.517 712.411 338.808 712.141C310.902 711.519 282.224 682.452 261.723 662.867C253.465 654.894 246.509 648.51 241.537 646.116C236.647 643.817 232.97 641.064 230.677 638.231C229.072 636.195 228.08 634.153 228.004 632.205C227.846 627.6 232.661 623.873 243.521 623.873C246.585 623.873 249.719 624.049 252.858 624.408C271.895 626.004 292.163 631.766 303.56 631.407C316.86 630.873 353.112 667.831 360.378 669.691C363.441 670.489 372.61 673.593 384.316 674.655C400.225 675.98 421.024 673.41 438.158 655.685C447.104 646.38 459.948 635.566 473.563 624.847C452.5 591 514 590.5 527.475 585.414C527.556 585.414 527.556 585.319 527.556 585.319C532.289 583.196 538.831 579.57 543.5 577C542.5 577.55 546.438 581.732 547.5 587.02C549.49 590.563 550.649 595.605 553.858 598.79C556.998 601.982 560.745 604.464 565.098 605.702C567.473 606.324 571.138 606.852 575.965 607.298C576.875 607.386 577.791 607.386 578.789 607.474C584.683 608.008 591.715 608.36 599.594 608.806C605.862 609.158 612.672 609.516 619.634 610.05C649.759 612.181 683.56 616.164 698.855 627.153C706.045 632.381 714.075 638.589 722.029 645.413C732.277 654.184 742.297 664.017 750.327 673.769C758.357 683.609 764.322 693.354 766.312 702.308C766.685 704.249 766.913 706.108 766.989 707.975Z" fill="#39658C"/>
<path d="M553 655.31C537.29 661.351 517.717 668.603 496.848 676.276C444.662 695.456 384.51 717.276 357.257 729.638C342.908 736.141 322.706 739.915 300.729 741.784C300.644 741.784 300.56 741.805 300.463 741.805C293.697 742.379 286.729 742.771 279.71 743.002C279.283 743.009 278.816 743.03 278.401 743.044C249.288 743.954 219.494 742.225 197.633 739.593C197.581 739.572 197.517 739.572 197.432 739.551C182.539 737.766 171.32 735.539 166.615 733.495C152.894 727.503 142.278 700.867 139.627 677.725C138.668 669.163 138.765 661.092 140.223 654.694C143.477 640.309 159.861 623.137 179.784 610.124C179.804 610.096 179.804 610.096 179.804 610.096C192.656 601.688 207.044 595.003 220.311 591.888C238.542 587.618 271.201 587.373 298.972 586.554C302.375 586.47 305.726 586.344 308.927 586.225H308.947C313.788 586.043 318.383 585.805 322.564 585.525C329 585 333 585 343 585C337.483 585.369 352 585 352 585H356H359.24L456 585.525C491.5 589.789 484.741 586.225 503.5 604.289C517 617.289 511.138 624.859 513.776 624.369C519.467 623.312 524.114 622.08 527.912 620.638L553 655.31Z" fill="#39658C"/>
<path d="M443.313 268.174C444.205 268.048 445.052 268.065 445.938 268.228C455.199 269.927 510.905 281.438 515.028 313.234C518.807 330.08 557.735 393.739 534.516 428.86C515.456 457.692 533.959 538.906 551.254 578.599C554.684 586.469 548.588 597.675 540.003 597.675H487.544L429.605 605.652C427.948 605.88 426.26 605.689 424.696 605.096L386.877 590.757C386.032 590.437 385.148 590.233 384.249 590.15L342.314 586.288C336.059 585.712 331.825 579.612 333.376 573.525C340.473 545.668 356.32 474.763 344.485 437.414C329.701 390.756 297.826 400.74 329.616 320.862C330.262 319.238 331.37 317.741 332.757 316.679C383.098 278.113 434.497 269.423 443.313 268.174Z" fill="#058596"/>
<g filter="url(#filter0_d_0_1)">
<path d="M462.171 219.905C460.996 257.695 474.113 293.468 475.624 299.107C468.762 313.035 421.878 322.575 404.71 284.865C400.995 231.462 405.654 169.771 405.654 169.771L430.439 196.373L462.171 219.905Z" fill="#C7AC6B"/>
</g>
<path d="M461.105 261.886C456.615 269.663 441.882 269.563 428.199 261.663C414.515 253.762 401.789 233.045 406.279 225.268C410.769 217.491 419.694 215.455 444.459 233.5C458.142 241.4 465.595 254.109 461.105 261.886Z" fill="#C29D44"/>
<g filter="url(#filter1_d_0_1)">
<path d="M513.588 101.8C536.969 181.554 514.365 245.051 464.565 259.183C414.765 273.315 365.114 207.537 364.688 135.747C386.088 66.9678 433.055 51.0508 433.055 51.0508L463.362 44.1414L513.588 101.8Z" fill="#C7AC6B"/>
</g>
<path d="M454.746 86.432C444.348 118.994 441.305 121.227 425.547 136.635C397.275 164.278 382.307 174.123 350 164.278L402.721 16H472.163L515.924 60.4491L531.219 98.1752L534 123.911V136.635C472.178 129.062 454.746 86.432 454.746 86.432Z" fill="#422626"/>
<path d="M465.862 223.381C456.057 229.603 433.004 211.91 429.003 205.605C425.003 199.301 459.241 197.904 463.5 197.189C469.32 195.337 480.201 188.663 484.202 194.967C488.202 201.272 471.266 219.952 465.862 223.381Z" fill="#6D1042"/>
<path d="M474.5 213.07C468.282 219.578 466.421 221.718 461.431 223.127C457.733 222.606 450.454 220.645 445.243 216.845C444.827 213.624 452.461 214.057 457.9 213.355C463.34 212.653 480.718 206.562 474.5 213.07Z" fill="#AC5656"/>
<path d="M314.38 784.906C299.355 758.883 376.327 685.91 381.161 683.119C423 671.855 423 671.855 441.416 687.005C447.277 754.523 457.447 731.287 418.453 747.514C378.404 770.636 329.404 810.929 314.38 784.906Z" fill="#C7AC6B"/>
<path d="M208.062 664.504C280.19 619.349 344.177 644.334 367.154 662.471" stroke="#305373" stroke-opacity="0.8" stroke-width="10" stroke-linecap="round"/>
<path d="M471.141 671.572C567.76 627.259 644.567 672.745 670.894 701.027" stroke="#315473" stroke-width="10" stroke-linecap="round"/>
<path d="M485.384 147.674C492.469 148.707 496.443 151.412 496.944 147.971C497.446 144.529 492.11 140.902 485.025 139.869C477.941 138.837 471.791 140.79 471.289 144.231C470.788 147.673 478.3 146.642 485.384 147.674Z" fill="#340404"/>
<path d="M430.257 150.988C437.365 150.133 441.908 151.705 441.493 148.252C441.078 144.799 434.979 142.693 427.87 143.548C420.762 144.403 415.337 147.895 415.752 151.348C416.167 154.802 423.149 151.843 430.257 150.988Z" fill="#340404"/>
</g>
<defs>
<filter id="filter0_d_0_1" x="399.273" y="169.771" width="80.3515" height="149.62" filterUnits="userSpaceOnUse" color-interpolation-filters="sRGB">
<feFlood flood-opacity="0" result="BackgroundImageFix"/>
<feColorMatrix in="SourceAlpha" type="matrix" values="0 0 0 0 0 0 0 0 0 0 0 0 0 0 0 0 0 0 127 0" result="hardAlpha"/>
<feOffset dy="4"/>
<feGaussianBlur stdDeviation="2"/>
<feComposite in2="hardAlpha" operator="out"/>
<feColorMatrix type="matrix" values="0 0 0 0 0 0 0 0 0 0 0 0 0 0 0 0 0 0 0.25 0"/>
<feBlend mode="normal" in2="BackgroundImageFix" result="effect1_dropShadow_0_1"/>
<feBlend mode="normal" in="SourceGraphic" in2="effect1_dropShadow_0_1" result="shape"/>
</filter>
<filter id="filter1_d_0_1" x="360.688" y="44.1414" width="166.151" height="224.97" filterUnits="userSpaceOnUse" color-interpolation-filters="sRGB">
<feFlood flood-opacity="0" result="BackgroundImageFix"/>
<feColorMatrix in="SourceAlpha" type="matrix" values="0 0 0 0 0 0 0 0 0 0 0 0 0 0 0 0 0 0 127 0" result="hardAlpha"/>
<feOffset dy="4"/>
<feGaussianBlur stdDeviation="2"/>
<feComposite in2="hardAlpha" operator="out"/>
<feColorMatrix type="matrix" values="0 0 0 0 0 0 0 0 0 0 0 0 0 0 0 0 0 0 0.25 0"/>
<feBlend mode="normal" in2="BackgroundImageFix" result="effect1_dropShadow_0_1"/>
<feBlend mode="normal" in="SourceGraphic" in2="effect1_dropShadow_0_1" result="shape"/>
</filter>
</defs>
</svg>
