<svg width="230" height="161" viewBox="0 0 230 161" fill="none" xmlns="http://www.w3.org/2000/svg">
<path d="M170.674 3.17991C193.833 8.64165 211.415 24.3183 221.5 42.3017C231.58 60.1852 234.002 80.1838 219.449 92.9854C205.045 105.779 173.516 111.384 150.687 123.129C127.714 134.983 113.441 152.977 93.4284 158.762C73.4162 164.547 47.5107 158.032 30.1761 146.948C12.6924 135.873 3.77965 120.23 1.49318 105.532C-0.644274 90.8255 3.84459 77.064 8.75356 62.7791C13.5135 48.5023 18.5392 33.6103 32.2376 24.3598C45.787 15.1173 68.1527 11.4085 93.4771 7.13959C118.945 2.76283 147.67 -2.19001 170.674 3.17991Z" fill="#663399"/>
</svg>
