<svg width="229" height="162" viewBox="0 0 229 162" fill="none" xmlns="http://www.w3.org/2000/svg">
<path d="M60.3563 159.845C37.1246 154.703 19.3285 139.269 8.99708 121.426C-1.32755 103.683 -4.02505 83.7198 10.3506 70.7192C24.5774 57.7287 56.0262 51.6908 78.6918 39.6325C101.499 27.4643 115.524 9.27555 135.455 3.2156C155.385 -2.84435 181.378 3.31418 198.864 14.158C216.498 24.9917 225.625 40.5107 228.113 55.1761C230.453 69.8516 226.154 83.6735 221.442 98.0246C216.879 112.365 212.058 127.325 198.488 136.763C185.067 146.191 162.755 150.207 137.492 154.824C112.086 159.551 83.4324 164.898 60.3563 159.845Z" fill="#663399"/>
</svg>
