<svg width="58" height="34" viewBox="0 0 58 34" fill="none" xmlns="http://www.w3.org/2000/svg">
<path d="M56.9989 7.27444C57.1944 10.595 39.5844 5.69708 29.4629 6.50517C2.48134 8.65936 0.796805 10.2216 0.999855 7.4006C1.66753 -1.87551 5.81974 0.228228 26.6922 1.11769C46.5474 1.96381 56.7708 3.40199 56.9989 7.27444Z" fill="#058596"/>
<path d="M0.999995 16.5946C0.732545 13.2772 18.5 13.9535 29.5156 13.9535C57.9959 13.9535 57.1614 13.7708 57 16.5946C56.4691 25.88 51.5059 22.0784 29.5156 21.5C8.5969 20.9498 1.31189 20.4634 0.999995 16.5946Z" fill="#058596"/>
<path d="M55.7004 30.4975C55.9598 33.814 38.6207 33.2162 28.3861 33.2271C3.4375 33.2536 0.892319 34.4989 1.0442 31.6746C1.54364 22.3879 4.42433 27.3807 25.4908 27.8908C45.5307 28.376 55.3978 26.6298 55.7004 30.4975Z" fill="#058596"/>
</svg>
