<svg width="228" height="226" viewBox="0 0 228 226" fill="none" xmlns="http://www.w3.org/2000/svg">
<path d="M217.155 111.144C212.696 154.172 202.208 178.466 186.319 192.78C170.359 207.159 146.975 213.288 112.008 215.012C82.4993 216.467 57.2469 209.253 39.4562 193.219C21.7863 177.294 10 151.333 10 112.175C10 61.5417 50.7817 10.5 107 10.5C135.851 10.5 165.156 21.9924 186.381 40.617C207.547 59.19 219.956 84.1188 217.155 111.144Z" stroke="#058596" stroke-width="20"/>
<path d="M113.068 163.009C121.125 163.009 128.164 160.567 134.187 155.685C140.209 150.802 143.545 144.698 144.196 137.374H165.559C165.152 144.942 162.548 152.145 157.746 158.98C152.945 165.816 146.516 171.269 138.459 175.338C130.484 179.407 122.02 181.441 113.068 181.441C95.0833 181.441 80.7604 175.46 70.0996 163.497C59.5202 151.453 54.2305 135.014 54.2305 114.181V110.396C54.2305 97.5384 56.5905 86.1045 61.3105 76.0947C66.0306 66.085 72.7852 58.3132 81.5742 52.7793C90.4447 47.2454 100.902 44.4785 112.946 44.4785C127.757 44.4785 140.046 48.9137 149.812 57.7842C159.659 66.6546 164.908 78.1699 165.559 92.3301H144.196C143.545 83.7852 140.29 76.7865 134.431 71.334C128.653 65.8001 121.491 63.0332 112.946 63.0332C101.472 63.0332 92.5605 67.1836 86.2129 75.4844C79.9466 83.7038 76.8135 95.626 76.8135 111.251V115.523C76.8135 130.742 79.9466 142.46 86.2129 150.68C92.4792 158.899 101.431 163.009 113.068 163.009Z" fill="#058596"/>
</svg>
