<svg width="501" height="253" viewBox="0 0 501 253" fill="none" xmlns="http://www.w3.org/2000/svg">
<g opacity="0.8">
<path d="M324.423 137.764C324.423 137.764 357.144 137.764 346.237 105.384C340.783 89.1943 351.69 99.9875 357.144 110.781C362.597 121.574 368.051 153.954 329.877 148.557C291.702 143.161 324.423 137.764 324.423 137.764Z" fill="#313E6E"/>
<path d="M346.008 159.086C346.155 157.397 346.237 155.864 346.237 154.548C346.237 150.997 345.893 149.151 345.304 148.487C340.418 132.589 315.19 132.858 286.118 132.95C269.829 132.826 258.982 110.824 258.982 105.978C258.982 78.9946 232.544 72.6158 218.081 89.7879C204.447 105.978 177.18 89.5882 177.18 105.978C177.18 132.961 195.493 149.151 218.081 149.151C221.615 149.151 227.548 148.347 234.496 147.095C239.628 155.983 242.076 168.039 242.621 170.737C242.752 171.38 242.894 172.006 243.03 172.642C245.403 197.575 257.651 246.29 264.435 246.29C270.27 246.29 273.602 232.885 274.808 217.149C279.639 218.552 285.224 219.307 291.702 219.307C297.767 219.307 303.356 217.974 308.488 215.751C309.606 232.086 312.96 246.29 318.97 246.29C326.015 246.29 343.75 184.229 345.997 159.167C346.002 159.135 346.002 159.113 346.008 159.086Z" fill="#69688F"/>
<path d="M188.087 108.682C188.087 113.155 181.701 116.776 177.18 116.776C172.659 116.776 169 110.457 169 105.983C169 101.509 172.659 100.587 177.18 100.587C188.087 100.587 188.087 104.208 188.087 108.682Z" fill="#313E6E"/>
<path d="M264.435 116.777C264.435 133.171 257.106 135.665 248.075 135.665C239.039 135.665 231.715 133.171 231.715 116.777C231.715 100.382 233.585 79 242.621 79C251.658 79 264.435 100.382 264.435 116.777Z" fill="#313E6E"/>
<path d="M225.678 101.795C224.598 103.29 223.178 101.098 220.729 99.3661C218.28 97.6338 215.212 97.723 216.292 96.2279C217.372 94.7328 220.749 94.216 223.198 95.9483C225.647 97.6806 226.758 100.3 225.678 101.795Z" fill="#270101"/>
<path d="M189.21 137.5C187.897 136.201 190.511 134.5 192.64 132.394C194.768 130.287 195.183 127.278 196.496 128.578C197.809 129.877 197.77 133.258 195.642 135.364C193.513 137.471 190.524 138.799 189.21 137.5Z" fill="#313E6E"/>
<path d="M335.33 157.251C337.105 165 328.006 168 318.97 168C309.933 168 302.609 164.699 302.609 157.251C302.609 149.799 309.933 143.76 318.97 143.76C328.006 143.76 333.21 148 335.33 157.251Z" fill="#2D355F"/>
<path d="M297.156 151.855C297.156 156.323 294.273 158 289.758 158C285.242 158 280.796 156.323 280.796 151.855C280.796 147.386 282.716 144 287.232 144C291.747 144 297.156 147.386 297.156 151.855Z" fill="#454F72"/>
<path d="M308.063 178.838C308.063 183.306 300.336 191 295.821 191C291.306 191 291.702 183.306 291.702 178.838C291.702 174.369 295.367 170.743 299.883 170.743C304.398 170.743 308.063 174.369 308.063 178.838Z" fill="#313E6E"/>
</g>
<line x1="208" y1="248.5" x2="391" y2="248.5" stroke="#454464" stroke-width="5"/>
<path d="M95.9634 135V173.049H172.061" stroke="#454464" stroke-width="6" stroke-miterlimit="10" stroke-linecap="round" stroke-linejoin="round"/>
<path d="M19.8661 173.049H95.9634V135" stroke="#454464" stroke-width="6" stroke-miterlimit="10" stroke-linecap="round" stroke-linejoin="round"/>
<path d="M95.9634 135V173.049H172.061" stroke="#454464" stroke-width="6" stroke-miterlimit="10" stroke-linecap="round" stroke-linejoin="round"/>
<path d="M19.8661 173.049H95.9634V135" stroke="#454464" stroke-width="6" stroke-miterlimit="10" stroke-linecap="round" stroke-linejoin="round"/>
<path d="M57.9148 211.096H134.012V173.047H57.9148V211.096Z" stroke="#454464" stroke-width="6" stroke-miterlimit="10" stroke-linecap="round" stroke-linejoin="round"/>
<path d="M74.3416 249.146H95.9634V211.097H19.8661" stroke="#454464" stroke-width="6" stroke-miterlimit="10" stroke-linecap="round" stroke-linejoin="round"/>
<path d="M172.061 211.097H95.9634V249.146H157.668" stroke="#454464" stroke-width="6" stroke-miterlimit="10" stroke-linecap="round" stroke-linejoin="round"/>
<path d="M198 173.049H134.012V211.097H172.061" stroke="#454464" stroke-width="6" stroke-miterlimit="10" stroke-linecap="round" stroke-linejoin="round"/>
<path d="M3 211.097H57.9147V173.049H31.5362" stroke="#454464" stroke-width="6" stroke-miterlimit="10" stroke-linecap="round" stroke-linejoin="round"/>
<path d="M395.963 3V41.0486H472.061" stroke="#454464" stroke-width="6" stroke-miterlimit="10" stroke-linecap="round" stroke-linejoin="round"/>
<path d="M319.866 41.0486H395.963V3" stroke="#454464" stroke-width="6" stroke-miterlimit="10" stroke-linecap="round" stroke-linejoin="round"/>
<path d="M395.963 3V41.0486H472.061" stroke="#454464" stroke-width="6" stroke-miterlimit="10" stroke-linecap="round" stroke-linejoin="round"/>
<path d="M319.866 41.0486H395.963V3" stroke="#454464" stroke-width="6" stroke-miterlimit="10" stroke-linecap="round" stroke-linejoin="round"/>
<path d="M357.915 79.096L434.012 79.096V41.0474L357.915 41.0474V79.096Z" stroke="#454464" stroke-width="6" stroke-miterlimit="10" stroke-linecap="round" stroke-linejoin="round"/>
<path d="M374.342 117.146H395.963V79.0973H319.866" stroke="#454464" stroke-width="6" stroke-miterlimit="10" stroke-linecap="round" stroke-linejoin="round"/>
<path d="M472.061 79.0973H395.963V117.146H457.668" stroke="#454464" stroke-width="6" stroke-miterlimit="10" stroke-linecap="round" stroke-linejoin="round"/>
<path d="M498 41.0487H434.012V79.0974H472.061" stroke="#454464" stroke-width="6" stroke-miterlimit="10" stroke-linecap="round" stroke-linejoin="round"/>
<path d="M303 79.0974H357.915V41.0487H331.536" stroke="#454464" stroke-width="6" stroke-miterlimit="10" stroke-linecap="round" stroke-linejoin="round"/>
</svg>
