<svg width="364" height="191" viewBox="0 0 364 191" fill="none" xmlns="http://www.w3.org/2000/svg">
<path d="M208.804 81.764C208.804 81.764 241.184 81.764 230.391 49.3842C224.994 33.1943 235.787 43.9875 241.184 54.7808C246.581 65.5741 251.977 97.9539 214.201 92.5573C176.424 87.1606 208.804 81.764 208.804 81.764Z" fill="#313E6E"/>
<path d="M230.164 103.086C230.31 101.397 230.391 99.8643 230.391 98.5476C230.391 94.9966 230.051 93.1509 229.468 92.4871C224.633 76.5886 199.668 76.8585 170.898 76.9502C154.778 76.8261 144.045 54.824 144.045 49.9778C144.045 22.9946 117.882 16.6158 103.57 33.7879C90.0782 49.9778 63.095 33.5882 63.095 49.9778C63.095 76.961 81.2169 93.1509 103.57 93.1509C107.067 93.1509 112.938 92.3468 119.814 91.0948C124.892 99.9831 127.315 112.039 127.855 114.737C127.984 115.38 128.124 116.006 128.259 116.642C130.607 141.575 142.728 190.29 149.441 190.29C155.216 190.29 158.513 176.885 159.706 161.149C164.487 162.552 170.013 163.307 176.424 163.307C182.425 163.307 187.957 161.974 193.035 159.751C194.142 176.086 197.46 190.29 203.408 190.29C210.38 190.29 227.93 128.229 230.153 103.167C230.159 103.135 230.159 103.113 230.164 103.086Z" fill="#69688F"/>
<path d="M73.8882 52.6815C73.8882 57.1553 67.5688 60.7765 63.095 60.7765C58.6211 60.7765 55 54.457 55 49.9832C55 45.5094 58.6211 44.5866 63.095 44.5866C73.8882 44.5866 73.8882 48.2077 73.8882 52.6815Z" fill="#313E6E"/>
<path d="M149.441 60.7765C149.441 77.1715 142.188 79.6647 133.251 79.6647C124.309 79.6647 117.061 77.1715 117.061 60.7765C117.061 44.3815 118.912 23 127.855 23C136.797 23 149.441 44.3815 149.441 60.7765Z" fill="#313E6E"/>
<path d="M111.087 45.7949C110.019 47.29 108.614 45.0984 106.19 43.3661C103.767 41.6338 100.731 41.7229 101.8 40.2279C102.868 38.7328 106.21 38.2159 108.633 39.9482C111.057 41.6805 112.156 44.2998 111.087 45.7949Z" fill="#270101"/>
<path d="M75 81.5C73.7005 80.2005 76.2871 78.5 78.3935 76.3935C80.4999 74.2871 80.91 71.2781 82.2095 72.5776C83.509 73.877 83.4707 77.2578 81.3642 79.3643C79.2578 81.4707 76.2995 82.7995 75 81.5Z" fill="#313E6E"/>
<path d="M219.597 101.251C221.354 109 212.35 112 203.408 112C194.465 112 187.218 108.699 187.218 101.251C187.218 93.7985 194.465 87.7597 203.408 87.7597C212.35 87.7597 217.5 92 219.597 101.251Z" fill="#2D355F"/>
<path d="M181.821 95.8546C181.821 100.323 178.968 102 174.5 102C170.032 102 165.631 100.323 165.631 95.8546C165.631 91.3862 167.532 88 172 88C176.468 88 181.821 91.3862 181.821 95.8546Z" fill="#454F72"/>
<path d="M192.614 122.838C192.614 127.306 184.968 135 180.5 135C176.032 135 176.424 127.306 176.424 122.838C176.424 118.369 180.051 114.743 184.519 114.743C188.988 114.743 192.614 118.369 192.614 122.838Z" fill="#313E6E"/>
<g opacity="0.4">
<path d="M63.1983 96.7355V119.183H18.3033" stroke="#E5E5E5" stroke-width="6" stroke-miterlimit="10" stroke-linecap="round" stroke-linejoin="round"/>
<path d="M108.093 119.183H63.1984V96.7355" stroke="#E5E5E5" stroke-width="6" stroke-miterlimit="10" stroke-linecap="round" stroke-linejoin="round"/>
<path d="M85.6458 119.183H40.7509V141.631H85.6458V119.183Z" stroke="#E5E5E5" stroke-width="6" stroke-miterlimit="10" stroke-linecap="round" stroke-linejoin="round"/>
<path d="M75.9545 164.078H63.1984V141.63H108.093" stroke="#E5E5E5" stroke-width="6" stroke-miterlimit="10" stroke-linecap="round" stroke-linejoin="round"/>
<path d="M18.3033 141.63H63.1983V164.078H26.7936" stroke="#E5E5E5" stroke-width="6" stroke-miterlimit="10" stroke-linecap="round" stroke-linejoin="round"/>
<path d="M3 119.183H40.7509V141.631H18.3034" stroke="#E5E5E5" stroke-width="6" stroke-miterlimit="10" stroke-linecap="round" stroke-linejoin="round"/>
<path d="M118.043 141.631H85.6459V119.183H101.208" stroke="#E5E5E5" stroke-width="6" stroke-miterlimit="10" stroke-linecap="round" stroke-linejoin="round"/>
<path d="M299.845 3V25.4475H344.74" stroke="#E5E5E5" stroke-width="6" stroke-miterlimit="10" stroke-linecap="round" stroke-linejoin="round"/>
<path d="M254.95 25.4475H299.845V3" stroke="#E5E5E5" stroke-width="6" stroke-miterlimit="10" stroke-linecap="round" stroke-linejoin="round"/>
<path d="M277.398 47.8942L322.293 47.8942V25.4467L277.398 25.4467V47.8942Z" stroke="#E5E5E5" stroke-width="6" stroke-miterlimit="10" stroke-linecap="round" stroke-linejoin="round"/>
<path d="M287.089 70.3424H299.845V47.895H254.95" stroke="#E5E5E5" stroke-width="6" stroke-miterlimit="10" stroke-linecap="round" stroke-linejoin="round"/>
<path d="M344.74 47.895H299.845V70.3424H336.249" stroke="#E5E5E5" stroke-width="6" stroke-miterlimit="10" stroke-linecap="round" stroke-linejoin="round"/>
<path d="M360.044 25.4475H322.293V47.895H344.74" stroke="#E5E5E5" stroke-width="6" stroke-miterlimit="10" stroke-linecap="round" stroke-linejoin="round"/>
<path d="M245 47.895H277.398V25.4475H261.835" stroke="#E5E5E5" stroke-width="6" stroke-miterlimit="10" stroke-linecap="round" stroke-linejoin="round"/>
</g>
</svg>
