<svg width="125" height="99" viewBox="0 0 125 99" fill="none" xmlns="http://www.w3.org/2000/svg">
<path d="M124.246 55.6182C122.461 117.882 112.686 87.6537 58.1662 96.1881C-6.09167 106.247 0.0180414 73.4758 2.20801 40.267C5.50244 -9.68986 3.10254 0.590947 60.7188 3.78424C123.622 7.27056 125.897 -1.96466 124.246 55.6182Z" fill="#058596"/>
<path d="M114.953 17.0643C104.618 31.7974 90.2683 46.4071 78.4361 57.3772C72.532 62.8512 67.2791 67.3967 63.5042 70.572C61.6171 72.1594 60.1003 73.4035 59.0575 74.2491C59 74.2958 58.9439 74.3412 58.8893 74.3854C58.0211 73.7705 56.8036 72.8871 55.3174 71.7541C52.162 69.3484 47.803 65.823 43.0081 61.3579C33.3908 52.4021 22.1485 39.7843 15.268 24.9482C13.5134 21.1648 12.1775 18.0113 11.275 15.3804C10.3643 12.7254 9.94875 10.753 9.92232 9.29256C9.89693 7.8894 10.2287 7.1355 10.6664 6.64242C11.152 6.09523 12.0736 5.52515 13.8626 5.10516C17.5348 4.24306 23.501 4.29789 32.5271 4.85105C36.1003 5.07003 40.2089 5.3707 44.8014 5.70678C51.4202 6.19115 59.044 6.74906 67.5182 7.24195C80.7704 8.01275 90.8228 8.70958 98.359 9.45582C105.941 10.2066 110.81 10.9934 113.79 11.8965C115.284 12.349 116.113 12.7767 116.544 13.1074C116.745 13.261 116.819 13.3631 116.841 13.3972C116.854 13.4187 116.855 13.4235 116.855 13.429C116.855 13.4297 116.855 13.4304 116.856 13.4312C116.862 13.4811 116.874 13.7723 116.548 14.4731C116.229 15.1589 115.703 15.9963 114.953 17.0643Z" fill="#313153" stroke="#058596" stroke-width="5"/>
<path d="M73.7226 39.9454C75.9961 37.5001 79.3683 35.3563 95.8097 63.5011C104.308 78.0489 126.607 90.7097 115.006 94.7938C111.323 96.0907 115.466 97.8418 97.9789 76.5902C81.344 56.3743 71.0713 42.797 73.7226 39.9454Z" fill="#313153"/>
<path d="M50.9505 37.4507C53.6862 39.3545 36.9641 52.4559 29.7228 61.919C8.00001 90.3068 8.50001 89 7.00001 87C0.815385 78.7538 4.50002 81.5 23.4464 61.0534C39.3309 43.9111 47.7602 35.2306 50.9505 37.4507Z" fill="#313153"/>
</svg>
