<svg width="302" height="283" viewBox="0 0 302 283" fill="none" xmlns="http://www.w3.org/2000/svg">
<path d="M219.959 63.8364C240.155 82.0998 250.81 110.209 257.011 140.066C263.372 169.923 265.122 201.368 253.354 227.889C241.586 254.411 216.142 276.168 188.631 281.568C161.12 286.967 131.541 276.168 103.235 264.734C74.7694 253.14 47.5763 241.071 28.1753 218.996C8.7743 196.762 -2.99351 164.682 0.664048 133.555C4.16259 102.428 23.0865 72.4122 48.8485 55.2605C74.7694 37.95 107.528 33.5033 138.856 35.409C170.025 37.3148 199.763 45.573 219.959 63.8364Z" fill="#058596" fill-opacity="0.4"/>
<path d="M292.372 6.74399C296.997 11.0153 299.437 17.5893 300.858 24.5719C302.314 31.5545 302.715 38.9086 300.02 45.1112C297.325 51.3138 291.498 56.4022 285.198 57.665C278.898 58.9278 272.124 56.4022 265.642 53.728C259.123 51.0167 252.895 48.1939 248.452 43.0313C244.009 37.8314 241.314 30.3289 242.152 23.0491C242.953 15.7694 247.287 8.74963 253.187 4.73835C259.123 0.689922 266.625 -0.35004 273.799 0.0956579C280.937 0.541356 287.747 2.47272 292.372 6.74399Z" fill="#058496" fill-opacity="0.4"/>
<g filter="url(#filter0_d_0_1)">
<path d="M124.741 65.6196C120.89 61.1737 127.085 61 126.137 54.5C129.039 50.7869 129.039 42.1194 128.816 38.7483C128.369 32.69 124.071 27.1203 118.21 23.798C110.508 19.4009 100.237 18.7658 91.9202 22.1858C83.6034 25.6057 77.5751 32.9343 76.5145 40.898C75.7331 46.6143 77.2401 52.868 73.8911 57.8514C71.4351 61.418 66.9138 63.5188 62.4484 64.9357C57.9272 66.3037 53.1826 67.2319 49.0521 69.3328C44.9216 71.4337 41.4051 75.0491 41.4609 79.2508C41.5167 82.4265 43.582 85.3579 43.8052 88.4848C44.1402 93.0773 40.4562 97.1324 36.5489 100.162C32.5859 103.191 28.0646 105.829 25.3854 109.786C20.9757 116.333 23.041 125.176 28.6228 131.039C34.2046 136.902 45.1273 147.595 53.5 149.5C76.3853 154.777 91.3891 153.342 115 153C122.312 152.902 127.911 148.612 135 147C142.089 145.388 128.542 147.944 131.5 142.081C134.514 136.218 139 158.5 139 129.5C133 123 139 123.5 135 111.5C132.833 105 130.993 97.0836 127.085 93.9567C123.178 90.8299 120.89 85.5045 123.513 81.4493C124.518 79.8859 126.192 78.6645 127.141 77.1011C129.039 74.0719 128.258 70.2122 126.137 67.2808C125.746 66.7922 125.299 66.2548 124.741 65.6196Z" fill="#340404"/>
</g>
<g filter="url(#filter1_d_0_1)">
<path d="M241.478 176.69C241.478 182.073 223 186.5 222 186.5C214.5 184.5 214.5 184.5 213 180.5C218.138 169.5 214.479 172.194 221.982 173.169C230.267 173.169 241.478 171.307 241.478 176.69Z" fill="#E9C46A"/>
</g>
<g filter="url(#filter2_d_0_1)">
<path d="M162.079 271.129C157.62 274.145 143.602 261.318 143.042 260.489C140.497 253.156 140.497 253.156 142.97 249.673C154.961 247.767 150.679 246.245 154.075 253.007C158.715 259.87 166.538 268.114 162.079 271.129Z" fill="#E9C46A"/>
</g>
<g filter="url(#filter3_d_0_1)">
<path d="M103.595 146.49L146 142L149.952 142.765L218.5 172.316L214.5 183.737L147.711 164.934C147.711 164.934 135.432 172.625 127.125 172.316C118.819 172.006 76.6145 176.324 76.6145 176.324L103.595 146.49Z" fill="#2176C2"/>
</g>
<g filter="url(#filter4_d_0_1)">
<path d="M64.8396 143.388C56.808 164.511 60.5066 178.053 83.6176 188.433C106.246 196.128 121.515 200.934 121.515 200.934L141.5 256L153 250L142.804 190.696L142.143 188.086L139.93 185.772L92.9976 157.96L64.8396 143.388Z" fill="#2176C2"/>
</g>
<path d="M95.9157 85C102.442 91.4793 118.104 109.422 123.978 129.358C129.851 149.294 142 170 142 170H132.417H125.333L111 129.358L92 86.4952L95.9157 85Z" fill="#21C292"/>
<path d="M97.7189 77.0233C95.1945 86.8055 95.9833 97.0611 95.9833 98.6389C93.6167 101.794 82.5722 101.006 80.9944 89.9611C83.3611 75.7611 88.0944 59.9833 88.0944 59.9833L92.0389 68.6611L97.7189 77.0233Z" fill="#E9C46A"/>
<path d="M100.557 76.4674C100.223 78.4225 95.9402 80.0885 92.5 79.5C89.0598 78.9115 86.1655 68.9552 86.5 67C86.8345 65.0448 88.4209 70.0201 94.934 71.8616C98.3742 72.4501 100.892 74.5122 100.557 76.4674Z" fill="#C29D44"/>
<path d="M120.676 46.0989C121.859 65.4267 113.418 78.68 101.348 79.3111C89.2778 79.9422 81.3889 62.4289 85.0178 46.0989C93.4589 31.5833 104.977 30.4 104.977 30.4H112.234L120.676 46.0989Z" fill="#E9C46A"/>
<path d="M110.42 38.5C108.211 45.2844 105.529 47.2033 99.2177 50.5167C92.9066 53.83 85.3333 54.6189 78.47 52.5678L95.6677 28.0334H110.42L124.541 39.2356L120.5 54C114.978 49.8189 110.42 38.5 110.42 38.5Z" fill="#340404"/>
<path d="M101.39 114.216L110.451 128.725L105.386 128.725L101.39 114.216Z" fill="#340404"/>
<path d="M83 79.3906C74.7983 82.023 57.8123 95.9318 56.5 98.5C58.4684 105.563 65.7674 172.891 65.7674 172.891H80.7674H92.3247H97.3247H99.5759C99.5759 172.891 93.7193 132.852 97 129C100.281 125.148 102.5 117.5 102 115C101.7 113.5 96.0213 85.4721 96.0213 85.4721L83 79.3906Z" fill="#21C292"/>
<path d="M77.5 82.5C69.7293 86.3793 30.589 111 40 128C50.3082 146.621 72.9057 165 72.9057 165V154.759C72.9057 154.759 47.4141 131.345 49 121C50.5859 110.655 67.7516 98.6896 67.7516 98.6896L77.5 82.5Z" fill="#21C292"/>
<g filter="url(#filter5_d_0_1)">
<path d="M138.647 179.567H59.6543C57.1858 179.567 55.1465 177.527 55.1465 175.059L53 124.508C53 122.039 55.0392 120 57.5077 120H139.72C142.189 120 144.228 122.039 144.228 124.508L143.155 175.059C143.155 177.527 141.116 179.567 138.647 179.567Z" fill="#C9C7C7"/>
<path d="M98.8824 158.513C103.328 158.513 106.932 154.909 106.932 150.464C106.932 146.018 103.328 142.414 98.8824 142.414C94.4368 142.414 90.8329 146.018 90.8329 150.464C90.8329 154.909 94.4368 158.513 98.8824 158.513Z" fill="#F3F3F3"/>
</g>
<path d="M102.5 72.5C99.5 72.3063 97.3755 65.0894 97.5 63.1605C97.6246 61.2315 105 66.1605 106 66.6605C107.5 67.1605 110.794 67.4236 110.67 69.3526C110.545 71.2816 104.153 72.6068 102.5 72.5Z" fill="#AE9712"/>
<path d="M105.5 71.5C105 72.5 102.913 72.5589 101.5 72C100.731 71.2212 99.79 70.5003 99.2515 68.6885C99.7274 67.8643 101.374 67.8848 102.766 68.6885C104.158 69.4921 105.551 71.0734 105.5 71.5Z" fill="#E75151"/>
<path d="M103.828 55.8831C105.063 56.3056 105.552 57.3076 105.975 56.0731C106.398 54.8385 105.739 53.4952 104.505 53.0727C103.27 52.6502 101.927 53.3085 101.504 54.543C101.082 55.7776 102.594 55.4606 103.828 55.8831Z" fill="#340404"/>
<path d="M114.534 59.664C115.518 60.4045 115.664 61.4467 116.404 60.4629C117.145 59.4791 116.947 58.0812 115.964 57.3408C114.98 56.6003 113.582 56.7976 112.841 57.7814C112.101 58.7652 113.55 58.9235 114.534 59.664Z" fill="#340404"/>
<path d="M75 180H128L131.5 181L72.5 181.5L75 180Z" fill="#084073"/>
<defs>
<filter id="filter0_d_0_1" x="19" y="20" width="124" height="141.436" filterUnits="userSpaceOnUse" color-interpolation-filters="sRGB">
<feFlood flood-opacity="0" result="BackgroundImageFix"/>
<feColorMatrix in="SourceAlpha" type="matrix" values="0 0 0 0 0 0 0 0 0 0 0 0 0 0 0 0 0 0 127 0" result="hardAlpha"/>
<feOffset dy="4"/>
<feGaussianBlur stdDeviation="2"/>
<feComposite in2="hardAlpha" operator="out"/>
<feColorMatrix type="matrix" values="0 0 0 0 0 0 0 0 0 0 0 0 0 0 0 0 0 0 0.25 0"/>
<feBlend mode="normal" in2="BackgroundImageFix" result="effect1_dropShadow_0_1"/>
<feBlend mode="normal" in="SourceGraphic" in2="effect1_dropShadow_0_1" result="shape"/>
</filter>
<filter id="filter1_d_0_1" x="209" y="172.158" width="36.4779" height="22.3419" filterUnits="userSpaceOnUse" color-interpolation-filters="sRGB">
<feFlood flood-opacity="0" result="BackgroundImageFix"/>
<feColorMatrix in="SourceAlpha" type="matrix" values="0 0 0 0 0 0 0 0 0 0 0 0 0 0 0 0 0 0 127 0" result="hardAlpha"/>
<feOffset dy="4"/>
<feGaussianBlur stdDeviation="2"/>
<feComposite in2="hardAlpha" operator="out"/>
<feColorMatrix type="matrix" values="0 0 0 0 0 0 0 0 0 0 0 0 0 0 0 0 0 0 0.25 0"/>
<feBlend mode="normal" in2="BackgroundImageFix" result="effect1_dropShadow_0_1"/>
<feBlend mode="normal" in="SourceGraphic" in2="effect1_dropShadow_0_1" result="shape"/>
</filter>
<filter id="filter2_d_0_1" x="137.124" y="248.053" width="30.2823" height="31.5341" filterUnits="userSpaceOnUse" color-interpolation-filters="sRGB">
<feFlood flood-opacity="0" result="BackgroundImageFix"/>
<feColorMatrix in="SourceAlpha" type="matrix" values="0 0 0 0 0 0 0 0 0 0 0 0 0 0 0 0 0 0 127 0" result="hardAlpha"/>
<feOffset dy="4"/>
<feGaussianBlur stdDeviation="2"/>
<feComposite in2="hardAlpha" operator="out"/>
<feColorMatrix type="matrix" values="0 0 0 0 0 0 0 0 0 0 0 0 0 0 0 0 0 0 0.25 0"/>
<feBlend mode="normal" in2="BackgroundImageFix" result="effect1_dropShadow_0_1"/>
<feBlend mode="normal" in="SourceGraphic" in2="effect1_dropShadow_0_1" result="shape"/>
</filter>
<filter id="filter3_d_0_1" x="72.6145" y="142" width="149.886" height="49.7373" filterUnits="userSpaceOnUse" color-interpolation-filters="sRGB">
<feFlood flood-opacity="0" result="BackgroundImageFix"/>
<feColorMatrix in="SourceAlpha" type="matrix" values="0 0 0 0 0 0 0 0 0 0 0 0 0 0 0 0 0 0 127 0" result="hardAlpha"/>
<feOffset dy="4"/>
<feGaussianBlur stdDeviation="2"/>
<feComposite in2="hardAlpha" operator="out"/>
<feColorMatrix type="matrix" values="0 0 0 0 0 0 0 0 0 0 0 0 0 0 0 0 0 0 0.25 0"/>
<feBlend mode="normal" in2="BackgroundImageFix" result="effect1_dropShadow_0_1"/>
<feBlend mode="normal" in="SourceGraphic" in2="effect1_dropShadow_0_1" result="shape"/>
</filter>
<filter id="filter4_d_0_1" x="56.9809" y="143.388" width="100.019" height="120.612" filterUnits="userSpaceOnUse" color-interpolation-filters="sRGB">
<feFlood flood-opacity="0" result="BackgroundImageFix"/>
<feColorMatrix in="SourceAlpha" type="matrix" values="0 0 0 0 0 0 0 0 0 0 0 0 0 0 0 0 0 0 127 0" result="hardAlpha"/>
<feOffset dy="4"/>
<feGaussianBlur stdDeviation="2"/>
<feComposite in2="hardAlpha" operator="out"/>
<feColorMatrix type="matrix" values="0 0 0 0 0 0 0 0 0 0 0 0 0 0 0 0 0 0 0.25 0"/>
<feBlend mode="normal" in2="BackgroundImageFix" result="effect1_dropShadow_0_1"/>
<feBlend mode="normal" in="SourceGraphic" in2="effect1_dropShadow_0_1" result="shape"/>
</filter>
<filter id="filter5_d_0_1" x="49" y="120" width="99.2282" height="67.5667" filterUnits="userSpaceOnUse" color-interpolation-filters="sRGB">
<feFlood flood-opacity="0" result="BackgroundImageFix"/>
<feColorMatrix in="SourceAlpha" type="matrix" values="0 0 0 0 0 0 0 0 0 0 0 0 0 0 0 0 0 0 127 0" result="hardAlpha"/>
<feOffset dy="4"/>
<feGaussianBlur stdDeviation="2"/>
<feComposite in2="hardAlpha" operator="out"/>
<feColorMatrix type="matrix" values="0 0 0 0 0 0 0 0 0 0 0 0 0 0 0 0 0 0 0.25 0"/>
<feBlend mode="normal" in2="BackgroundImageFix" result="effect1_dropShadow_0_1"/>
<feBlend mode="normal" in="SourceGraphic" in2="effect1_dropShadow_0_1" result="shape"/>
</filter>
</defs>
</svg>
