<svg width="227" height="260" viewBox="0 0 227 260" fill="none" xmlns="http://www.w3.org/2000/svg">
<g filter="url(#filter0_d_0_1)">
<path d="M105.741 45.6196C101.89 41.1737 108.085 41 107.137 34.5C110.039 30.7869 110.039 22.1194 109.816 18.7483C109.369 12.69 105.071 7.12031 99.2105 3.79803C91.5076 -0.599107 81.2371 -1.23424 72.9202 2.18575C64.6034 5.60574 58.5751 12.9343 57.5145 20.898C56.7331 26.6143 58.2401 32.868 54.8911 37.8514C52.4351 41.418 47.9138 43.5188 43.4484 44.9357C38.9272 46.3037 34.1826 47.2319 30.0521 49.3328C25.9216 51.4337 22.4051 55.0491 22.4609 59.2508C22.5167 62.4265 24.582 65.3579 24.8052 68.4848C25.1402 73.0773 21.4562 77.1324 17.5489 80.1616C13.5859 83.1907 9.06462 85.829 6.38536 89.7864C1.97575 96.3333 4.04102 105.176 9.6228 111.039C15.2046 116.902 26.1273 127.595 34.5 129.5C57.3853 134.777 72.3891 133.342 96 133C103.312 132.902 108.911 128.612 116 127C123.089 125.388 109.542 127.944 112.5 122.081C115.514 116.218 120 138.5 120 109.5C114 103 120 103.5 116 91.5C113.833 85 111.993 77.0836 108.085 73.9567C104.178 70.8299 101.89 65.5045 104.513 61.4493C105.518 59.8859 107.192 58.6645 108.141 57.1011C110.039 54.0719 109.258 50.2122 107.137 47.2808C106.746 46.7922 106.299 46.2548 105.741 45.6196Z" fill="#340404"/>
</g>
<g filter="url(#filter1_d_0_1)">
<path d="M222.478 156.69C222.478 162.073 204 166.5 203 166.5C195.5 164.5 195.5 164.5 194 160.5C199.138 149.5 195.479 152.194 202.982 153.169C211.267 153.169 222.478 151.307 222.478 156.69Z" fill="#E9C46A"/>
</g>
<g filter="url(#filter2_d_0_1)">
<path d="M143.079 251.129C138.62 254.145 124.602 241.318 124.042 240.489C121.497 233.156 121.497 233.156 123.97 229.673C135.961 227.767 131.679 226.245 135.075 233.007C139.715 239.87 147.538 248.114 143.079 251.129Z" fill="#E9C46A"/>
</g>
<g filter="url(#filter3_d_0_1)">
<path d="M84.5951 126.49L127 122L130.952 122.765L199.5 152.316L195.5 163.737L128.711 144.934C128.711 144.934 116.432 152.625 108.125 152.316C99.8192 152.006 57.6145 156.324 57.6145 156.324L84.5951 126.49Z" fill="#2176C2"/>
</g>
<g filter="url(#filter4_d_0_1)">
<path d="M45.8396 123.388C37.808 144.511 41.5066 158.053 64.6176 168.433C87.2457 176.128 102.515 180.934 102.515 180.934L122.5 236L134 230L123.804 170.696L123.143 168.086L120.93 165.772L73.9976 137.96L45.8396 123.388Z" fill="#2176C2"/>
</g>
<path d="M76.9157 65C83.4418 71.4793 99.1044 89.4219 104.978 109.358C110.851 129.294 123 150 123 150H113.417H106.333L92 109.358L73 66.4952L76.9157 65Z" fill="#21C292"/>
<path d="M78.7189 57.0233C76.1945 66.8055 76.9833 77.0611 76.9833 78.6389C74.6167 81.7944 63.5722 81.0055 61.9944 69.9611C64.3611 55.7611 69.0944 39.9833 69.0944 39.9833L73.0389 48.6611L78.7189 57.0233Z" fill="#E9C46A"/>
<path d="M81.5574 56.4674C81.2229 58.4225 76.9402 60.0885 73.5 59.5C70.0598 58.9115 67.1655 48.9552 67.5 47C67.8345 45.0448 69.4209 50.0201 75.934 51.8616C79.3742 52.4501 81.8919 54.5122 81.5574 56.4674Z" fill="#C29D44"/>
<path d="M101.676 26.0989C102.859 45.4267 94.4178 58.68 82.3478 59.3111C70.2778 59.9422 62.3889 42.4289 66.0178 26.0989C74.4589 11.5833 85.9767 10.4 85.9767 10.4H93.2344L101.676 26.0989Z" fill="#E9C46A"/>
<path d="M91.42 18.5C89.2111 25.2844 86.5289 27.2033 80.2177 30.5167C73.9066 33.83 66.3333 34.6189 59.47 32.5678L76.6677 8.03336H91.42L105.541 19.2356L101.5 34C95.9778 29.8189 91.42 18.5 91.42 18.5Z" fill="#340404"/>
<path d="M82.39 94.2158L91.4509 108.725L86.3858 108.725L82.39 94.2158Z" fill="#340404"/>
<path d="M64 59.3906C55.7983 62.023 38.8123 75.9318 37.5 78.5C39.4684 85.5625 46.7674 152.891 46.7674 152.891H61.7674H73.3247H78.3247H80.5759C80.5759 152.891 74.7193 112.852 78 109C81.2807 105.148 83.5 97.5 83 95C82.7 93.5 77.0213 65.4721 77.0213 65.4721L64 59.3906Z" fill="#21C292"/>
<path d="M58.5 62.5C50.7293 66.3793 11.589 91 21 108C31.3082 126.621 53.9057 145 53.9057 145V134.759C53.9057 134.759 28.4141 111.345 30 101C31.5859 90.6552 48.7516 78.6896 48.7516 78.6896L58.5 62.5Z" fill="#21C292"/>
<g filter="url(#filter5_d_0_1)">
<path d="M119.647 159.567H40.6543C38.1858 159.567 36.1465 157.527 36.1465 155.059L34 104.508C34 102.039 36.0392 100 38.5077 100H120.72C123.189 100 125.228 102.039 125.228 104.508L124.155 155.059C124.155 157.527 122.116 159.567 119.647 159.567Z" fill="#C9C7C7"/>
<path d="M79.8824 138.513C84.3281 138.513 87.932 134.909 87.932 130.464C87.932 126.018 84.3281 122.414 79.8824 122.414C75.4368 122.414 71.8329 126.018 71.8329 130.464C71.8329 134.909 75.4368 138.513 79.8824 138.513Z" fill="#F3F3F3"/>
</g>
<path d="M83.5 52.5C80.5 52.3063 78.3755 45.0894 78.5 43.1605C78.6246 41.2315 86 46.1605 87 46.6605C88.5 47.1605 91.7942 47.4236 91.6696 49.3526C91.5451 51.2816 85.1534 52.6068 83.5 52.5Z" fill="#AE9712"/>
<path d="M86.5 51.5C86 52.5 83.9131 52.5589 82.5 52C81.7314 51.2212 80.79 50.5003 80.2515 48.6885C80.7274 47.8643 82.3741 47.8848 83.7661 48.6885C85.158 49.4921 86.5512 51.0734 86.5 51.5Z" fill="#E75151"/>
<path d="M84.8282 35.8831C86.0627 36.3056 86.5525 37.3076 86.975 36.0731C87.3975 34.8385 86.7392 33.4952 85.5047 33.0727C84.2702 32.6502 82.9269 33.3085 82.5044 34.543C82.0819 35.7776 83.5936 35.4606 84.8282 35.8831Z" fill="#340404"/>
<path d="M95.5339 39.664C96.5177 40.4045 96.6638 41.4467 97.4042 40.4629C98.1447 39.4791 97.9474 38.0812 96.9636 37.3408C95.9798 36.6003 94.5819 36.7976 93.8415 37.7814C93.101 38.7652 94.55 38.9235 95.5339 39.664Z" fill="#340404"/>
<path d="M56 160H109L112.5 161L53.5 161.5L56 160Z" fill="#084073"/>
<defs>
<filter id="filter0_d_0_1" x="0" y="0" width="124" height="141.436" filterUnits="userSpaceOnUse" color-interpolation-filters="sRGB">
<feFlood flood-opacity="0" result="BackgroundImageFix"/>
<feColorMatrix in="SourceAlpha" type="matrix" values="0 0 0 0 0 0 0 0 0 0 0 0 0 0 0 0 0 0 127 0" result="hardAlpha"/>
<feOffset dy="4"/>
<feGaussianBlur stdDeviation="2"/>
<feComposite in2="hardAlpha" operator="out"/>
<feColorMatrix type="matrix" values="0 0 0 0 0 0 0 0 0 0 0 0 0 0 0 0 0 0 0.25 0"/>
<feBlend mode="normal" in2="BackgroundImageFix" result="effect1_dropShadow_0_1"/>
<feBlend mode="normal" in="SourceGraphic" in2="effect1_dropShadow_0_1" result="shape"/>
</filter>
<filter id="filter1_d_0_1" x="190" y="152.158" width="36.4779" height="22.3419" filterUnits="userSpaceOnUse" color-interpolation-filters="sRGB">
<feFlood flood-opacity="0" result="BackgroundImageFix"/>
<feColorMatrix in="SourceAlpha" type="matrix" values="0 0 0 0 0 0 0 0 0 0 0 0 0 0 0 0 0 0 127 0" result="hardAlpha"/>
<feOffset dy="4"/>
<feGaussianBlur stdDeviation="2"/>
<feComposite in2="hardAlpha" operator="out"/>
<feColorMatrix type="matrix" values="0 0 0 0 0 0 0 0 0 0 0 0 0 0 0 0 0 0 0.25 0"/>
<feBlend mode="normal" in2="BackgroundImageFix" result="effect1_dropShadow_0_1"/>
<feBlend mode="normal" in="SourceGraphic" in2="effect1_dropShadow_0_1" result="shape"/>
</filter>
<filter id="filter2_d_0_1" x="118.124" y="228.053" width="30.2823" height="31.5341" filterUnits="userSpaceOnUse" color-interpolation-filters="sRGB">
<feFlood flood-opacity="0" result="BackgroundImageFix"/>
<feColorMatrix in="SourceAlpha" type="matrix" values="0 0 0 0 0 0 0 0 0 0 0 0 0 0 0 0 0 0 127 0" result="hardAlpha"/>
<feOffset dy="4"/>
<feGaussianBlur stdDeviation="2"/>
<feComposite in2="hardAlpha" operator="out"/>
<feColorMatrix type="matrix" values="0 0 0 0 0 0 0 0 0 0 0 0 0 0 0 0 0 0 0.25 0"/>
<feBlend mode="normal" in2="BackgroundImageFix" result="effect1_dropShadow_0_1"/>
<feBlend mode="normal" in="SourceGraphic" in2="effect1_dropShadow_0_1" result="shape"/>
</filter>
<filter id="filter3_d_0_1" x="53.6145" y="122" width="149.886" height="49.7373" filterUnits="userSpaceOnUse" color-interpolation-filters="sRGB">
<feFlood flood-opacity="0" result="BackgroundImageFix"/>
<feColorMatrix in="SourceAlpha" type="matrix" values="0 0 0 0 0 0 0 0 0 0 0 0 0 0 0 0 0 0 127 0" result="hardAlpha"/>
<feOffset dy="4"/>
<feGaussianBlur stdDeviation="2"/>
<feComposite in2="hardAlpha" operator="out"/>
<feColorMatrix type="matrix" values="0 0 0 0 0 0 0 0 0 0 0 0 0 0 0 0 0 0 0.25 0"/>
<feBlend mode="normal" in2="BackgroundImageFix" result="effect1_dropShadow_0_1"/>
<feBlend mode="normal" in="SourceGraphic" in2="effect1_dropShadow_0_1" result="shape"/>
</filter>
<filter id="filter4_d_0_1" x="37.9809" y="123.388" width="100.019" height="120.612" filterUnits="userSpaceOnUse" color-interpolation-filters="sRGB">
<feFlood flood-opacity="0" result="BackgroundImageFix"/>
<feColorMatrix in="SourceAlpha" type="matrix" values="0 0 0 0 0 0 0 0 0 0 0 0 0 0 0 0 0 0 127 0" result="hardAlpha"/>
<feOffset dy="4"/>
<feGaussianBlur stdDeviation="2"/>
<feComposite in2="hardAlpha" operator="out"/>
<feColorMatrix type="matrix" values="0 0 0 0 0 0 0 0 0 0 0 0 0 0 0 0 0 0 0.25 0"/>
<feBlend mode="normal" in2="BackgroundImageFix" result="effect1_dropShadow_0_1"/>
<feBlend mode="normal" in="SourceGraphic" in2="effect1_dropShadow_0_1" result="shape"/>
</filter>
<filter id="filter5_d_0_1" x="30" y="100" width="99.2282" height="67.5667" filterUnits="userSpaceOnUse" color-interpolation-filters="sRGB">
<feFlood flood-opacity="0" result="BackgroundImageFix"/>
<feColorMatrix in="SourceAlpha" type="matrix" values="0 0 0 0 0 0 0 0 0 0 0 0 0 0 0 0 0 0 127 0" result="hardAlpha"/>
<feOffset dy="4"/>
<feGaussianBlur stdDeviation="2"/>
<feComposite in2="hardAlpha" operator="out"/>
<feColorMatrix type="matrix" values="0 0 0 0 0 0 0 0 0 0 0 0 0 0 0 0 0 0 0.25 0"/>
<feBlend mode="normal" in2="BackgroundImageFix" result="effect1_dropShadow_0_1"/>
<feBlend mode="normal" in="SourceGraphic" in2="effect1_dropShadow_0_1" result="shape"/>
</filter>
</defs>
</svg>
