<svg width="477" height="591" viewBox="0 0 477 591" fill="none" xmlns="http://www.w3.org/2000/svg">
<path d="M395.718 246.304C394.866 246.122 394 246 393.129 246H334.405L295.071 243L269.538 239.5L229.514 234L182.589 231H146.705L114.271 234L44.2739 243C26.1644 243 11.4504 253.81 11.4504 267.081L19.0412 334V414L8 510.464C8 523.429 18.5382 558.818 42.8318 569.767C43.9695 570.279 45.2145 570.5 46.4624 570.5H94.1465H143.945H219.163H324.869L439.494 577C457.603 577 468 552.271 468 539V502.5V454V398.5V359L459.553 269.665C459.393 267.97 458.828 266.321 457.747 265.006C442.792 246.829 409.316 249.202 395.718 246.304ZM126.469 526.231C125.249 526.078 124.01 526.152 122.816 526.449L102.402 531.52C101.126 531.837 99.8011 531.899 98.5016 531.704L87.8358 530.097C84.477 529.591 81.6046 527.415 80.2087 524.319L79.4485 522.632C78.9618 521.553 78.6707 520.395 78.5888 519.214L77.9825 510.464L79.0376 491.643L78.7252 473.552C78.7168 473.066 78.744 472.579 78.8064 472.096L81.031 454.904C81.1088 454.302 81.1317 453.695 81.0996 453.09L79.6877 426.5V405L81.6494 380.048C82.088 374.469 87.0192 370.336 92.5889 370.879L121.477 373.695L135.789 373.584C141.657 373.539 146.302 378.532 145.834 384.382L143.945 408V426.5L146.705 446L150.277 517.383C150.588 523.593 145.217 528.578 139.048 527.806L126.469 526.231ZM116.609 348.121C94.6925 348.121 76.9945 331.5 76.9945 319.417C76.9945 303.612 86.9359 300 114.271 294.5C141.607 289 161.197 309.195 161.197 325C161.197 340.88 138.526 348.121 116.609 348.121ZM404.269 515.992C405.564 522.596 400.097 528.569 393.404 527.861L376.774 526.102C376.133 526.034 375.486 526.029 374.844 526.085L348.418 528.416C342.954 528.898 338.122 524.889 337.587 519.431L334.543 488.403C334.452 487.472 334.491 486.533 334.661 485.614L338.388 465.399C338.498 464.801 338.556 464.201 338.547 463.592C338.271 445.109 329.488 418 295.071 418C259.982 418 269.258 442.964 269.532 463.598C269.54 464.2 269.484 464.798 269.376 465.391L260.72 512.796C259.852 517.548 255.712 521 250.882 521H229.514L207.486 524.073C200.706 525.019 195.002 519.028 196.28 512.303L205.186 465.425C205.302 464.81 205.361 464.185 205.361 463.559V434.96C205.361 434.321 205.3 433.684 205.179 433.058L195.983 385.597C194.788 379.426 199.515 373.695 205.801 373.695H219.163L248.276 370.93C254.146 370.372 259.222 374.989 259.222 380.885V391.046C259.222 391.385 259.497 391.66 259.836 391.66V391.66C260.032 391.66 260.213 391.57 260.33 391.412C269.462 379.029 287.399 362.818 323.868 365.851C324.525 365.906 325.195 366.036 325.827 366.226C374.118 380.789 402.695 402.762 398.582 442.5V486.029C398.582 486.675 398.645 487.319 398.769 487.953L404.269 515.992Z" fill="#058596"/>
<path d="M458.549 417.99C425.262 546.49 360.918 566.99 240.485 566.99C120.052 566.99 33.2905 566.49 33.2905 443.49C33.2905 361.199 10.1933 263.99 180.025 263.99C300.458 263.99 458.549 335.699 458.549 417.99Z" fill="#058596"/>
<path d="M213.5 376.889C213.5 410.663 208.019 428.257 197.5 437.98C186.821 447.852 168.952 451.564 138.342 451.564C107.74 451.564 87.3798 448.288 74.4494 438.19C62.0518 428.508 54.663 410.944 54.663 376.889C54.663 373.171 54.6193 369.589 54.577 366.121C54.4817 358.304 54.3934 351.063 54.8279 344.119C55.4461 334.239 57.0963 326.145 60.7448 319.633C67.5683 307.453 83.4847 297.5 125.882 297.5C168.055 297.5 189.044 307.378 199.957 320.716C211.135 334.378 213.5 353.624 213.5 376.889Z" fill="#25253F" stroke="#525172" stroke-width="15"/>
<line x1="132.024" y1="296.759" x2="133.987" y2="458.439" stroke="#525172" stroke-width="15"/>
<line x1="46.9314" y1="379.037" x2="214.931" y2="377.5" stroke="#525172" stroke-width="15"/>
<path d="M222.653 73.4524C229.989 67.9008 240.165 68.0692 247.313 73.8606L372.857 175.58L453.453 254.302C466.471 267.018 457.122 289.1 438.931 288.602L33.4065 277.502C15.7181 277.018 7.32589 255.492 20.0192 243.163L96.2857 169.088L222.653 73.4524Z" fill="#058596"/>
<path d="M7.99995 261.675L336 249.5L468.961 262.125" stroke="#25253F" stroke-width="15" stroke-linecap="round"/>
<rect x="332" y="77" width="79" height="154" rx="20" fill="#058596"/>
<ellipse cx="293" cy="14.5" rx="52" ry="14.5" fill="#656488" fill-opacity="0.7"/>
<ellipse cx="372" cy="56.5" rx="27" ry="7.5" fill="#525172"/>
<path d="M404.5 562.472C404.5 570.507 402.851 574.867 400.941 577.358C399.106 579.751 396.249 581.44 391.499 582.442C386.606 583.475 380.461 583.621 372.873 583.425C370.392 583.36 367.725 583.257 364.936 583.15C359.579 582.943 353.777 582.72 348 582.72C342.201 582.72 336.405 582.945 331.077 583.152C328.333 583.259 325.713 583.361 323.281 583.425C315.783 583.621 309.781 583.473 305.033 582.449C300.451 581.461 297.727 579.806 295.966 577.442C294.107 574.945 292.5 570.555 292.5 562.472C292.5 526.469 299.404 494.241 310.235 471.294C321.34 447.767 335.203 436.5 348 436.5C360.844 436.5 374.947 447.83 386.293 471.351C397.36 494.295 404.5 526.506 404.5 562.472Z" fill="#525172" stroke="#25253F" stroke-width="15"/>
<ellipse cx="322.5" cy="513" rx="9.5" ry="10" fill="#25253F"/>
</svg>
