<svg width="304" height="285" viewBox="0 0 304 285" fill="none" xmlns="http://www.w3.org/2000/svg">
<path d="M219.959 65.8364C240.155 84.0998 250.81 112.209 257.011 142.066C263.372 171.923 265.122 203.368 253.354 229.889C241.586 256.411 216.142 278.168 188.631 283.568C161.12 288.967 131.541 278.168 103.235 266.734C74.7694 255.14 47.5763 243.071 28.1753 220.996C8.7743 198.762 -2.99351 166.682 0.664048 135.555C4.16259 104.428 23.0865 74.4122 48.8485 57.2605C74.7694 39.95 107.528 35.5033 138.856 37.409C170.025 39.3148 199.763 47.573 219.959 65.8364Z" fill="#464664" fill-opacity="0.2"/>
<path d="M294.372 6.74399C298.997 11.0153 301.437 17.5893 302.858 24.5719C304.314 31.5545 304.715 38.9086 302.02 45.1112C299.325 51.3138 293.498 56.4022 287.198 57.665C280.898 58.9278 274.124 56.4022 267.642 53.728C261.123 51.0167 254.895 48.1939 250.452 43.0313C246.009 37.8314 243.314 30.3289 244.152 23.0491C244.953 15.7694 249.287 8.74963 255.187 4.73835C261.123 0.689922 268.625 -0.35004 275.799 0.0956579C282.937 0.541356 289.747 2.47272 294.372 6.74399Z" fill="#454464" fill-opacity="0.2"/>
<path d="M126.741 65.6196C122.89 61.1737 129.085 61 128.137 54.5C131.039 50.7869 131.039 42.1194 130.816 38.7483C130.369 32.69 126.071 27.1203 120.21 23.798C112.508 19.4009 102.237 18.7658 93.9202 22.1858C85.6034 25.6057 79.5751 32.9343 78.5145 40.898C77.7331 46.6143 79.2401 52.868 75.8911 57.8514C73.4351 61.418 68.9138 63.5188 64.4484 64.9357C59.9272 66.3037 55.1826 67.2319 51.0521 69.3328C46.9216 71.4337 43.4051 75.0491 43.4609 79.2508C43.5167 82.4265 45.582 85.3579 45.8052 88.4848C46.1402 93.0773 42.4562 97.1324 38.5489 100.162C34.5859 103.191 30.0646 105.829 27.3854 109.786C22.9757 116.333 25.041 125.176 30.6228 131.039C36.2046 136.902 47.1273 147.595 55.5 149.5C78.3853 154.777 93.3891 153.342 117 153C124.312 152.902 129.911 148.612 137 147C144.089 145.388 130.542 147.944 133.5 142.081C136.514 136.218 141 158.5 141 129.5C135 123 141 123.5 137 111.5C134.833 105 132.993 97.0836 129.085 93.9567C125.178 90.8299 122.89 85.5045 125.513 81.4493C126.518 79.8859 128.192 78.6645 129.141 77.1011C131.039 74.0719 130.258 70.2122 128.137 67.2808C127.746 66.7922 127.299 66.2548 126.741 65.6196Z" fill="#422626"/>
<path d="M243.478 176.69C243.478 182.073 225 186.5 224 186.5C216.5 184.5 216.5 184.5 215 180.5C220.138 169.5 216.479 172.194 223.982 173.169C232.267 173.169 243.478 171.307 243.478 176.69Z" fill="#C7AC6B"/>
<path d="M164.079 271.129C159.62 274.145 145.602 261.318 145.042 260.489C142.497 253.156 142.497 253.156 144.97 249.673C156.961 247.767 152.679 246.245 156.075 253.007C160.715 259.87 168.538 268.114 164.079 271.129Z" fill="#C7AC6B"/>
<path d="M105.595 146.49L148 142L151.952 142.765L220.5 172.316L216.5 183.737L149.711 164.934C149.711 164.934 137.432 172.625 129.125 172.316C120.819 172.006 78.6145 176.324 78.6145 176.324L105.595 146.49Z" fill="#39658C"/>
<path d="M66.8396 143.388C58.808 164.511 62.5066 178.053 85.6176 188.433C108.246 196.128 123.515 200.934 123.515 200.934L143.5 256L155 250L144.804 190.696L144.143 188.086L141.93 185.772L94.9976 157.96L66.8396 143.388Z" fill="#39658C"/>
<path d="M97.9157 85C104.442 91.4793 120.104 109.422 125.978 129.358C131.851 149.294 144 170 144 170H134.417H127.333L113 129.358L94 86.4952L97.9157 85Z" fill="#058596"/>
<path d="M99.7189 77.0233C97.1945 86.8055 97.9833 97.0611 97.9833 98.6389C95.6167 101.794 84.5722 101.006 82.9944 89.9611C85.3611 75.7611 90.0944 59.9833 90.0944 59.9833L94.0389 68.6611L99.7189 77.0233Z" fill="#C7AC6B"/>
<path d="M102.543 69.2476C103.52 74.7024 101.432 78.7566 97.8538 79.3453C94.2754 79.934 91.3571 75.2224 91.9111 70.4566C93.9586 66.0436 97.3544 65.3166 97.3544 65.3166L99.5184 65.0705L102.543 69.2476Z" fill="#825F0A"/>
<path d="M122.676 46.0989C123.859 65.4267 115.418 78.68 103.348 79.3111C91.2778 79.9422 83.3889 62.4289 87.0178 46.0989C95.4589 31.5833 106.977 30.4 106.977 30.4H114.234L122.676 46.0989Z" fill="#C7AC6B"/>
<path d="M112.42 38.5C110.211 45.2844 107.529 47.2033 101.218 50.5167C94.9066 53.83 87.3333 54.6189 80.47 52.5678L97.6677 28.0334H112.42L126.541 39.2356L122.5 54C116.978 49.8189 112.42 38.5 112.42 38.5Z" fill="#422626"/>
<path d="M103.39 114.216L112.451 128.725L107.386 128.725L103.39 114.216Z" fill="#340404"/>
<path d="M85 79.3906C76.7983 82.023 59.8123 95.9318 58.5 98.5C60.4684 105.563 67.7674 172.891 67.7674 172.891H82.7674H94.3247H99.3247H101.576C101.576 172.891 95.7193 132.852 99 129C102.281 125.148 104.5 117.5 104 115C103.7 113.5 98.0213 85.4721 98.0213 85.4721L85 79.3906Z" fill="#058596"/>
<path d="M79.5 82.5C71.7293 86.3793 32.589 111 42 128C52.3082 146.621 74.9057 165 74.9057 165V154.759C74.9057 154.759 49.4141 131.345 51 121C52.5859 110.655 69.7516 98.6896 69.7516 98.6896L79.5 82.5Z" fill="#058596"/>
<g filter="url(#filter0_d_0_1)">
<path d="M140.647 179.567H61.6543C59.1858 179.567 57.1465 177.527 57.1465 175.059L55 124.508C55 122.039 57.0392 120 59.5077 120H141.72C144.189 120 146.228 122.039 146.228 124.508L145.155 175.059C145.155 177.527 143.116 179.567 140.647 179.567Z" fill="#C9C7C7"/>
<path d="M100.882 158.513C105.328 158.513 108.932 154.909 108.932 150.464C108.932 146.018 105.328 142.414 100.882 142.414C96.4368 142.414 92.8329 146.018 92.8329 150.464C92.8329 154.909 96.4368 158.513 100.882 158.513Z" fill="#F3F3F3"/>
</g>
<path d="M104.5 72.5C101.5 72.3063 99.3755 65.0894 99.5 63.1605C99.6246 61.2315 107 66.1605 108 66.6605C109.5 67.1605 112.794 67.4236 112.67 69.3526C112.545 71.2816 106.153 72.6068 104.5 72.5Z" fill="#6D1042"/>
<path d="M107.5 71.5C107 72.5 104.913 72.5589 103.5 72C102.731 71.2212 101.538 69.8119 101 68C101.476 67.1759 102.608 68.6963 104 69.5C105.392 70.3037 107.551 71.0733 107.5 71.5Z" fill="#AC5656"/>
<path d="M105.828 55.8831C107.063 56.3056 107.552 57.3076 107.975 56.0731C108.398 54.8385 107.739 53.4952 106.505 53.0727C105.27 52.6502 103.927 53.3085 103.504 54.543C103.082 55.7776 104.594 55.4606 105.828 55.8831Z" fill="#340404"/>
<path d="M116.534 59.664C117.518 60.4045 117.664 61.4467 118.404 60.4629C119.145 59.4791 118.947 58.0812 117.964 57.3408C116.98 56.6003 115.582 56.7976 114.841 57.7814C114.101 58.7652 115.55 58.9235 116.534 59.664Z" fill="#340404"/>
<defs>
<filter id="filter0_d_0_1" x="45" y="114" width="111.228" height="79.5667" filterUnits="userSpaceOnUse" color-interpolation-filters="sRGB">
<feFlood flood-opacity="0" result="BackgroundImageFix"/>
<feColorMatrix in="SourceAlpha" type="matrix" values="0 0 0 0 0 0 0 0 0 0 0 0 0 0 0 0 0 0 127 0" result="hardAlpha"/>
<feOffset dy="4"/>
<feGaussianBlur stdDeviation="5"/>
<feComposite in2="hardAlpha" operator="out"/>
<feColorMatrix type="matrix" values="0 0 0 0 0 0 0 0 0 0 0 0 0 0 0 0 0 0 0.25 0"/>
<feBlend mode="normal" in2="BackgroundImageFix" result="effect1_dropShadow_0_1"/>
<feBlend mode="normal" in="SourceGraphic" in2="effect1_dropShadow_0_1" result="shape"/>
</filter>
</defs>
</svg>
