<svg width="188" height="234" viewBox="0 0 188 234" fill="none" xmlns="http://www.w3.org/2000/svg">
<g opacity="0.8">
<path d="M111.289 44.1723C108.503 39.6661 114.037 40.4015 114.127 34.4858C117.241 31.6012 118.485 23.8947 118.771 20.8652C119.244 15.4145 116.222 9.84509 111.488 6.0495C105.271 1.03371 96.2303 -1.00589 88.3444 0.840609C80.4584 2.68711 74.0461 8.33747 71.9595 15.2659C70.4438 20.2363 70.8857 26.013 67.1923 29.963C64.4965 32.7815 60.1748 34.0002 56.001 34.6187C51.7845 35.1857 47.4327 35.3298 43.4585 36.6046C39.4842 37.8793 35.8384 40.5889 35.2846 44.3328C34.8782 47.1645 36.2935 50.0675 36.043 52.8797C35.6813 57.0112 31.8234 60.0877 27.9143 62.2199C23.9557 64.3441 19.5568 66.0406 16.6063 69.1745C11.7454 74.3623 12.3118 82.5216 16.4328 88.536C20.5538 94.5504 25.3865 102.121 35.9009 108.523C60.5 123.5 67.8704 118.888 88.9127 121.974C95.4282 122.937 93.2608 122.339 99.7953 121.923C106.33 121.508 109.461 122.736 112.933 117.948C116.455 113.168 119.195 109.659 114.794 103.018C110.392 96.377 115.655 97.6832 113.822 86.4392C112.829 80.3487 112.329 73.0456 109.304 69.7044C106.279 66.3631 105.009 61.2994 107.924 58.0706C109.042 56.8248 110.706 55.9793 111.775 54.7254C113.897 52.3047 113.756 48.7607 112.291 45.8497C112.014 45.3591 111.694 44.8172 111.289 44.1723Z" fill="#422626"/>
<path d="M185.639 213.73C181.277 216.885 168 206 166.275 203.698C163 196.5 163 196 165.862 192.889C173 188.5 173.5 191 179 196C183.855 202.712 190.001 210.575 185.639 213.73Z" fill="#C7AC6B"/>
<path d="M1.49886 233C-2.30754 229.194 6.49922 211.068 8.49885 209C15.0866 204.626 16.8532 205.91 20.3784 208.243C25.8435 214.595 23.4543 215.485 19.3893 221.708C13.5315 227.566 5.30525 236.806 1.49886 233Z" fill="#C7AC6B"/>
<path d="M99.7152 113.568C102.475 113.727 105.08 114.892 107.038 116.843L136.767 146.476L142.21 153.449L172.515 189.225C174.762 191.878 174.606 195.809 172.154 198.274V198.274C169.667 200.777 165.664 200.919 163.004 198.599L125.678 166.043C125.327 165.736 124.984 165.43 124.641 165.114C122.191 162.855 111.553 152.968 107.079 147.53C105.253 145.311 99.0633 140.018 91.8879 134.152C83.2916 127.124 88.6299 112.93 99.7152 113.568V113.568Z" fill="#39658C"/>
<path d="M104.769 115.363C107.538 103.784 96.8335 91.8696 88.1656 100.032C82.4514 105.412 76.0861 114.443 63.0868 130.128C61.6275 131.889 60.2794 133.767 59.0929 135.722C46.0243 157.255 43.1243 162.034 42.4808 163.094C42.3575 163.298 42.234 163.497 42.1075 163.698L14.7215 207.236C12.4327 210.874 14.3125 215.689 18.461 216.815V216.815C20.9316 217.486 23.5639 216.618 25.1524 214.611L37.4591 199.059L57.3299 170.944C60.5395 166.402 64.2139 162.208 68.2934 158.429L86.6586 141.416C90.9964 137.397 94.7964 132.835 97.9642 127.842L102.547 120.619C103.573 119.002 104.324 117.226 104.769 115.363V115.363Z" fill="#39658C"/>
<path d="M184.296 40.1216C184.084 44.4914 173.313 46.0474 172.593 46.0125C167.272 44.1276 162.247 42.0572 161.324 38.7578C165.456 30.0078 176.982 30.7323 176.534 33.1534C163.096 36.0056 184.508 35.7519 184.296 40.1216Z" fill="#C7AC6B"/>
<path d="M17.2497 49.1215C13.2082 51.7787 5.46706 51.4065 3.6458 50.7579C1.82453 50.1092 -1.3104 46.2842 1.19439 44.9352C3.69917 43.5862 6.4493 42.0146 8.53109 41.6223C9.75852 41.3832 12.6484 41.1235 11.3516 40.2853C10.0549 39.4471 6.31503 40.149 6.66299 38.5556C6.95763 37.2358 13.1018 36.0526 16.2527 37.4557C17.9993 38.2285 18.4681 38.055 19.6243 39.8324C20.7806 41.6099 23.6576 44.9037 17.2497 49.1215Z" fill="#C7AC6B"/>
<path d="M99.6327 50.9643C99.7261 61.0666 103.142 70.7686 103.551 72.2926C102.082 75.9531 91.2092 78.0496 86.8267 67.7899C85.4375 53.4612 85.9259 36.996 85.9259 36.996L91.982 44.3572L99.6327 50.9643Z" fill="#C7AC6B"/>
<path d="M103.897 78.4096C103.759 78.7168 103.571 79.0137 103.346 79.2642C88.6507 95.6443 66.3715 72.9754 49.9901 69.8404C38.3177 67.6066 23.4104 57.8641 15.6771 52.347C13.5292 50.8146 14.209 47.5726 16.7687 46.9327V46.9327C17.8438 46.6639 18.7012 45.8547 19.0318 44.797L19.3149 43.8911C20.2022 41.0515 23.406 39.6643 26.0839 40.9601L61.6574 58.1732L101.964 73.7209C103.832 74.4416 104.714 76.5816 103.897 78.4096V78.4096Z" fill="#058596"/>
<path d="M88.7638 57C87.0745 57 85.4299 57.4753 83.8579 58.0938C77.0638 60.7673 69.3268 59.6502 63.4866 58.3855C58.3902 57.282 57.5282 59.7053 60.6051 63.9153C75.2033 83.8893 72.1822 110.474 70.6846 119.139C70.4151 120.699 71.4401 122.229 72.9994 122.5V122.5L76.4487 123.441C77.8007 123.809 79.2152 123.89 80.6004 123.677L83.8685 123.174C84.62 123.058 85.3559 122.857 86.0618 122.575L91.9974 120.201C93.9491 119.42 96.0972 119.274 98.1366 119.784L103 121L109.29 121.899C109.752 121.965 110.223 121.888 110.64 121.68V121.68C111.464 121.268 111.962 120.407 111.91 119.487C111.61 114.183 110.729 96.4687 111.999 91.3571C113.679 84.5966 125.762 58.339 124 59C115.177 62.3082 106.355 59.6712 102.301 58.0425C100.758 57.4224 99.1285 57 97.4652 57H88.7638Z" fill="#058596"/>
<path d="M167.809 45.2584C171.1 39.6115 166.819 33.456 160.647 35.606C150.444 39.16 138.137 45.1844 129.824 53.2097C120.498 62.213 103.99 69.3538 94.5711 72.9416C90.616 74.4481 88.2978 78.6825 89.3661 82.7776V82.7776C90.6715 87.7816 96.3128 90.2364 100.849 87.7531C113.273 80.9513 135.281 68.8354 144.286 63.4583C154.947 57.0929 163.672 49.4894 166.361 47.0591C166.938 46.5375 167.417 45.9305 167.809 45.2584V45.2584Z" fill="#058596"/>
<path d="M99.6318 46.2985C100.511 50.4979 98.0146 53.73 93.9878 54.3283C89.961 54.9266 86.8814 51.381 87.689 47.6566C90.1537 44.1474 93.9817 43.4488 93.9817 43.4488L96.4126 43.1724L99.6318 46.2985Z" fill="#825F0A"/>
<path d="M111.189 30.3101C107.154 43.1542 104.928 48.5668 94.2034 52.3781C83.1992 52.9321 76.0386 36.9529 79.3755 22.0728C87.0962 8.85529 97.5979 7.79692 97.5979 7.79692L104.214 7.80974L111.189 30.3101Z" fill="#C7AC6B"/>
<path d="M94.4493 46.0728C91.4739 46.5019 89.3505 44.4862 89.0746 42.573C88.7987 40.6598 91.5795 44.3223 93.1504 44.5023C95.1364 44.7389 94.4947 44.4752 96.0756 44.5001C97.9655 44.5299 96.0892 45.8363 94.4493 46.0728Z" fill="#6D1042"/>
<path d="M90.6645 31.377C89.396 31.0714 87.5945 29.1888 87.4702 29.7048C87.1647 30.9733 89.1749 32.1838 90.4435 32.4894C91.712 32.7949 92.9881 32.0142 93.2936 30.7456C93.5991 29.4771 91.9331 31.6825 90.6645 31.377Z" fill="#340404"/>
<path d="M102.369 34.8318C101.159 34.6033 100.642 32.144 100.414 33.354C100.185 34.5639 100.981 35.7301 102.191 35.9586C103.401 36.1871 105.044 35.7741 105.273 34.5642C105.304 34.3998 103.579 35.0604 102.369 34.8318Z" fill="#340404"/>
<path d="M101.468 16.4062C98.7503 22.1151 95.1702 23.3526 89.2248 25.5457C83.2794 27.7388 80.8618 34.905 75.0361 32.3227L79.5361 16.4062L91.6543 6.68747L104.5 6.68747L115.871 19.8118L110.633 32.3227C104.296 29.2736 101.468 16.4062 101.468 16.4062Z" fill="#422626"/>
</g>
</svg>
