<svg width="212" height="278" viewBox="0 0 212 278" fill="none" xmlns="http://www.w3.org/2000/svg">
<g opacity="0.8">
<path d="M114.289 44.1723C111.503 39.6661 117.037 40.4015 117.127 34.4858C120.241 31.6012 121.485 23.8947 121.771 20.8652C122.244 15.4145 119.222 9.84509 114.488 6.0495C108.271 1.03371 99.2303 -1.00589 91.3444 0.840609C83.4584 2.68711 77.0461 8.33747 74.9595 15.2659C73.4438 20.2363 73.8857 26.013 70.1923 29.963C67.4965 32.7815 63.1748 34.0002 59.001 34.6187C54.7845 35.1857 50.4327 35.3298 46.4585 36.6046C42.4842 37.8793 38.8384 40.5889 38.2846 44.3328C37.8782 47.1645 39.2935 50.0675 39.043 52.8797C38.6813 57.0112 34.8234 60.0877 30.9143 62.2199C26.9557 64.3441 22.5568 66.0406 19.6063 69.1745C14.7454 74.3623 15.3118 82.5216 19.4328 88.536C23.5538 94.5504 28.3865 102.121 38.9009 108.523C63.5 123.5 70.8704 118.888 91.9127 121.974C98.4282 122.937 96.2608 122.339 102.795 121.923C109.33 121.508 112.461 122.736 115.933 117.948C119.455 113.168 122.195 109.659 117.794 103.018C113.392 96.377 118.655 97.6832 116.822 86.4392C115.829 80.3487 115.329 73.0456 112.304 69.7044C109.279 66.3631 108.009 61.2994 110.924 58.0706C112.042 56.8248 113.706 55.9793 114.775 54.7254C116.897 52.3047 116.756 48.7607 115.291 45.8497C115.014 45.3591 114.694 44.8172 114.289 44.1723Z" fill="#422626"/>
<path d="M188.639 213.73C184.277 216.885 171 206 169.275 203.698C166 196.5 166 196 168.862 192.889C176 188.5 176.5 191 182 196C186.855 202.712 193.001 210.575 188.639 213.73Z" fill="#C7AC6B"/>
<path d="M4.49886 233C0.692459 229.194 9.49922 211.068 11.4989 209C18.0866 204.626 19.8532 205.91 23.3784 208.243C28.8435 214.595 26.4543 215.485 22.3893 221.708C16.5315 227.566 8.30525 236.806 4.49886 233Z" fill="#C7AC6B"/>
<path d="M102.715 113.568C105.475 113.727 108.08 114.892 110.038 116.843L139.767 146.476L145.21 153.449L175.515 189.225C177.762 191.878 177.606 195.809 175.154 198.274V198.274C172.667 200.777 168.664 200.919 166.004 198.599L128.678 166.043C128.327 165.736 127.984 165.43 127.641 165.114C125.191 162.855 114.553 152.968 110.079 147.53C108.253 145.311 102.063 140.018 94.8879 134.152C86.2916 127.124 91.6299 112.93 102.715 113.568V113.568Z" fill="#39658C"/>
<path d="M107.769 115.363C110.538 103.784 99.8335 91.8696 91.1656 100.032C85.4514 105.412 79.0861 114.443 66.0868 130.128C64.6275 131.889 63.2794 133.767 62.0929 135.722C49.0243 157.255 46.1243 162.034 45.4808 163.094C45.3575 163.298 45.234 163.497 45.1075 163.698L17.7215 207.236C15.4327 210.874 17.3125 215.689 21.461 216.815V216.815C23.9316 217.486 26.5639 216.618 28.1524 214.611L40.4591 199.059L60.3299 170.944C63.5395 166.402 67.2139 162.208 71.2934 158.429L89.6586 141.416C93.9964 137.397 97.7964 132.835 100.964 127.842L105.547 120.619C106.573 119.002 107.324 117.226 107.769 115.363V115.363Z" fill="#39658C"/>
<path d="M187.296 40.1216C187.084 44.4914 176.313 46.0474 175.593 46.0125C170.272 44.1276 165.247 42.0572 164.324 38.7578C168.456 30.0078 179.982 30.7323 179.534 33.1534C166.096 36.0056 187.508 35.7519 187.296 40.1216Z" fill="#C7AC6B"/>
<path d="M20.2497 49.1215C16.2082 51.7787 8.46706 51.4065 6.6458 50.7579C4.82453 50.1092 1.6896 46.2842 4.19439 44.9352C6.69917 43.5862 9.4493 42.0146 11.5311 41.6223C12.7585 41.3832 15.6484 41.1235 14.3516 40.2853C13.0549 39.4471 9.31503 40.149 9.66299 38.5556C9.95763 37.2358 16.1018 36.0526 19.2527 37.4557C20.9993 38.2285 21.4681 38.055 22.6243 39.8324C23.7806 41.6099 26.6576 44.9037 20.2497 49.1215Z" fill="#C7AC6B"/>
<path d="M102.633 50.9643C102.726 61.0666 106.142 70.7686 106.551 72.2926C105.082 75.9531 94.2092 78.0496 89.8267 67.7899C88.4375 53.4612 88.9259 36.996 88.9259 36.996L94.982 44.3572L102.633 50.9643Z" fill="#C7AC6B"/>
<path d="M106.897 78.4096C106.759 78.7168 106.571 79.0137 106.346 79.2642C91.6507 95.6443 69.3715 72.9754 52.9901 69.8404C41.3177 67.6066 26.4104 57.8641 18.6771 52.347C16.5292 50.8146 17.209 47.5726 19.7687 46.9327V46.9327C20.8438 46.6639 21.7012 45.8547 22.0318 44.797L22.3149 43.8911C23.2022 41.0515 26.406 39.6643 29.0839 40.9601L64.6574 58.1732L104.964 73.7209C106.832 74.4416 107.714 76.5816 106.897 78.4096V78.4096Z" fill="#058596"/>
<path d="M91.7638 57C90.0745 57 88.4299 57.4753 86.8579 58.0938C80.0638 60.7673 72.3268 59.6502 66.4866 58.3855C61.3902 57.282 60.5282 59.7053 63.6051 63.9153C78.2033 83.8893 75.1822 110.474 73.6846 119.139C73.4151 120.699 74.4401 122.229 75.9994 122.5V122.5L79.4487 123.441C80.8007 123.809 82.2152 123.89 83.6004 123.677L86.8685 123.174C87.62 123.058 88.3559 122.857 89.0618 122.575L94.9974 120.201C96.9491 119.42 99.0972 119.274 101.137 119.784L106 121L112.29 121.899C112.752 121.965 113.223 121.888 113.64 121.68V121.68C114.464 121.268 114.962 120.407 114.91 119.487C114.61 114.183 113.729 96.4687 114.999 91.3571C116.679 84.5966 128.762 58.339 127 59C118.177 62.3082 109.355 59.6712 105.301 58.0425C103.758 57.4224 102.128 57 100.465 57H91.7638Z" fill="#058596"/>
<path d="M170.809 45.2584C174.1 39.6115 169.819 33.456 163.647 35.606C153.444 39.16 141.137 45.1844 132.824 53.2097C123.498 62.213 106.99 69.3538 97.5711 72.9416C93.616 74.4481 91.2978 78.6825 92.3661 82.7776V82.7776C93.6715 87.7816 99.3128 90.2364 103.849 87.7531C116.273 80.9513 138.281 68.8354 147.286 63.4583C157.947 57.0929 166.672 49.4894 169.361 47.0591C169.938 46.5375 170.417 45.9305 170.809 45.2584V45.2584Z" fill="#058596"/>
<path d="M102.632 46.2985C103.511 50.4979 101.015 53.73 96.9878 54.3283C92.961 54.9266 89.8814 51.381 90.689 47.6566C93.1537 44.1474 96.9817 43.4488 96.9817 43.4488L99.4126 43.1724L102.632 46.2985Z" fill="#825F0A"/>
<path d="M114.189 30.3101C110.154 43.1542 107.928 48.5668 97.2034 52.3781C86.1992 52.9321 79.0386 36.9529 82.3755 22.0728C90.0962 8.85529 100.598 7.79692 100.598 7.79692L107.214 7.80974L114.189 30.3101Z" fill="#C7AC6B"/>
<path d="M97.4493 46.0728C94.4739 46.5019 92.3505 44.4862 92.0746 42.573C91.7987 40.6598 94.5795 44.3223 96.1504 44.5023C98.1364 44.7389 97.4947 44.4752 99.0756 44.5001C100.965 44.5299 99.0892 45.8363 97.4493 46.0728Z" fill="#6D1042"/>
<path d="M93.6645 31.377C92.396 31.0714 90.5945 29.1888 90.4702 29.7048C90.1647 30.9733 92.1749 32.1838 93.4435 32.4894C94.712 32.7949 95.9881 32.0142 96.2936 30.7456C96.5991 29.4771 94.9331 31.6825 93.6645 31.377Z" fill="#340404"/>
<path d="M105.369 34.8318C104.159 34.6033 103.642 32.144 103.414 33.354C103.185 34.5639 103.981 35.7301 105.191 35.9586C106.401 36.1871 108.044 35.7741 108.273 34.5642C108.304 34.3998 106.579 35.0604 105.369 34.8318Z" fill="#340404"/>
<path d="M104.468 16.4062C101.75 22.1151 98.1702 23.3526 92.2248 25.5457C86.2794 27.7388 83.8618 34.905 78.0361 32.3227L82.5361 16.4062L94.6543 6.68747L107.5 6.68747L118.871 19.8118L113.633 32.3227C107.296 29.2736 104.468 16.4062 104.468 16.4062Z" fill="#422626"/>
</g>
<path opacity="0.5" d="M150.008 197.356C157.294 211.456 165.82 216.036 169.173 216.563" stroke="#474766" stroke-opacity="0.2" stroke-width="4" stroke-linecap="round"/>
<path opacity="0.5" d="M2 203.97C15.384 195.44 19.175 186.535 19.3975 183.148" stroke="#474766" stroke-opacity="0.2" stroke-width="4" stroke-linecap="round"/>
<ellipse opacity="0.5" cx="101" cy="267" rx="87" ry="11" fill="#454464" fill-opacity="0.3"/>
<path d="M199.253 71.1399C202.713 73.1118 205.455 76.9831 207.72 81.3044C210.006 85.6192 211.786 90.3661 211.613 94.912C211.44 99.4578 209.3 103.833 206.088 105.787C202.876 107.741 198.599 107.297 194.452 106.703C190.276 106.092 186.238 105.356 182.689 102.767C179.132 100.155 176.053 95.7204 174.972 90.8008C173.871 85.8877 174.776 80.5135 177.184 76.8306C179.604 73.1168 183.527 71.0943 187.584 70.1039C191.621 69.1199 195.792 69.168 199.253 71.1399Z" fill="#454464" fill-opacity="0.2"/>
<path d="M178.018 120.667C179.941 120.28 182.034 120.866 184.04 121.785C186.052 122.695 187.962 123.939 189.011 125.755C190.059 127.571 190.249 129.975 189.397 131.799C188.545 133.622 186.659 134.872 184.79 136.021C182.906 137.173 181.047 138.23 178.935 138.408C176.814 138.58 174.442 137.888 172.781 136.344C171.112 134.81 170.163 132.43 170.256 130.205C170.345 127.963 171.476 125.877 172.917 124.145C174.35 122.423 176.094 121.055 178.018 120.667Z" fill="#454464" fill-opacity="0.2"/>
</svg>
