<svg width="125" height="101" viewBox="0 0 125 101" fill="none" xmlns="http://www.w3.org/2000/svg">
<path d="M124.246 57.6182C122.461 119.882 112.686 89.6537 58.1662 98.1882C-6.09167 108.247 0.0180414 75.4758 2.20801 42.267C5.50244 -7.68983 3.10254 2.59098 60.7188 5.78427C123.622 9.2706 125.897 0.0353702 124.246 57.6182Z" fill="#058596"/>
<path d="M73.7226 41.9454C75.9961 39.5002 79.3683 37.3563 95.8097 65.5011C104.308 80.049 126.607 92.7097 115.006 96.7939C111.323 98.0907 115.466 99.8418 97.9789 78.5902C81.344 58.3743 71.0713 44.797 73.7226 41.9454Z" fill="#313153"/>
<path d="M46.3109 44.6659C49.019 46.6006 33.4633 57.8516 27.335 66.603C10.9985 89.9321 12.4668 94.6522 10.4125 92.708C3.65758 86.3149 6.68209 81.8972 21.3037 65.4619C35.2128 49.8276 43.1527 42.4097 46.3109 44.6659Z" fill="#313153"/>
<path d="M119.991 18.8867C99.0194 48.7815 63.9762 67.1391 63.9762 67.1391C63.9762 67.1391 35.8405 54.1335 15.227 24.0885C-5.38654 -5.95656 9.70048 0.37486 67.6634 3.7462C120.692 6.83053 126.118 10.1513 119.991 18.8867Z" fill="#313153"/>
</svg>
