<svg width="966" height="772" viewBox="0 0 966 772" fill="none" xmlns="http://www.w3.org/2000/svg">
<g opacity="0.7">
<path d="M726.701 441.343C725.555 441.056 724.396 440.828 723.215 440.828H681.5L653 437.828L634.5 434.328L605.5 428.828L571.5 425.828H545.5L522 428.828L472.149 437.674C471.573 437.777 470.986 437.823 470.401 437.844C457.687 438.316 447.5 448.937 447.5 461.909L453 528.828V608.828L445 705.292C445 718.563 458.379 765.328 471.5 765.328H543.5H598H674.59L757.643 771.828C770.764 771.828 781.5 761.018 781.5 747.747V686.471L787.439 609.618C787.48 609.092 787.479 608.564 787.436 608.039L781.5 534.828L772.217 463.573C772.073 462.471 771.757 461.388 771.209 460.421C760.817 442.078 737.11 443.951 726.701 441.343ZM532.023 721.264C530.368 720.978 528.667 721.114 527.078 721.659L514.594 725.939C512.896 726.521 511.073 726.635 509.315 726.27L504.614 725.293C501.106 724.564 498.256 722.013 497.143 718.607L496.65 717.098C496.375 716.255 496.213 715.38 496.169 714.494L495.706 705.292L496.471 686.471L496.235 667.65L498 648.828L496.942 621.328V599.828L498.328 575.5C498.659 569.684 503.872 565.382 509.645 566.158L526.504 568.427C526.981 568.491 527.463 568.521 527.944 568.515L534.79 568.442C540.582 568.381 545.215 573.238 544.88 579.021L543.5 602.828V621.328L545.5 640.828L548.074 711.8C548.304 718.147 542.636 723.097 536.378 722.016L532.023 721.264ZM523.694 542.949C507.814 542.949 494.991 526.328 494.991 514.246C494.991 498.44 502.194 494.828 522 489.328C541.806 483.828 556 504.023 556 519.828C556 535.708 539.574 542.949 523.694 542.949ZM732.129 710.881C733.068 717.491 727.39 723.148 720.784 722.183L712.824 721.021C711.945 720.893 711.053 720.882 710.172 720.99L694.943 722.843C689.266 723.534 684.166 719.331 683.76 713.626L681.572 682.848C681.524 682.17 681.545 681.489 681.635 680.815L684.506 659.328C684.506 640.839 678.348 612.828 653 612.828C627.204 612.828 634.5 638.528 634.5 659.328L628.174 707.14C627.517 712.112 623.277 715.828 618.261 715.828H606.454C605.819 715.828 605.186 715.889 604.563 716.008L593.234 718.19C586.51 719.485 580.503 713.791 581.437 707.007L588 659.328V628.828L581.133 579.913C580.289 573.897 584.961 568.523 591.036 568.523H598L615.725 566.2C621.713 565.415 627.025 570.076 627.025 576.115V586.069C627.025 586.3 627.213 586.488 627.444 586.488V586.488C627.599 586.488 627.74 586.405 627.813 586.268C634.375 573.977 647.223 557.892 673.26 560.613C674.136 560.705 675.01 560.938 675.822 561.279C710.486 575.843 730.965 597.794 728 637.328V681.828L732.129 710.881Z" fill="#058596"/>
<path d="M625.795 102.055C626.003 88.929 631.021 84.3562 624.721 68.7125C617.221 54.5786 616.429 45.6869 613.885 37.4066C609.192 22.5541 597.564 9.26349 579.88 4.60593C556.62 -1.59213 530.058 -0.865308 509.652 12.8402C489.246 26.5457 477.25 48.5913 478.987 69.1382C480.179 83.8992 487.838 98.5812 481.699 113.106C477.147 123.538 466.193 131.593 454.995 137.904C443.619 144.128 431.388 149.392 421.486 157.204C411.583 165.015 404.205 176.228 406.777 186.687C408.758 194.583 416.004 200.621 418.407 208.292C421.955 219.553 414.38 231.968 405.614 241.959C396.696 251.985 386.052 261.381 381.124 272.928C373.033 292.016 383.687 312.818 402.085 323.994C420.482 335.17 456.034 355.09 479.659 354.65C544.276 353.616 522.341 369.682 585.671 354.167C596.77 351.826 594.896 352.257 602.057 349.953C610.808 347.138 609.573 350.05 636.998 333.172C650.609 319.709 661.631 311.71 660.35 282.067C659.536 263.203 667.38 246.626 662.109 219.305C658.756 201.924 652.481 191.352 642.575 181.135C632.669 170.918 624.092 152.982 628.814 141.226C630.616 136.697 630.593 132.642 632.245 128.149C632.694 122.505 631.583 117.563 628.411 113.298C627.078 112.32 625.438 106.541 625.795 102.055Z" fill="#422626"/>
<path d="M559.014 365.347C551.302 375.603 529.888 379.902 524.168 379.337C518.448 378.772 505.308 370.191 510.45 364.672C515.591 359.153 521.127 352.839 526.287 350.3C529.319 348.781 536.828 346.056 532.298 344.597C527.768 343.137 518.495 347.691 517.499 342.975C516.692 339.064 531.89 331.497 542.128 333.264C547.797 334.229 548.855 333.417 554.147 337.613C559.44 341.808 571.235 349.074 559.014 365.347Z" fill="#C7AC6B"/>
<path d="M464.646 353.418C458.427 356.014 451.478 351.842 450.862 345.131C449.214 327.166 446.368 295.354 444.987 275.252C443.463 253.056 468.562 209.783 480.794 190.146C484.106 184.829 491.418 184.085 495.882 188.479L508.713 201.112C509.103 201.496 509.519 201.837 509.904 202.227C512.948 205.312 524.669 222.377 477.514 271.657C474.277 275.041 473.786 280.177 475.63 284.482C485.407 307.317 478.192 335.407 474.93 345.689C474.109 348.279 472.136 350.292 469.628 351.339L464.646 353.418Z" fill="#058596"/>
<path d="M550.906 160.473C552.079 160.383 553.221 160.549 554.331 160.937C564.226 164.398 614.885 183.033 615.83 202.08C617.299 212.409 614.765 241.527 599.096 261.571C588.743 274.813 592.584 316.26 599.252 346.733C601.4 356.55 587.096 370.599 577.743 366.921L564.752 361.812C563.406 361.282 561.962 361.051 560.518 361.134L528.434 362.979C526.764 363.075 525.096 362.75 523.584 362.035L505.35 353.411C502.997 352.298 500.286 352.218 497.871 353.192V353.192C491.002 355.961 483.707 350.019 484.915 342.711C488.967 318.195 495.16 273.478 490.402 252.922C483.779 224.308 458.352 233.066 480.38 187.652C481.143 186.08 482.352 184.695 483.826 183.756C514.138 164.443 543.538 161.039 550.906 160.473Z" fill="#058596"/>
<g filter="url(#filter0_d_0_1)">
<path d="M506.808 346.543C509.591 350.207 514.491 351.504 518.678 349.595C535.351 341.996 576.971 322.149 596.881 304.77C619.153 285.33 615.983 216.612 614.933 200.756C614.79 198.601 613.913 196.604 612.474 194.994L605.263 186.923C604.795 186.399 604.273 185.926 603.706 185.512L597.585 181.04C594.342 178.669 590.063 178.661 587.661 181.881C581.068 190.722 569.435 214.472 567.202 273.382C567.035 277.801 564.034 281.608 559.868 283.089C534.157 292.229 509.968 311.714 498.801 321.549C495.029 324.871 494.611 330.486 497.651 334.489L506.808 346.543Z" fill="#058496"/>
</g>
<g filter="url(#filter1_d_0_1)">
<path d="M528.708 133.632C529.294 156.226 522.363 178.158 521.564 181.594C525.163 189.676 549.822 193.604 558.885 170.358C560.885 138.223 558.485 101.442 558.485 101.442L545.423 118.324L528.708 133.632Z" fill="#C7AC6B"/>
</g>
<path d="M532.213 159.642C528.433 155.75 530.92 147.201 537.769 140.549C544.618 133.897 558.76 129.915 562.541 133.808C566.322 137.7 566.034 143.224 551.46 154.645C544.611 161.298 535.994 163.535 532.213 159.642Z" fill="#C29D44"/>
<g filter="url(#filter2_d_0_1)">
<path d="M594.539 69.0844C594.215 119.305 570.1 152.127 538.823 151.654C507.545 151.18 490.238 104.485 502.464 62.8615C526.799 26.7731 556.747 25.7211 556.747 25.7211L575.488 26.9877L594.539 69.0844Z" fill="#C7AC6B"/>
</g>
<path d="M553.973 50.2551C546.148 69.3714 530.252 72.0716 520.022 80.5975C501.666 95.894 506.135 99.6055 487.146 92.127L526.01 5.3354L567.84 8.66379L592.07 37.5361L599.475 60.9943L599.917 76.6298L596.307 100.813C559.43 93.2881 553.973 50.2551 553.973 50.2551Z" fill="#422626"/>
<path d="M537.319 133.982C530.419 135.255 521.493 120.132 520.675 115.695C519.856 111.258 539.362 118.207 541.91 118.769C545.591 119.045 553.197 117.761 554.015 122.198C554.834 126.636 541.123 133.281 537.319 133.982Z" fill="#6D1042"/>
<path d="M543.713 131.561C538.583 133.367 536.995 134.012 533.92 133.407C532.071 132.115 528.684 129.068 526.915 125.596C527.571 123.747 531.594 122.289 534.717 123.398C537.84 124.507 548.843 129.754 543.713 131.561Z" fill="#AC5656"/>
<path d="M562.774 91.7864C566.73 93.5371 568.604 95.7568 569.454 93.8349C570.305 91.913 567.787 88.9357 563.831 87.185C559.875 85.4343 555.978 85.573 555.128 87.495C554.277 89.4169 558.817 90.0356 562.774 91.7864Z" fill="#340404"/>
<path d="M529.854 83.8083C534.177 83.9715 536.739 85.3405 536.818 83.2403C536.898 81.1401 533.457 79.3053 529.134 79.1421C524.811 78.979 521.242 80.5493 521.163 82.6495C521.084 84.7497 525.531 83.6452 529.854 83.8083Z" fill="#340404"/>
<path d="M284.885 555.324C295.941 567.888 348.16 540.27 350.494 538.216C363.891 518.145 363.891 518.145 359.176 505.728C324.592 490.608 338.665 489.381 323.156 507.067C303.821 524.081 273.83 542.76 284.885 555.324Z" fill="#C7AC6B"/>
<path d="M526.579 352.976C661.551 361.213 553.122 422.022 486.811 404.566C486.515 404.488 486.213 404.436 485.908 404.411C451.502 401.594 424.084 390.402 411.687 384.506C408.33 382.909 404.237 385.196 404.014 388.907L401.462 431.318C401.443 431.637 401.393 431.954 401.313 432.263L380.54 513C379.723 516.177 376.119 517.72 373.257 516.118L343.388 499.407L335.93 494.684C334.168 493.568 333.284 491.475 333.712 489.433L361 359.328L362.5 348.328L364.761 333.405C364.917 332.379 365.387 331.427 366.108 330.681L374.314 322.186C374.838 321.643 375.477 321.227 376.185 320.967L381.165 319.135C381.717 318.932 382.301 318.828 382.89 318.828L391 318.828L401.433 318.828L417 319.935L432.5 321.362L447 324.328L460.956 328.119C461.21 328.188 461.458 328.277 461.698 328.385L513.328 351.628C513.851 351.864 514.412 352.008 514.984 352.053L526.579 352.976Z" fill="#264E72"/>
<path d="M271.762 683.069C284.175 694.293 332.912 660.913 334.997 658.607C346.023 637.142 346.023 637.142 339.927 625.342C303.847 614.255 317.689 611.434 304.293 630.771C287.019 649.874 259.348 671.845 271.762 683.069Z" fill="#C7AC6B"/>
<path d="M594.17 348.314C596.713 348.241 598.918 350.116 599.215 352.643C606.777 416.821 575.058 442.825 510.707 461.825C454.756 472.13 426.694 487.976 421.042 491.442C420.314 491.888 419.759 492.527 419.375 493.289L344.409 641.965C343.196 644.371 340.295 645.383 337.849 644.254L324.569 638.125C324.092 637.905 323.653 637.611 323.268 637.255L310.853 625.765C309.384 624.406 308.867 622.303 309.538 620.419L369.98 450.628L372.631 444.268C372.943 443.521 373.431 442.861 374.054 442.344L379.648 437.703C379.961 437.444 380.304 437.223 380.671 437.047L497.581 380.757C498.723 380.207 499.613 379.245 500.072 378.064L509.507 353.801C510.236 351.927 512.015 350.672 514.024 350.615L594.17 348.314Z" fill="#39658C"/>
<path d="M504.814 358.147C497.298 366.757 478.573 369.848 473.723 369.198C468.873 368.548 458.378 360.785 463.272 356.179C468.166 351.574 473.468 346.295 478.113 344.256C480.846 343.034 487.52 340.902 483.769 339.516C480.017 338.13 471.67 341.787 471.235 337.697C470.891 334.306 484.581 328.225 493.194 330.038C497.965 331.031 498.944 330.363 503.105 334.126C507.267 337.89 516.726 344.484 504.814 358.147Z" fill="#B59C60"/>
<path d="M450.228 344.124C454.367 356.421 471.831 368.202 476.919 369.765C482.007 371.327 495.494 368.18 492.409 361.201C489.323 354.222 486.094 346.364 482.257 342.134C480.009 339.624 474.185 334.367 478.465 334.668C482.745 334.969 489.642 342.562 491.668 338.562C493.333 335.238 482.053 322.701 472.76 320.603C467.618 319.429 466.902 318.293 461.288 320.244C455.673 322.196 443.674 324.618 450.228 344.124Z" fill="#C7AC6B"/>
<path d="M520.027 321.858C582.666 272.17 561.953 274.033 577.358 209.05" stroke="#057C8D" stroke-opacity="0.8" stroke-width="4" stroke-linecap="round"/>
<path d="M827.057 226.828V277.194H927.789" stroke="#454464" stroke-width="6" stroke-miterlimit="10" stroke-linecap="round" stroke-linejoin="round"/>
<path d="M726.326 277.194H827.057V226.828" stroke="#454464" stroke-width="6" stroke-miterlimit="10" stroke-linecap="round" stroke-linejoin="round"/>
<path d="M776.692 327.558H877.423V277.192H776.692V327.558Z" stroke="#454464" stroke-width="6" stroke-miterlimit="10" stroke-linecap="round" stroke-linejoin="round"/>
<path d="M798.436 377.925H827.057V327.56H726.326" stroke="#454464" stroke-width="6" stroke-miterlimit="10" stroke-linecap="round" stroke-linejoin="round"/>
<path d="M927.789 327.56H827.057V377.925H908.737" stroke="#454464" stroke-width="6" stroke-miterlimit="10" stroke-linecap="round" stroke-linejoin="round"/>
<path d="M962.125 277.194H877.423V327.56H927.789" stroke="#454464" stroke-width="6" stroke-miterlimit="10" stroke-linecap="round" stroke-linejoin="round"/>
<path d="M704 327.56H776.692V277.194H741.774" stroke="#454464" stroke-width="6" stroke-miterlimit="10" stroke-linecap="round" stroke-linejoin="round"/>
<path d="M126.057 504.828V555.194H226.789" stroke="#454464" stroke-width="6" stroke-miterlimit="10" stroke-linecap="round" stroke-linejoin="round"/>
<path d="M25.326 555.194H126.058V504.828" stroke="#454464" stroke-width="6" stroke-miterlimit="10" stroke-linecap="round" stroke-linejoin="round"/>
<path d="M75.6918 605.558H176.423V555.192H75.6918V605.558Z" stroke="#454464" stroke-width="6" stroke-miterlimit="10" stroke-linecap="round" stroke-linejoin="round"/>
<path d="M97.4364 655.925H126.058V605.56H25.326" stroke="#454464" stroke-width="6" stroke-miterlimit="10" stroke-linecap="round" stroke-linejoin="round"/>
<path d="M226.789 605.56H126.057V655.925H207.737" stroke="#454464" stroke-width="6" stroke-miterlimit="10" stroke-linecap="round" stroke-linejoin="round"/>
<path d="M261.125 555.194H176.423V605.56H226.789" stroke="#454464" stroke-width="6" stroke-miterlimit="10" stroke-linecap="round" stroke-linejoin="round"/>
<path d="M3 605.56H75.6916V555.194H40.7739" stroke="#454464" stroke-width="6" stroke-miterlimit="10" stroke-linecap="round" stroke-linejoin="round"/>
</g>
<defs>
<filter id="filter0_d_0_1" x="491.638" y="179.352" width="128.072" height="179.119" filterUnits="userSpaceOnUse" color-interpolation-filters="sRGB">
<feFlood flood-opacity="0" result="BackgroundImageFix"/>
<feColorMatrix in="SourceAlpha" type="matrix" values="0 0 0 0 0 0 0 0 0 0 0 0 0 0 0 0 0 0 127 0" result="hardAlpha"/>
<feOffset dy="4"/>
<feGaussianBlur stdDeviation="2"/>
<feComposite in2="hardAlpha" operator="out"/>
<feColorMatrix type="matrix" values="0 0 0 0 0 0 0 0 0 0 0 0 0 0 0 0 0 0 0.25 0"/>
<feBlend mode="normal" in2="BackgroundImageFix" result="effect1_dropShadow_0_1"/>
<feBlend mode="normal" in="SourceGraphic" in2="effect1_dropShadow_0_1" result="shape"/>
</filter>
<filter id="filter1_d_0_1" x="517.564" y="101.442" width="46.1172" height="94.4469" filterUnits="userSpaceOnUse" color-interpolation-filters="sRGB">
<feFlood flood-opacity="0" result="BackgroundImageFix"/>
<feColorMatrix in="SourceAlpha" type="matrix" values="0 0 0 0 0 0 0 0 0 0 0 0 0 0 0 0 0 0 127 0" result="hardAlpha"/>
<feOffset dy="4"/>
<feGaussianBlur stdDeviation="2"/>
<feComposite in2="hardAlpha" operator="out"/>
<feColorMatrix type="matrix" values="0 0 0 0 0 0 0 0 0 0 0 0 0 0 0 0 0 0 0.25 0"/>
<feBlend mode="normal" in2="BackgroundImageFix" result="effect1_dropShadow_0_1"/>
<feBlend mode="normal" in="SourceGraphic" in2="effect1_dropShadow_0_1" result="shape"/>
</filter>
<filter id="filter2_d_0_1" x="494.517" y="25.7211" width="104.022" height="133.938" filterUnits="userSpaceOnUse" color-interpolation-filters="sRGB">
<feFlood flood-opacity="0" result="BackgroundImageFix"/>
<feColorMatrix in="SourceAlpha" type="matrix" values="0 0 0 0 0 0 0 0 0 0 0 0 0 0 0 0 0 0 127 0" result="hardAlpha"/>
<feOffset dy="4"/>
<feGaussianBlur stdDeviation="2"/>
<feComposite in2="hardAlpha" operator="out"/>
<feColorMatrix type="matrix" values="0 0 0 0 0 0 0 0 0 0 0 0 0 0 0 0 0 0 0.25 0"/>
<feBlend mode="normal" in2="BackgroundImageFix" result="effect1_dropShadow_0_1"/>
<feBlend mode="normal" in="SourceGraphic" in2="effect1_dropShadow_0_1" result="shape"/>
</filter>
</defs>
</svg>
