<svg width="40" height="43" viewBox="0 0 40 43" fill="none" xmlns="http://www.w3.org/2000/svg">
<path d="M20.4774 0.675278C24.1263 1.10779 27.492 3.36858 30.5036 6.16922C33.5326 8.95744 36.1775 12.2805 36.9496 16.1172C37.7217 19.9539 36.6157 24.3343 34.0065 27.0763C31.3972 29.8184 27.2969 30.9397 23.2872 31.8917C19.2476 32.8387 15.311 33.6339 11.4525 32.72C7.58156 31.7886 3.78356 29.1779 1.75898 25.4677C-0.283116 21.7699 -0.539405 16.99 0.960707 13.0915C2.46595 9.16316 5.7276 6.1162 9.32699 3.87989C12.9089 1.656 16.8285 0.242767 20.4774 0.675278Z" fill="#2E1AAD" fill-opacity="0.66"/>
<g filter="url(#filter0_d_0_1)">
<path d="M27.1512 14.6416C25.7498 13.6929 27.4587 13.1833 26.711 11.4476C27.2411 10.1996 26.5957 7.79096 26.2826 6.87076C25.7074 5.22044 24.0983 3.99268 22.2222 3.50584C19.7542 2.85747 16.8528 3.44573 14.7962 5.01542C12.7396 6.58511 11.6101 9.07057 11.9084 11.3626C12.1169 13.0093 13.0013 14.635 12.4417 16.2693C12.0248 17.4433 10.9248 18.3637 9.78935 19.09C8.63478 19.8068 7.38542 20.4181 6.39399 21.3094C5.40257 22.2008 4.69456 23.4674 5.02294 24.6309C5.27492 25.5092 6.06712 26.1701 6.362 27.0224C6.79704 28.2737 5.65432 28.1556 5.84636 30.1295C6.47774 31.3023 7.32715 30.6848 7.69735 31.6103C8.06755 32.1656 8.30103 32.2477 10.2887 33.4613C12.8801 34.2017 12.8801 34.0166 15.2864 34.3136C22.0391 34.0759 22.8181 33.8336 29.354 31.9805C31.3787 31.4089 31.464 31.1116 31.9454 30.6848C32.4912 29.9428 32.8555 30.128 33.2411 28.2785C33.9815 26.9828 33.9815 27.1679 34.3517 26.9828C36.7014 25.8079 33.2411 23.8361 32.1305 23.2808C30.3674 22.3993 31.2313 22.9198 29.9127 22.3418C28.5941 21.7638 27.5615 20.4543 27.9886 19.1321C28.1514 18.6228 28.5258 18.1587 28.6731 17.6535C28.9749 16.6704 28.4704 15.656 27.6627 14.9993C27.5177 14.8927 27.3536 14.7766 27.1512 14.6416Z" fill="#340404"/>
</g>
<path d="M21.2336 21.4148C21.2682 25.1546 22.5329 28.7463 22.6841 29.3105C22.1402 30.6656 18.1152 31.4417 16.4928 27.6436C15.9786 22.3391 16.1594 16.2437 16.1594 16.2437L18.4013 18.9688L21.2336 21.4148Z" fill="#E9C46A"/>
<path d="M20.7958 21.9353C20.6386 22.4423 19.0579 22.6145 17.8238 22.2318C16.5897 21.8491 15.7264 18.9688 15.8836 18.4619C16.0408 17.9549 16.5229 19.4033 18.8459 20.3245C20.08 20.7072 20.953 21.4284 20.7958 21.9353Z" fill="#C29D44"/>
<g filter="url(#filter1_d_0_1)">
<path d="M26.1704 10.9228C26.5648 17.3573 23.7517 21.7695 19.7291 21.9796C15.7066 22.1897 13.0775 16.3593 14.2869 10.9228C17.1 6.09032 20.9385 5.69638 20.9385 5.69638H23.3573L26.1704 10.9228Z" fill="#E9C46A"/>
</g>
<path d="M19.7651 19.2467C18.7935 19.507 17.53 18.1339 17.413 17.6969C17.2959 17.26 20.0465 17.5995 20.4058 17.6085C20.9244 17.5671 21.9954 17.2923 22.1125 17.7292C22.2295 18.1662 20.3006 19.1032 19.7651 19.2467Z" fill="#AE9712"/>
<path d="M20.2836 18.6219C20.3018 18.9759 19.8192 19.3231 19.4111 19.3937C19.1248 19.3017 18.8056 19.253 18.4331 18.8406C18.4331 18.5387 18.823 18.2831 19.2593 18.2831C19.6956 18.2831 20.2377 18.4966 20.2836 18.6219Z" fill="#E75151"/>
<path d="M21.9233 14.5506C22.3636 14.6686 22.5947 14.8692 22.6521 14.6553C22.7094 14.4414 22.3989 14.1724 21.9586 14.0544C21.5183 13.9364 21.1149 14.0142 21.0575 14.2281C21.0002 14.442 21.4829 14.4326 21.9233 14.5506Z" fill="#340404"/>
<path d="M18.2496 14.3403C18.7054 14.3334 18.9826 14.4631 18.9792 14.2417C18.9758 14.0202 18.6036 13.8464 18.1478 13.8534C17.692 13.8604 17.3253 14.0455 17.3287 14.2669C17.332 14.4884 17.7938 14.3473 18.2496 14.3403Z" fill="#340404"/>
<g filter="url(#filter2_d_0_1)">
<path d="M17.1374 13.1004C13.9907 14.7662 12.5619 15.3875 11.7695 13.8408C11.7695 10.1388 11.4117 8.53198 14.2786 7.06327C17.1455 5.59456 20.1119 5.65779 20.9043 7.2045C21.6966 8.75121 19.7288 11.0643 17.1374 13.1004Z" fill="#340404"/>
</g>
<path d="M21.1459 11.0082C18.9114 8.77373 18.1528 5.90946 19.4515 4.61071C20.7503 3.31196 23.7877 3.64697 26.0222 5.88148C27.8379 8.58131 28.3151 13.0286 27.0163 14.3274C25.7176 15.6261 23.3804 13.2427 21.1459 11.0082Z" fill="#340404"/>
<path d="M28.9838 30.3146C29.9093 34.5719 22.5416 34.2017 18.248 34.2017C16.0268 34.5719 7.51226 34.757 8.36067 30.3146C8.80795 24.0212 12.5099 23.4659 18.9113 24.5765C26.9477 24.2063 27.8435 25.0692 28.9838 30.3146Z" fill="#21C292"/>
<path d="M16.2119 24.2063C18.9884 24.9467 21.0245 24.7616 21.5798 24.3914" stroke="#0B8D67" stroke-linecap="round"/>
<defs>
<filter id="filter0_d_0_1" x="0.941616" y="3.24609" width="38.2109" height="39.0675" filterUnits="userSpaceOnUse" color-interpolation-filters="sRGB">
<feFlood flood-opacity="0" result="BackgroundImageFix"/>
<feColorMatrix in="SourceAlpha" type="matrix" values="0 0 0 0 0 0 0 0 0 0 0 0 0 0 0 0 0 0 127 0" result="hardAlpha"/>
<feOffset dy="4"/>
<feGaussianBlur stdDeviation="2"/>
<feComposite in2="hardAlpha" operator="out"/>
<feColorMatrix type="matrix" values="0 0 0 0 0 0 0 0 0 0 0 0 0 0 0 0 0 0 0.25 0"/>
<feBlend mode="normal" in2="BackgroundImageFix" result="effect1_dropShadow_0_1"/>
<feBlend mode="normal" in="SourceGraphic" in2="effect1_dropShadow_0_1" result="shape"/>
</filter>
<filter id="filter1_d_0_1" x="9.99073" y="5.69638" width="20.2166" height="24.2887" filterUnits="userSpaceOnUse" color-interpolation-filters="sRGB">
<feFlood flood-opacity="0" result="BackgroundImageFix"/>
<feColorMatrix in="SourceAlpha" type="matrix" values="0 0 0 0 0 0 0 0 0 0 0 0 0 0 0 0 0 0 127 0" result="hardAlpha"/>
<feOffset dy="4"/>
<feGaussianBlur stdDeviation="2"/>
<feComposite in2="hardAlpha" operator="out"/>
<feColorMatrix type="matrix" values="0 0 0 0 0 0 0 0 0 0 0 0 0 0 0 0 0 0 0.25 0"/>
<feBlend mode="normal" in2="BackgroundImageFix" result="effect1_dropShadow_0_1"/>
<feBlend mode="normal" in="SourceGraphic" in2="effect1_dropShadow_0_1" result="shape"/>
</filter>
<filter id="filter2_d_0_1" x="7.75526" y="6.0018" width="17.3265" height="16.7263" filterUnits="userSpaceOnUse" color-interpolation-filters="sRGB">
<feFlood flood-opacity="0" result="BackgroundImageFix"/>
<feColorMatrix in="SourceAlpha" type="matrix" values="0 0 0 0 0 0 0 0 0 0 0 0 0 0 0 0 0 0 127 0" result="hardAlpha"/>
<feOffset dy="4"/>
<feGaussianBlur stdDeviation="2"/>
<feComposite in2="hardAlpha" operator="out"/>
<feColorMatrix type="matrix" values="0 0 0 0 0 0 0 0 0 0 0 0 0 0 0 0 0 0 0.25 0"/>
<feBlend mode="normal" in2="BackgroundImageFix" result="effect1_dropShadow_0_1"/>
<feBlend mode="normal" in="SourceGraphic" in2="effect1_dropShadow_0_1" result="shape"/>
</filter>
</defs>
</svg>
