<svg width="101" height="92" viewBox="0 0 101 92" fill="none" xmlns="http://www.w3.org/2000/svg">
<path d="M55.5221 0.436754C65.3786 1.60508 74.4704 7.71203 82.6053 15.2773C90.7875 22.809 97.9321 31.7853 100.018 42.1493C102.103 52.5133 99.1159 64.3457 92.0675 71.7527C85.0192 79.1597 73.9433 82.1885 63.1122 84.7602C52.2002 87.3182 41.5665 89.4663 31.1436 86.9976C20.6872 84.4816 10.4279 77.4295 4.95896 67.4072C-0.557257 57.4185 -1.24956 44.5069 2.80262 33.9761C6.86866 23.3647 15.6792 15.1341 25.4021 9.09323C35.0776 3.08594 45.6655 -0.731568 55.5221 0.436754Z" fill="#653323"/>
<path d="M73.5497 38.1633C69.7643 35.6006 74.3803 34.224 72.3606 29.5355C73.7926 26.1644 72.0492 19.658 71.2035 17.1723C69.6497 12.7144 65.3031 9.39788 60.2353 8.08281C53.5686 6.33139 45.7311 7.92043 40.1758 12.1606C34.6205 16.4007 31.5693 23.1145 32.375 29.3059C32.9382 33.7541 35.3274 38.1455 33.8157 42.56C32.6894 45.7313 29.7181 48.2177 26.651 50.1795C23.5322 52.1158 20.1574 53.767 17.4793 56.1748C14.8012 58.5827 12.8887 62.004 13.7757 65.1468C14.4564 67.5195 16.5963 69.3046 17.3929 71.6069C18.568 74.9871 15.4812 74.6681 16 80C17.7055 83.1681 20 81.5 21 84C22 85.5 22.6307 85.7217 28 89C35 91 35 90.5 41.5 91.3024C59.7406 90.6602 61.8448 90.0059 79.5 85C83.5 82.5 83.6998 82.6529 85 81.5C86.4744 79.4958 87 79 90 75C92 71.5 93 71.5 93 69C93 62.2918 90 63 87 61.5C82.2374 59.1187 84.5712 60.5248 81.0093 58.9635C77.4473 57.4022 74.6582 53.8649 75.8119 50.2932C76.2516 48.9175 77.263 47.6638 77.6608 46.2993C78.4761 43.6437 77.1132 40.9035 74.9313 39.1296C74.5398 38.8415 74.0965 38.5279 73.5497 38.1633Z" fill="#422626"/>
<path d="M57.5649 56.4593C57.6582 66.5616 61.0746 76.2636 61.4829 77.7876C60.0136 81.4481 49.1413 83.5446 44.7588 73.2849C43.3696 58.9562 43.8581 42.491 43.8581 42.491L49.9141 49.8522L57.5649 56.4593Z" fill="#C7AC6B"/>
<path d="M56.3821 57.8655C55.9574 59.2349 51.6876 59.7001 48.354 58.6664C45.0205 57.6327 42.6885 49.8522 43.1132 48.4828C43.5378 47.1134 44.8401 51.026 51.115 53.5142C54.4486 54.5479 56.8067 56.496 56.3821 57.8655Z" fill="#C29D44"/>
<g filter="url(#filter0_d_0_1)">
<path d="M70.9005 28.1178C71.9658 45.499 64.3667 57.4176 53.5008 57.9851C42.635 58.5527 35.5331 42.8031 38.8 28.1178C46.399 15.0642 56.7677 14 56.7677 14H63.3014L70.9005 28.1178Z" fill="#C7AC6B"/>
</g>
<path d="M53.2695 50.925C50.6448 51.6283 46.2319 50.9191 45.9157 49.7388C45.5994 48.5585 54.0295 46.4757 55 46.5C56.4008 46.3879 60.0994 48.5585 60.4157 49.7388C60.7319 50.9191 54.716 50.5374 53.2695 50.925Z" fill="#6D1042"/>
<path d="M57 50.5C55.5 51 52.5 51.3993 52.5 52.5C52.5 52.8344 50.0834 54.7457 49 53.5C49 52.588 50.9611 49 52.2301 49C53.4991 49 57 50.5 57 50.5Z" fill="#AC5656"/>
<path d="M59.5232 39C60.7126 39.3187 61.2416 38.7782 61.3964 38.2003C61.5513 37.6225 60.7126 36.8958 59.5232 36.5771C58.3338 36.2584 57.2441 36.4684 57.0892 37.0462C56.9344 37.624 58.3338 38.6813 59.5232 39Z" fill="#340404"/>
<path d="M49.7757 38.3816C50.8721 37.8212 51.4376 36.6514 51.1653 36.1187C50.893 35.5861 49.7835 35.6086 48.6871 36.1691C47.5906 36.7295 46.9225 37.6156 47.1948 38.1483C47.4671 38.6809 48.6793 38.9421 49.7757 38.3816Z" fill="#340404"/>
<path d="M53.7587 19.1632C55.9606 19.4242 57.9916 20.7884 59.8088 22.4784C61.6367 24.1609 70.0341 36.1848 70.5 38.5C66 43 63.4971 33.4398 61.9226 35.0944C60.3481 36.7491 58.4013 34.5199 55.9817 35.0944C53.5441 35.6659 50.6412 39.0515 48.3128 38.5C45.9769 37.938 39.2217 43.2389 38 41C36.7677 38.7686 41.0765 29.008 41.9817 26.6555C42.89 24.285 44.8582 22.4464 47.0302 21.0969C49.1916 19.755 51.5568 18.9022 53.7587 19.1632Z" fill="#0B1577" fill-opacity="0.2"/>
<g filter="url(#filter1_d_0_1)">
<path d="M46.5 34C38 38.5 34.1404 40.178 32 36C32 26 31.0335 21.6597 38.7776 17.6923C46.5217 13.725 54.5347 13.8958 56.6752 18.0738C58.8156 22.2519 53.5 28.5 46.5 34Z" fill="#422626"/>
</g>
<path d="M57.3279 28.3487C51.2919 22.3127 49.2428 14.5756 52.751 11.0673C56.2593 7.55908 64.464 8.46405 70.5 14.5C75.4047 21.7929 76.6937 33.8063 73.1854 37.3146C69.6772 40.8228 63.3638 34.3846 57.3279 28.3487Z" fill="#422626"/>
<path d="M78.7628 79.5C84.5536 89.7453 61.7372 90 50 91C43 92 21.5 92 21.5 81.5C30.2082 66 31.471 68.5 51.2628 65C75.471 70.5 72.2628 68 78.7628 79.5Z" fill="#058596"/>
<path d="M44 65.7755C52.5 63.7755 56.5 66.5 58.5 66.5" stroke="#096470" stroke-linecap="round"/>
<line x1="36.822" y1="79.1508" x2="35.1508" y2="89.178" stroke="#315473" stroke-width="2" stroke-linecap="round"/>
<line x1="36.822" y1="79.1508" x2="35.1508" y2="89.178" stroke="#315473" stroke-width="2" stroke-linecap="round"/>
<line x1="36.822" y1="79.1508" x2="35.1508" y2="89.178" stroke="#315473" stroke-width="2" stroke-linecap="round"/>
<line x1="36.822" y1="79.1508" x2="35.1508" y2="89.178" stroke="#06707E" stroke-width="2" stroke-linecap="round"/>
<line x1="63.1404" y1="76.8363" x2="64.8363" y2="87.8596" stroke="#315473" stroke-width="2" stroke-linecap="round"/>
<line x1="63.1404" y1="76.8363" x2="64.8363" y2="87.8596" stroke="#315473" stroke-width="2" stroke-linecap="round"/>
<line x1="63.1404" y1="76.8363" x2="64.8363" y2="87.8596" stroke="#315473" stroke-width="2" stroke-linecap="round"/>
<line x1="63.1404" y1="76.8363" x2="64.8363" y2="87.8596" stroke="#06707E" stroke-width="2" stroke-linecap="round"/>
<defs>
<filter id="filter0_d_0_1" x="34" y="14" width="41" height="52" filterUnits="userSpaceOnUse" color-interpolation-filters="sRGB">
<feFlood flood-opacity="0" result="BackgroundImageFix"/>
<feColorMatrix in="SourceAlpha" type="matrix" values="0 0 0 0 0 0 0 0 0 0 0 0 0 0 0 0 0 0 127 0" result="hardAlpha"/>
<feOffset dy="4"/>
<feGaussianBlur stdDeviation="2"/>
<feComposite in2="hardAlpha" operator="out"/>
<feColorMatrix type="matrix" values="0 0 0 0 0 0 0 0 0 0 0 0 0 0 0 0 0 0 0.25 0"/>
<feBlend mode="normal" in2="BackgroundImageFix" result="effect1_dropShadow_0_1"/>
<feBlend mode="normal" in="SourceGraphic" in2="effect1_dropShadow_0_1" result="shape"/>
</filter>
<filter id="filter1_d_0_1" x="27.9614" y="14.825" width="33.1933" height="31.572" filterUnits="userSpaceOnUse" color-interpolation-filters="sRGB">
<feFlood flood-opacity="0" result="BackgroundImageFix"/>
<feColorMatrix in="SourceAlpha" type="matrix" values="0 0 0 0 0 0 0 0 0 0 0 0 0 0 0 0 0 0 127 0" result="hardAlpha"/>
<feOffset dy="4"/>
<feGaussianBlur stdDeviation="2"/>
<feComposite in2="hardAlpha" operator="out"/>
<feColorMatrix type="matrix" values="0 0 0 0 0 0 0 0 0 0 0 0 0 0 0 0 0 0 0.25 0"/>
<feBlend mode="normal" in2="BackgroundImageFix" result="effect1_dropShadow_0_1"/>
<feBlend mode="normal" in="SourceGraphic" in2="effect1_dropShadow_0_1" result="shape"/>
</filter>
</defs>
</svg>
