<svg width="101" height="92" viewBox="0 0 101 92" fill="none" xmlns="http://www.w3.org/2000/svg">
<path d="M55.5221 0.436754C65.3786 1.60508 74.4704 7.71203 82.6053 15.2773C90.7875 22.809 97.9321 31.7853 100.018 42.1493C102.103 52.5133 99.1159 64.3457 92.0675 71.7527C85.0192 79.1597 73.9433 82.1885 63.1122 84.7602C52.2002 87.3182 41.5665 89.4663 31.1436 86.9976C20.6872 84.4816 10.4279 77.4295 4.95896 67.4072C-0.557257 57.4185 -1.24956 44.5069 2.80262 33.9761C6.86866 23.3647 15.6792 15.1341 25.4021 9.09323C35.0776 3.08594 45.6655 -0.731568 55.5221 0.436754Z" fill="#653323"/>
<path d="M73.5497 38.1633C69.7643 35.6006 74.3803 34.224 72.3606 29.5355C73.7926 26.1644 72.0492 19.658 71.2035 17.1723C69.6497 12.7144 65.3031 9.39788 60.2353 8.08281C53.5686 6.33139 45.7311 7.92043 40.1758 12.1606C34.6205 16.4007 31.5693 23.1145 32.375 29.3059C32.9382 33.7541 35.3274 38.1455 33.8157 42.56C32.6895 45.7313 29.7181 48.2177 26.651 50.1795C23.5322 52.1158 20.1574 53.767 17.4793 56.1748C14.8012 58.5827 12.8887 62.004 13.7757 65.1468C14.4564 67.5195 16.5963 69.3046 17.3929 71.6069C18.568 74.9871 15.4812 74.6681 16 80C17.7055 83.1681 20 81.5 21 84C22 85.5 22.6307 85.7217 28 89C35 91 35 90.5 41.5 91.3024C59.7406 90.6602 61.8448 90.0059 79.5 85C83.5 82.5 83.6998 82.653 85 81.5C86.4744 79.4958 87 79 90 75C92 71.5 93 71.5 93 69C93 62.2918 90 63 87 61.5C82.2374 59.1187 84.5712 60.5248 81.0093 58.9635C77.4473 57.4022 74.6582 53.8649 75.8119 50.2932C76.2516 48.9175 77.263 47.6638 77.6608 46.2993C78.4761 43.6437 77.1132 40.9035 74.9313 39.1296C74.5398 38.8415 74.0965 38.5279 73.5497 38.1633Z" fill="#422626"/>
<path d="M57.5649 56.4593C57.6583 66.5616 61.0746 76.2636 61.4829 77.7876C60.0136 81.4481 49.1413 83.5446 44.7588 73.2849C43.3696 58.9562 43.8581 42.491 43.8581 42.491L49.9141 49.8522L57.5649 56.4593Z" fill="#C7AC6B"/>
<path d="M56.3821 57.8655C55.9574 59.2349 51.6876 59.7001 48.354 58.6664C45.0205 57.6327 42.6885 49.8522 43.1132 48.4828C43.5378 47.1134 44.8401 51.026 51.115 53.5142C54.4486 54.5479 56.8067 56.496 56.3821 57.8655Z" fill="#C29D44"/>
<g filter="url(#filter0_d_0_1)">
<path d="M70.9005 28.1178C71.9658 45.499 64.3667 57.4176 53.5008 57.9851C42.635 58.5527 35.5331 42.8031 38.8 28.1178C46.399 15.0642 56.7677 14 56.7677 14H63.3014L70.9005 28.1178Z" fill="#C7AC6B"/>
</g>
<path d="M52.2695 49C49.6448 49.7033 48.5 50.5 48 51C47.5 49.7612 52.0295 47.4757 53 47.5C54.4008 47.3879 57.6837 49.3197 58 50.5C58.3163 51.6803 53.716 48.6124 52.2695 49Z" fill="#6D1042"/>
<path d="M59.2542 39.0346C60.354 39.5883 60.9818 39.1666 61.2509 38.6323C61.5199 38.098 60.8464 37.2159 59.7465 36.6622C58.6467 36.1084 57.5371 36.0927 57.2681 36.627C56.999 37.1613 58.1544 38.4808 59.2542 39.0346Z" fill="#340404"/>
<path d="M59.8423 42.5C61.192 42.9288 62.0843 41.5533 62.2926 40.8976C62.5009 40.2419 61.192 41.0146 59.8423 40.5858C58.4926 40.157 57.6132 38.689 57.4049 39.3447C57.1966 40.0004 58.4926 42.0712 59.8423 42.5Z" fill="#A18E6D"/>
<path d="M49.7757 38.3816C50.8721 37.8212 51.4376 36.6514 51.1653 36.1187C50.893 35.5861 49.7835 35.6086 48.6871 36.1691C47.5906 36.7295 46.9225 37.6156 47.1948 38.1483C47.4671 38.6809 48.6793 38.9421 49.7757 38.3816Z" fill="#340404"/>
<path d="M53.8226 19.2533C56.0649 19.5714 58.1582 21.0235 60.0416 22.8068C61.9356 24.5826 70.7323 37.1698 71.257 39.568C66.7861 44.109 64.0315 34.1936 62.4689 35.8651C60.9063 37.5367 58.8794 35.1944 56.4345 35.7332C53.9712 36.2684 51.0977 39.6956 48.7205 39.0751C46.3353 38.4436 39.5915 43.7606 38.3008 41.4244C36.6852 38.5 41.1594 29.1249 42.0266 26.7189C42.8965 24.2943 44.8549 22.4417 47.0311 21.0982C49.1967 19.7622 51.5803 18.9352 53.8226 19.2533Z" fill="#0B1577" fill-opacity="0.2"/>
<g filter="url(#filter1_d_0_1)">
<path d="M46.5 34C38 38.5 34.1404 40.178 32 36C32 26 31.0335 21.6597 38.7776 17.6923C46.5217 13.725 54.5347 13.8958 56.6752 18.0738C58.8156 22.2519 53.5 28.5 46.5 34Z" fill="#422626"/>
</g>
<path d="M57.3279 28.3487C51.2919 22.3127 49.2428 14.5756 52.751 11.0673C56.2593 7.55908 64.464 8.46404 70.5 14.5C75.4047 21.7929 76.6937 33.8063 73.1854 37.3146C69.6772 40.8228 63.3638 34.3846 57.3279 28.3487Z" fill="#422626"/>
<path d="M78.7628 79.5C84.5536 89.7453 61.7372 90 50 91C43 92 21.5 92 21.5 81.5C30.2082 66 31.471 68.5 51.2628 65C75.471 70.5 72.2628 68 78.7628 79.5Z" fill="#058596"/>
<path d="M44 65.7755C52.5 63.7755 56.5 66.5 58.5 66.5" stroke="#096470" stroke-linecap="round"/>
<line x1="36.822" y1="79.1508" x2="35.1508" y2="89.178" stroke="#315473" stroke-width="2" stroke-linecap="round"/>
<line x1="36.822" y1="79.1508" x2="35.1508" y2="89.178" stroke="#315473" stroke-width="2" stroke-linecap="round"/>
<line x1="36.822" y1="79.1508" x2="35.1508" y2="89.178" stroke="#315473" stroke-width="2" stroke-linecap="round"/>
<line x1="36.822" y1="79.1508" x2="35.1508" y2="89.178" stroke="#06707E" stroke-width="2" stroke-linecap="round"/>
<line x1="63.1404" y1="76.8363" x2="64.8363" y2="87.8596" stroke="#315473" stroke-width="2" stroke-linecap="round"/>
<line x1="63.1404" y1="76.8363" x2="64.8363" y2="87.8596" stroke="#315473" stroke-width="2" stroke-linecap="round"/>
<line x1="63.1404" y1="76.8363" x2="64.8363" y2="87.8596" stroke="#315473" stroke-width="2" stroke-linecap="round"/>
<line x1="63.1404" y1="76.8363" x2="64.8363" y2="87.8596" stroke="#06707E" stroke-width="2" stroke-linecap="round"/>
<defs>
<filter id="filter0_d_0_1" x="34" y="14" width="41" height="52" filterUnits="userSpaceOnUse" color-interpolation-filters="sRGB">
<feFlood flood-opacity="0" result="BackgroundImageFix"/>
<feColorMatrix in="SourceAlpha" type="matrix" values="0 0 0 0 0 0 0 0 0 0 0 0 0 0 0 0 0 0 127 0" result="hardAlpha"/>
<feOffset dy="4"/>
<feGaussianBlur stdDeviation="2"/>
<feComposite in2="hardAlpha" operator="out"/>
<feColorMatrix type="matrix" values="0 0 0 0 0 0 0 0 0 0 0 0 0 0 0 0 0 0 0.25 0"/>
<feBlend mode="normal" in2="BackgroundImageFix" result="effect1_dropShadow_0_1"/>
<feBlend mode="normal" in="SourceGraphic" in2="effect1_dropShadow_0_1" result="shape"/>
</filter>
<filter id="filter1_d_0_1" x="27.9614" y="14.825" width="33.1933" height="31.572" filterUnits="userSpaceOnUse" color-interpolation-filters="sRGB">
<feFlood flood-opacity="0" result="BackgroundImageFix"/>
<feColorMatrix in="SourceAlpha" type="matrix" values="0 0 0 0 0 0 0 0 0 0 0 0 0 0 0 0 0 0 127 0" result="hardAlpha"/>
<feOffset dy="4"/>
<feGaussianBlur stdDeviation="2"/>
<feComposite in2="hardAlpha" operator="out"/>
<feColorMatrix type="matrix" values="0 0 0 0 0 0 0 0 0 0 0 0 0 0 0 0 0 0 0.25 0"/>
<feBlend mode="normal" in2="BackgroundImageFix" result="effect1_dropShadow_0_1"/>
<feBlend mode="normal" in="SourceGraphic" in2="effect1_dropShadow_0_1" result="shape"/>
</filter>
</defs>
</svg>
