<svg width="109" height="100" viewBox="0 0 109 100" fill="none" xmlns="http://www.w3.org/2000/svg">
<g filter="url(#filter0_d_0_1)">
<path d="M59.5221 0.436754C69.3786 1.60508 78.4704 7.71203 86.6053 15.2773C94.7875 22.809 101.932 31.7853 104.018 42.1493C106.103 52.5133 103.116 64.3457 96.0675 71.7527C89.0192 79.1597 77.9433 82.1885 67.1122 84.7602C56.2002 87.3182 45.5665 89.4663 35.1436 86.9976C24.6872 84.4816 14.4279 77.4295 8.95896 67.4072C3.44274 57.4185 2.75044 44.5069 6.80262 33.9761C10.8687 23.3647 19.6792 15.1341 29.4021 9.09323C39.0776 3.08594 49.6655 -0.731569 59.5221 0.436754Z" fill="#77250B"/>
</g>
<g filter="url(#filter1_d_0_1)">
<path d="M77.5497 38.1633C73.7643 35.6006 78.3803 34.224 76.3606 29.5355C77.7926 26.1644 76.0492 19.658 75.2035 17.1723C73.6497 12.7144 69.3031 9.39788 64.2353 8.08281C57.5686 6.33139 49.7311 7.92043 44.1758 12.1606C38.6205 16.4007 35.5693 23.1145 36.375 29.3059C36.9382 33.7541 39.3274 38.1455 37.8157 42.56C36.6894 45.7313 33.7181 48.2177 30.651 50.1795C27.5322 52.1158 24.1574 53.767 21.4793 56.1748C18.8012 58.5827 16.8887 62.004 17.7757 65.1468C18.4564 67.5195 20.5963 69.3046 21.3929 71.6069C22.568 74.9871 19.4812 74.6681 20 80C21.7055 83.1681 24 81.5 25 84C26 85.5 26.6307 85.7217 32 89C39 91 39 90.5 45.5 91.3024C63.7406 90.6602 65.8448 90.0059 83.5 85C87.5 82.5 87.6998 82.6529 89 81.5C90.4744 79.4958 91 79 94 75C96 71.5 97 71.5 97 69C97 62.2918 94 63 91 61.5C86.2374 59.1187 88.5712 60.5248 85.0093 58.9635C81.4473 57.4022 78.6582 53.8649 79.8119 50.2932C80.2516 48.9175 81.263 47.6638 81.6608 46.2993C82.4761 43.6437 81.1132 40.9035 78.9313 39.1296C78.5398 38.8415 78.0965 38.5279 77.5497 38.1633Z" fill="#340404"/>
</g>
<path d="M61.5649 56.4593C61.6582 66.5616 65.0746 76.2636 65.4829 77.7876C64.0136 81.4481 53.1413 83.5446 48.7588 73.2849C47.3696 58.9562 47.8581 42.491 47.8581 42.491L53.9141 49.8522L61.5649 56.4593Z" fill="#E9C46A"/>
<path d="M60.3821 57.8655C59.9574 59.2349 55.6876 59.7001 52.354 58.6664C49.0205 57.6327 46.6885 49.8522 47.1132 48.4828C47.5378 47.1134 48.8401 51.026 55.115 53.5142C58.4486 54.5479 60.8067 56.496 60.3821 57.8655Z" fill="#C29D44"/>
<g filter="url(#filter2_d_0_1)">
<path d="M74.9005 28.1178C75.9658 45.499 68.3667 57.4176 57.5008 57.9851C46.635 58.5527 39.5331 42.8031 42.8 28.1178C50.399 15.0642 60.7677 14 60.7677 14H67.3014L74.9005 28.1178Z" fill="#E9C46A"/>
</g>
<path d="M57.2695 50.925C54.6448 51.6283 50.2319 50.9191 49.9157 49.7388C49.5994 48.5585 58.0295 46.4757 59 46.5C60.4008 46.3879 64.0994 48.5585 64.4157 49.7388C64.7319 50.9191 58.716 50.5374 57.2695 50.925Z" fill="#AE9712"/>
<path d="M59.5 49.5058C59.5491 50.4622 58.2469 50.7405 57 51.5C55.3581 52.5 54.0062 52.1139 53 51C53 50.1845 54.8214 48.5 56 48.5C57.1786 48.5 59.3761 49.1673 59.5 49.5058Z" fill="#B43B3B"/>
<path d="M63.5232 39C64.7126 39.3187 65.2416 38.7782 65.3964 38.2003C65.5513 37.6225 64.7126 36.8958 63.5232 36.5771C62.3338 36.2584 61.2441 36.4684 61.0892 37.0462C60.9344 37.624 62.3338 38.6813 63.5232 39Z" fill="#340404"/>
<path d="M53.7757 38.3816C54.8721 37.8212 55.4376 36.6514 55.1653 36.1187C54.893 35.5861 53.7835 35.6086 52.6871 36.1691C51.5906 36.7295 50.9225 37.6156 51.1948 38.1483C51.4671 38.6809 52.6793 38.9421 53.7757 38.3816Z" fill="#340404"/>
<path d="M57.7587 19.1632C59.9606 19.4242 61.9916 20.7884 63.8088 22.4784C65.6367 24.1609 75.0341 40.1848 75.5 42.5C75.9659 44.8152 67.4971 33.4398 65.9226 35.0944C64.3481 36.7491 62.4013 34.5199 59.9817 35.0944C57.5441 35.6659 54.6412 39.0515 52.3128 38.5C49.9769 37.938 43.2217 43.2389 42 41C40.7677 38.7686 45.0765 29.008 45.9817 26.6555C46.89 24.285 48.8582 22.4464 51.0302 21.0969C53.1916 19.755 55.5568 18.9022 57.7587 19.1632Z" fill="#77250B" fill-opacity="0.2"/>
<g filter="url(#filter3_d_0_1)">
<path d="M50.5 34C42 38.5 38.1404 40.178 36 36C36 26 35.0335 21.6597 42.7776 17.6923C50.5217 13.725 58.5347 13.8958 60.6752 18.0738C62.8156 22.2519 57.5 28.5 50.5 34Z" fill="#340404"/>
</g>
<path d="M61.3279 28.3487C55.2919 22.3127 53.2428 14.5756 56.751 11.0673C60.2593 7.55908 68.464 8.46405 74.5 14.5C79.4047 21.7929 80.6937 33.8063 77.1854 37.3146C73.6772 40.8228 67.3638 34.3846 61.3279 28.3487Z" fill="#340404"/>
<path d="M82.7628 79.5C88.5536 89.7453 65.7372 90 54 91C47 92 25.5 92 25.5 81.5C34.2082 66 35.471 68.5 55.2628 65C79.471 70.5 76.2628 68 82.7628 79.5Z" fill="#21C292"/>
<path d="M48 65.7755C56.5 63.7755 60.5 66.5 62.5 66.5" stroke="#0B8D67" stroke-linecap="round"/>
<line x1="40.822" y1="79.1508" x2="39.1508" y2="89.178" stroke="#03AB79" stroke-width="2" stroke-linecap="round"/>
<line x1="40.822" y1="79.1508" x2="39.1508" y2="89.178" stroke="#03AB79" stroke-width="2" stroke-linecap="round"/>
<line x1="40.822" y1="79.1508" x2="39.1508" y2="89.178" stroke="#03AB79" stroke-width="2" stroke-linecap="round"/>
<line x1="40.822" y1="79.1508" x2="39.1508" y2="89.178" stroke="#03AB79" stroke-width="2" stroke-linecap="round"/>
<line x1="67.1404" y1="76.8363" x2="68.8363" y2="87.8596" stroke="#03AB79" stroke-width="2" stroke-linecap="round"/>
<line x1="67.1404" y1="76.8363" x2="68.8363" y2="87.8596" stroke="#03AB79" stroke-width="2" stroke-linecap="round"/>
<line x1="67.1404" y1="76.8363" x2="68.8363" y2="87.8596" stroke="#03AB79" stroke-width="2" stroke-linecap="round"/>
<line x1="67.1404" y1="76.8363" x2="68.8363" y2="87.8596" stroke="#03AB79" stroke-width="2" stroke-linecap="round"/>
<defs>
<filter id="filter0_d_0_1" x="0.213104" y="0.226685" width="108.457" height="95.8611" filterUnits="userSpaceOnUse" color-interpolation-filters="sRGB">
<feFlood flood-opacity="0" result="BackgroundImageFix"/>
<feColorMatrix in="SourceAlpha" type="matrix" values="0 0 0 0 0 0 0 0 0 0 0 0 0 0 0 0 0 0 127 0" result="hardAlpha"/>
<feOffset dy="4"/>
<feGaussianBlur stdDeviation="2"/>
<feComposite in2="hardAlpha" operator="out"/>
<feColorMatrix type="matrix" values="0 0 0 0 0 0 0 0 0 0 0 0 0 0 0 0 0 0 0.25 0"/>
<feBlend mode="normal" in2="BackgroundImageFix" result="effect1_dropShadow_0_1"/>
<feBlend mode="normal" in="SourceGraphic" in2="effect1_dropShadow_0_1" result="shape"/>
</filter>
<filter id="filter1_d_0_1" x="13.5561" y="7.38115" width="87.4439" height="91.9212" filterUnits="userSpaceOnUse" color-interpolation-filters="sRGB">
<feFlood flood-opacity="0" result="BackgroundImageFix"/>
<feColorMatrix in="SourceAlpha" type="matrix" values="0 0 0 0 0 0 0 0 0 0 0 0 0 0 0 0 0 0 127 0" result="hardAlpha"/>
<feOffset dy="4"/>
<feGaussianBlur stdDeviation="2"/>
<feComposite in2="hardAlpha" operator="out"/>
<feColorMatrix type="matrix" values="0 0 0 0 0 0 0 0 0 0 0 0 0 0 0 0 0 0 0.25 0"/>
<feBlend mode="normal" in2="BackgroundImageFix" result="effect1_dropShadow_0_1"/>
<feBlend mode="normal" in="SourceGraphic" in2="effect1_dropShadow_0_1" result="shape"/>
</filter>
<filter id="filter2_d_0_1" x="38" y="14" width="41" height="52" filterUnits="userSpaceOnUse" color-interpolation-filters="sRGB">
<feFlood flood-opacity="0" result="BackgroundImageFix"/>
<feColorMatrix in="SourceAlpha" type="matrix" values="0 0 0 0 0 0 0 0 0 0 0 0 0 0 0 0 0 0 127 0" result="hardAlpha"/>
<feOffset dy="4"/>
<feGaussianBlur stdDeviation="2"/>
<feComposite in2="hardAlpha" operator="out"/>
<feColorMatrix type="matrix" values="0 0 0 0 0 0 0 0 0 0 0 0 0 0 0 0 0 0 0.25 0"/>
<feBlend mode="normal" in2="BackgroundImageFix" result="effect1_dropShadow_0_1"/>
<feBlend mode="normal" in="SourceGraphic" in2="effect1_dropShadow_0_1" result="shape"/>
</filter>
<filter id="filter3_d_0_1" x="31.9614" y="14.825" width="33.1933" height="31.572" filterUnits="userSpaceOnUse" color-interpolation-filters="sRGB">
<feFlood flood-opacity="0" result="BackgroundImageFix"/>
<feColorMatrix in="SourceAlpha" type="matrix" values="0 0 0 0 0 0 0 0 0 0 0 0 0 0 0 0 0 0 127 0" result="hardAlpha"/>
<feOffset dy="4"/>
<feGaussianBlur stdDeviation="2"/>
<feComposite in2="hardAlpha" operator="out"/>
<feColorMatrix type="matrix" values="0 0 0 0 0 0 0 0 0 0 0 0 0 0 0 0 0 0 0.25 0"/>
<feBlend mode="normal" in2="BackgroundImageFix" result="effect1_dropShadow_0_1"/>
<feBlend mode="normal" in="SourceGraphic" in2="effect1_dropShadow_0_1" result="shape"/>
</filter>
</defs>
</svg>
