<svg width="245" height="197" viewBox="0 0 245 197" fill="none" xmlns="http://www.w3.org/2000/svg">
<path d="M220.288 46.5865L217.247 48.0654L217.487 51.4387C217.546 52.2605 217.782 53.1394 217.907 53.6064L217.917 53.6442C218.002 53.9599 218.074 54.221 218.148 54.4853C218.247 54.8431 218.348 55.2069 218.483 55.7203C218.889 57.2605 219.346 59.2206 219.644 61.5798C220.237 66.2729 220.218 72.6714 217.719 80.3763C216.389 84.4732 215.343 88.6818 214.336 92.8513C214.217 93.3438 214.098 93.8358 213.98 94.3274C213.084 98.0457 212.193 101.745 211.107 105.531C208.67 114.026 205.301 122.758 199.056 131.777C186.592 149.778 162.075 169.767 108.305 190.33C102.11 191.706 92.2042 192.2 80.5191 191.928C68.7533 191.654 55.593 190.617 43.4202 189.125C31.2137 187.629 20.175 185.696 12.6007 183.672C9.90046 182.951 7.81726 182.263 6.33538 181.651C6.46345 181.442 6.5797 181.254 6.68913 181.082C6.772 180.951 6.8442 180.841 6.90642 180.747C7.27676 180.735 7.82811 180.731 8.71025 180.731C18.0513 180.731 26.9737 177.865 36.9944 174.595C37.3361 174.483 37.6798 174.371 38.0254 174.258C47.9642 171.012 59.5781 167.219 75.0947 164.408L75.3927 154.631C69.6784 153.232 63.4286 152.51 57.5979 151.836C57.2949 151.801 56.9931 151.767 56.6925 151.732C50.4409 151.007 44.7251 150.3 39.8238 148.938C34.9288 147.577 31.463 145.72 29.2751 143.132C27.1971 140.673 25.7385 136.916 26.1686 130.547L26.18 130.379V130.21C26.18 130.06 26.1936 129.968 26.2037 129.922C26.3572 129.788 26.8856 129.465 28.122 129.21C30.1644 128.789 32.4607 128.824 34.7373 128.858C35.3623 128.868 35.9858 128.877 36.6022 128.877C37.5128 128.877 38.3441 128.88 39.1077 128.882C41.5164 128.889 43.2525 128.895 44.6832 128.812C46.8271 128.688 48.4148 128.368 50.7224 127.769L67.0124 123.537L51.0543 118.188C46.0608 116.515 40.2263 112.939 34.3823 108.21C28.5903 103.524 23.0578 97.9239 18.6596 92.5041C14.1815 86.9858 11.1905 82.0347 10.0756 78.6554C9.87058 78.0341 9.76112 77.5608 9.70317 77.2151L13.1719 76.5838C13.2617 76.5902 13.6111 76.6335 14.3714 76.9583C15.2864 77.3491 16.2714 77.9035 17.6433 78.6758C17.8354 78.784 18.0351 78.8964 18.2432 79.0133C21.3331 80.7476 25.8256 83.2101 31.3565 83.419L49.0201 84.0864L34.3233 74.2654C28.6289 70.4602 26.5474 66.6725 24.3255 60.6035C23.8524 59.3114 23.3732 57.9072 22.8544 56.3869C20.8472 50.5053 18.2473 42.8869 13.1185 33.3051C10.6312 28.6583 9.36549 25.2149 8.91748 22.7277C8.47731 20.2841 8.89913 19.2322 9.18923 18.7832C9.49956 18.3028 10.2663 17.5745 12.3398 16.9792C14.4291 16.3793 17.3431 16.0653 21.18 16.0653C21.8272 16.0653 22.8111 16.2995 24.3606 17.2781C25.9307 18.2699 27.7379 19.8044 29.973 21.948C31.3498 23.2685 32.9028 24.841 34.6161 26.5758C38.1468 30.1508 42.3578 34.4147 47.1079 38.5799C61.7225 51.395 83.1623 65.0285 118.076 68.3356L124.822 68.9746L123.443 62.3406C122.615 58.3522 121.622 52.9504 123.252 48.4284C125.356 42.5914 130.819 30.4354 139.206 20.4133C147.654 10.3184 158.134 3.41717 170.492 5.31969C171.52 5.47787 172.533 5.63082 173.53 5.78149C180.404 6.81952 186.561 7.74933 191.866 9.53448C197.766 11.5199 201.864 14.3351 204.243 18.9013L205.645 21.5909H208.678C214.92 21.5909 221.106 18.5102 225.924 16.1109C226.046 16.05 226.167 15.9895 226.288 15.9296L226.369 15.889C227.625 15.2644 228.812 14.6735 229.954 14.1337C229.389 14.8386 228.768 15.5552 228.092 16.2907C226.361 18.1735 224.375 20.0686 222.139 22.1761C221.938 22.3653 221.736 22.5562 221.531 22.7487C219.496 24.6644 217.291 26.7411 215.092 28.9913L205.36 38.9507L219.204 37.457C224.559 36.8793 229.561 35.5667 233.796 34.4553C233.982 34.4064 234.167 34.3578 234.35 34.3098C235 34.1396 235.624 33.9773 236.225 33.8239C234.853 36.0365 233.469 37.7379 232.02 39.1521C229.077 42.0232 225.556 44.0248 220.288 46.5865ZM26.2141 129.884C26.2141 129.884 26.2134 129.886 26.2117 129.89C26.2132 129.886 26.2141 129.883 26.2141 129.884Z" fill="#058596" stroke="#058596" stroke-width="10"/>
</svg>
