<svg width="165" height="390" viewBox="0 0 165 390" fill="none" xmlns="http://www.w3.org/2000/svg">
<g opacity="0.4">
<path d="M71.899 282.41C53.673 270.813 21.556 250.378 7.68101 207.975C-1.99399 178.408 -2.23398 141.135 8.20402 137.637C20.266 133.596 41.356 176.413 49.12 172.743C55.211 169.864 42.513 143.375 40.787 98.41C39.611 67.774 44.023 41.477 57.787 18.077C64.107 7.33198 68.718 -0.506017 73.787 0.0769825C94.692 2.47998 88.758 144.082 111.12 146.744C121.629 147.995 130.048 117.567 141.787 120.077C151.767 122.212 158.478 146.921 160.257 162.885C160.345 163.674 160.409 164.303 160.454 164.743C165.695 216.64 135.402 254.047 125.121 266.743C109.865 285.582 99.482 289.297 91.567 289.41C83.221 289.529 76.845 285.556 71.899 282.41Z" fill="#058596"/>
<path d="M66.5 85C70.014 122 90.986 178.253 94.112 226C96.148 257.091 94.256 284.531 91.112 307" stroke="white" stroke-opacity="0.4" stroke-width="6" stroke-miterlimit="10" stroke-linecap="round" stroke-linejoin="round"/>
<path d="M154.792 354.63L131.989 390H89.9064H51.331L18.8943 354.63C5.23333 335.404 5.75059 311.808 20.2471 292.972L40.2353 267H133.453L152.871 291.044C167.242 308.837 168.957 331.282 157.404 350.326L154.792 354.63Z" fill="#663399"/>
<path d="M42.112 209C42.112 209 57.803 241 94.958 241M116.022 169.879C116.022 169.879 115.618 186.884 92.239 209L116.022 169.879Z" stroke="white" stroke-opacity="0.4" stroke-width="6" stroke-miterlimit="10" stroke-linecap="round" stroke-linejoin="round"/>
<path opacity="0.67" d="M129.216 293C129.216 293 153.5 318 136.141 346.575" stroke="white" stroke-width="6" stroke-miterlimit="10" stroke-linecap="round" stroke-linejoin="round"/>
</g>
</svg>
