<svg width="210" height="168" viewBox="0 0 210 168" fill="none" xmlns="http://www.w3.org/2000/svg">
<g filter="url(#filter0_d_0_1)">
<path d="M93.462 45.1288C90.0754 40.7306 95.5234 40.5588 94.6891 34.1288C97.2413 30.4556 97.2413 21.8814 97.045 18.5466C96.6523 12.5535 92.8731 7.04369 87.7195 3.75716C80.9463 -0.592661 71.9154 -1.22096 64.6023 2.16223C57.2892 5.54543 51.9884 12.7951 51.0559 20.6731C50.3687 26.3279 51.6939 32.5143 48.749 37.4441C46.5895 40.9723 42.6139 43.0505 38.6874 44.4522C34.7118 45.8054 30.5399 46.7237 26.9079 48.802C23.2759 50.8802 20.1838 54.4567 20.2329 58.6132C20.2819 61.7548 22.0979 64.6547 22.2943 67.7479C22.5888 72.291 19.3494 76.3025 15.9137 79.299C12.4289 82.2956 8.45337 84.9055 6.09747 88.8203C2.22006 95.2967 4.03607 104.045 8.94419 109.844C13.8523 115.644 23.4568 126.222 30.819 128.107C50.9423 133.326 64.1352 131.907 84.8966 131.569C91.3262 131.472 96.2494 127.228 102.483 125.633C108.716 124.039 96.8039 126.567 99.4052 120.767C102.056 114.968 106 137.01 106 108.322C100.724 101.892 106 102.386 102.483 90.5154C100.578 84.0854 98.9591 76.2542 95.5234 73.1609C92.0877 70.0677 90.0754 64.7996 92.3822 60.7881C93.2657 59.2415 94.7382 58.0332 95.5725 56.4866C97.2413 53.4901 96.5542 49.6719 94.6891 46.7721C94.3455 46.2887 93.9528 45.7571 93.462 45.1288Z" fill="#340404"/>
</g>
<g filter="url(#filter1_i_0_1)">
<path d="M209.836 122.471C210.714 127.782 193.205 135.163 192.218 135.326C184.492 134.576 184.492 134.576 182.36 130.874C185.636 119.183 182.465 122.438 190.027 122.177C198.201 120.826 208.958 117.16 209.836 122.471Z" fill="#E9C46A"/>
</g>
<g filter="url(#filter2_i_0_1)">
<path d="M74.7245 52.04C72.2 61.8222 72.9889 72.0778 72.9889 73.6555C70.6222 76.8111 59.5778 76.0222 58 64.9778C60.3667 50.7778 65.1 35 65.1 35L69.0444 43.6778L74.7245 52.04Z" fill="#E9C46A"/>
</g>
<g filter="url(#filter3_d_0_1)">
<path d="M61.1328 57.9907C68.35 60.995 81.5712 73.8629 92.4116 87.5879C103.252 101.313 119.027 108.268 119.027 108.268L116.52 112.894L110.853 115.128L82.4483 94.4288L58.4606 60.3941L61.1328 57.9907Z" fill="#117456"/>
</g>
<g filter="url(#filter4_d_0_1)">
<path d="M204.6 147.53C204.76 152.911 186.422 157.885 185.423 157.915C177.867 156.139 177.867 156.139 176.248 152.186C181.057 141.038 177.48 143.839 185.009 144.591C193.289 144.344 204.44 142.149 204.6 147.53Z" fill="#E9C46A"/>
</g>
<g filter="url(#filter5_i_0_1)">
<path d="M62.2183 126.473L104.623 121.983L108.575 122.748L185.623 121.983L185.623 133.983L106.334 144.917C106.334 144.917 94.0548 152.608 85.7487 152.298C77.4425 151.989 47.1233 146.5 47.1233 146.5L62.2183 126.473Z" fill="#0E4A92"/>
</g>
<g filter="url(#filter6_i_0_1)">
<path d="M60.5 54C52.2983 56.6324 38.8123 75.9318 37.5 78.5C29.5 99 42.5 138.5 42.5 138.5H60H71H74.5H77C77 138.5 71.2193 107.462 74.5 103.609C77.7807 99.7571 80 92.1094 79.5 89.6094C79.2 88.1094 73.5213 60.0815 73.5213 60.0815L60.5 54Z" fill="#21C292"/>
</g>
<g filter="url(#filter7_d_0_1)">
<path d="M42.5 138.5C52.8242 158.603 65.9649 163.616 89.1425 153.386C110.002 141.718 123.791 133.587 123.791 133.587L178.086 155.58L181.322 143.019L130.427 110.915L128.045 109.66L124.845 109.757L72.7727 126.025L42.5 138.5Z" fill="#2176C2"/>
</g>
<g filter="url(#filter8_d_0_1)">
<path d="M100.628 26.0326C93 34 92.5 65 74.559 53.4822C64 46.7035 60.989 36.9185 68.5 22C79.8879 10.0016 77.5 13.5 77.5 13.5L89 10.5L100.628 26.0326Z" fill="#E9C46A"/>
</g>
<path d="M91 48C91 48 89.9131 51.0589 88.5 50.5C87.5 50 86.5384 48.3119 86 46.5C86.5 46.5 87.608 46.6963 89 47.5C90.3919 48.3036 91.0512 47.5734 91 48Z" fill="#E75151"/>
<path d="M91.6736 38.1106C92.8834 38.5995 93.3733 39.4773 93.7526 38.5389C94.1319 37.6005 93.9187 36.6713 92.3544 36.4413C89.8815 36.1982 90.6287 35.8284 90.2238 36.4082C89.8446 37.3466 91.0939 37.7057 91.6736 38.1106Z" fill="#340404"/>
<g filter="url(#filter9_d_0_1)">
<ellipse cx="93.0754" cy="43.3492" rx="1.6127" ry="2" transform="rotate(15 93.0754 43.3492)" fill="#E9C46A"/>
</g>
<path d="M79.0122 36.3256C74.04 35.2493 74.8409 38.4532 75.8628 40.1897" stroke="#C29D44" stroke-linecap="round"/>
<g filter="url(#filter10_d_0_1)">
<line x1="148.191" y1="58.9597" x2="138.96" y2="103.003" stroke="#C9C7C7" stroke-width="5" stroke-linecap="round"/>
</g>
<g filter="url(#filter11_d_0_1)">
<line x1="137.125" y1="104.493" x2="95.493" y2="110.037" stroke="#C9C7C7" stroke-width="8" stroke-linecap="round"/>
</g>
<g filter="url(#filter12_d_0_1)">
<path d="M133.5 111.5C138 112.5 133.389 115.119 135.284 116C137.179 116.881 135.502 112.251 138 113.5C140 114.5 142 116 144.5 117.5C143.183 116.467 145.926 118.355 144.5 117.5C145.817 118.533 142.902 122.433 141.5 124.433C139.902 125.933 133.94 126.26 130.686 124.433C128.881 123.426 127.586 124.034 126.5 122C125.414 119.966 126.273 115.423 133.5 111.5Z" fill="#E9C46A"/>
</g>
<g filter="url(#filter13_d_0_1)">
<path d="M60.0839 58.5342C60.0839 58.5342 70.5351 65.4751 86.1631 98.2838C106.419 113.976 130.5 113.46 130.5 113.46L127.5 123.672C127.5 123.672 77.3071 117.108 74.0473 113.46C71.73 109.264 60.6793 86.9617 60.0839 58.5342Z" fill="#12B483"/>
</g>
<g filter="url(#filter14_d_0_1)">
<ellipse cx="88.5" cy="20.9706" rx="15.4953" ry="12.8715" transform="rotate(16.4068 88.5 20.9706)" fill="#340404"/>
</g>
<g filter="url(#filter15_d_0_1)">
<ellipse cx="66.4953" cy="25.8715" rx="15.4953" ry="12.8715" fill="#340404"/>
</g>
<path d="M95.5 119L127 125L127.5 123.5L96.228 119L95.5 119Z" fill="#0E8D67"/>
<path d="M61.4667 75.9124L64.9667 89.4124L65.9667 93.9124L68.2479 99.4544L74.2479 111.954L73.5 114L67.4667 101.412L64.9667 95.4124L63.4667 90.4124L62.4667 85.9124L61.4667 75.9124Z" fill="#06AA79"/>
<defs>
<filter id="filter0_d_0_1" x="0" y="0" width="110" height="143" filterUnits="userSpaceOnUse" color-interpolation-filters="sRGB">
<feFlood flood-opacity="0" result="BackgroundImageFix"/>
<feColorMatrix in="SourceAlpha" type="matrix" values="0 0 0 0 0 0 0 0 0 0 0 0 0 0 0 0 0 0 127 0" result="hardAlpha"/>
<feOffset dy="7"/>
<feGaussianBlur stdDeviation="2"/>
<feComposite in2="hardAlpha" operator="out"/>
<feColorMatrix type="matrix" values="0 0 0 0 0 0 0 0 0 0 0 0 0 0 0 0 0 0 0.25 0"/>
<feBlend mode="normal" in2="BackgroundImageFix" result="effect1_dropShadow_0_1"/>
<feBlend mode="normal" in="SourceGraphic" in2="effect1_dropShadow_0_1" result="shape"/>
</filter>
<filter id="filter1_i_0_1" x="182.36" y="119.684" width="27.5074" height="17.6425" filterUnits="userSpaceOnUse" color-interpolation-filters="sRGB">
<feFlood flood-opacity="0" result="BackgroundImageFix"/>
<feBlend mode="normal" in="SourceGraphic" in2="BackgroundImageFix" result="shape"/>
<feColorMatrix in="SourceAlpha" type="matrix" values="0 0 0 0 0 0 0 0 0 0 0 0 0 0 0 0 0 0 127 0" result="hardAlpha"/>
<feOffset dy="2"/>
<feGaussianBlur stdDeviation="2"/>
<feComposite in2="hardAlpha" operator="arithmetic" k2="-1" k3="1"/>
<feColorMatrix type="matrix" values="0 0 0 0 0 0 0 0 0 0 0 0 0 0 0 0 0 0 0.25 0"/>
<feBlend mode="normal" in2="shape" result="effect1_innerShadow_0_1"/>
</filter>
<filter id="filter2_i_0_1" x="58" y="35" width="16.7245" height="44.2664" filterUnits="userSpaceOnUse" color-interpolation-filters="sRGB">
<feFlood flood-opacity="0" result="BackgroundImageFix"/>
<feBlend mode="normal" in="SourceGraphic" in2="BackgroundImageFix" result="shape"/>
<feColorMatrix in="SourceAlpha" type="matrix" values="0 0 0 0 0 0 0 0 0 0 0 0 0 0 0 0 0 0 127 0" result="hardAlpha"/>
<feOffset dy="4"/>
<feGaussianBlur stdDeviation="2"/>
<feComposite in2="hardAlpha" operator="arithmetic" k2="-1" k3="1"/>
<feColorMatrix type="matrix" values="0 0 0 0 0 0 0 0 0 0 0 0 0 0 0 0 0 0 0.25 0"/>
<feBlend mode="normal" in2="shape" result="effect1_innerShadow_0_1"/>
</filter>
<filter id="filter3_d_0_1" x="54.4606" y="57.9907" width="68.5664" height="65.1377" filterUnits="userSpaceOnUse" color-interpolation-filters="sRGB">
<feFlood flood-opacity="0" result="BackgroundImageFix"/>
<feColorMatrix in="SourceAlpha" type="matrix" values="0 0 0 0 0 0 0 0 0 0 0 0 0 0 0 0 0 0 127 0" result="hardAlpha"/>
<feOffset dy="4"/>
<feGaussianBlur stdDeviation="2"/>
<feComposite in2="hardAlpha" operator="out"/>
<feColorMatrix type="matrix" values="0 0 0 0 0 0 0 0 0 0 0 0 0 0 0 0 0 0 0.25 0"/>
<feBlend mode="normal" in2="BackgroundImageFix" result="effect1_dropShadow_0_1"/>
<feBlend mode="normal" in="SourceGraphic" in2="effect1_dropShadow_0_1" result="shape"/>
</filter>
<filter id="filter4_d_0_1" x="172.248" y="143.724" width="36.353" height="22.1912" filterUnits="userSpaceOnUse" color-interpolation-filters="sRGB">
<feFlood flood-opacity="0" result="BackgroundImageFix"/>
<feColorMatrix in="SourceAlpha" type="matrix" values="0 0 0 0 0 0 0 0 0 0 0 0 0 0 0 0 0 0 127 0" result="hardAlpha"/>
<feOffset dy="4"/>
<feGaussianBlur stdDeviation="2"/>
<feComposite in2="hardAlpha" operator="out"/>
<feColorMatrix type="matrix" values="0 0 0 0 0 0 0 0 0 0 0 0 0 0 0 0 0 0 0.25 0"/>
<feBlend mode="normal" in2="BackgroundImageFix" result="effect1_dropShadow_0_1"/>
<feBlend mode="normal" in="SourceGraphic" in2="effect1_dropShadow_0_1" result="shape"/>
</filter>
<filter id="filter5_i_0_1" x="47.1233" y="121.983" width="138.5" height="34.3247" filterUnits="userSpaceOnUse" color-interpolation-filters="sRGB">
<feFlood flood-opacity="0" result="BackgroundImageFix"/>
<feBlend mode="normal" in="SourceGraphic" in2="BackgroundImageFix" result="shape"/>
<feColorMatrix in="SourceAlpha" type="matrix" values="0 0 0 0 0 0 0 0 0 0 0 0 0 0 0 0 0 0 127 0" result="hardAlpha"/>
<feOffset dy="4"/>
<feGaussianBlur stdDeviation="2"/>
<feComposite in2="hardAlpha" operator="arithmetic" k2="-1" k3="1"/>
<feColorMatrix type="matrix" values="0 0 0 0 0 0 0 0 0 0 0 0 0 0 0 0 0 0 0.25 0"/>
<feBlend mode="normal" in2="shape" result="effect1_innerShadow_0_1"/>
</filter>
<filter id="filter6_i_0_1" x="34.8979" y="54" width="44.6724" height="88.5" filterUnits="userSpaceOnUse" color-interpolation-filters="sRGB">
<feFlood flood-opacity="0" result="BackgroundImageFix"/>
<feBlend mode="normal" in="SourceGraphic" in2="BackgroundImageFix" result="shape"/>
<feColorMatrix in="SourceAlpha" type="matrix" values="0 0 0 0 0 0 0 0 0 0 0 0 0 0 0 0 0 0 127 0" result="hardAlpha"/>
<feOffset dy="4"/>
<feGaussianBlur stdDeviation="2"/>
<feComposite in2="hardAlpha" operator="arithmetic" k2="-1" k3="1"/>
<feColorMatrix type="matrix" values="0 0 0 0 0 0 0 0 0 0 0 0 0 0 0 0 0 0 0.25 0"/>
<feBlend mode="normal" in2="shape" result="effect1_innerShadow_0_1"/>
</filter>
<filter id="filter7_d_0_1" x="39.5" y="109.66" width="146.822" height="57.8811" filterUnits="userSpaceOnUse" color-interpolation-filters="sRGB">
<feFlood flood-opacity="0" result="BackgroundImageFix"/>
<feColorMatrix in="SourceAlpha" type="matrix" values="0 0 0 0 0 0 0 0 0 0 0 0 0 0 0 0 0 0 127 0" result="hardAlpha"/>
<feOffset dx="1" dy="5"/>
<feGaussianBlur stdDeviation="2"/>
<feComposite in2="hardAlpha" operator="out"/>
<feColorMatrix type="matrix" values="0 0 0 0 0 0 0 0 0 0 0 0 0 0 0 0 0 0 0.25 0"/>
<feBlend mode="normal" in2="BackgroundImageFix" result="effect1_dropShadow_0_1"/>
<feBlend mode="normal" in="SourceGraphic" in2="effect1_dropShadow_0_1" result="shape"/>
</filter>
<filter id="filter8_d_0_1" x="60.3321" y="8.49998" width="44.2956" height="53.5178" filterUnits="userSpaceOnUse" color-interpolation-filters="sRGB">
<feFlood flood-opacity="0" result="BackgroundImageFix"/>
<feColorMatrix in="SourceAlpha" type="matrix" values="0 0 0 0 0 0 0 0 0 0 0 0 0 0 0 0 0 0 127 0" result="hardAlpha"/>
<feOffset dy="2"/>
<feGaussianBlur stdDeviation="2"/>
<feComposite in2="hardAlpha" operator="out"/>
<feColorMatrix type="matrix" values="0 0 0 0 0 0 0 0 0 0 0 0 0 0 0 0 0 0 0.25 0"/>
<feBlend mode="normal" in2="BackgroundImageFix" result="effect1_dropShadow_0_1"/>
<feBlend mode="normal" in="SourceGraphic" in2="effect1_dropShadow_0_1" result="shape"/>
</filter>
<filter id="filter9_d_0_1" x="87.4334" y="41.3724" width="11.2839" height="17.9537" filterUnits="userSpaceOnUse" color-interpolation-filters="sRGB">
<feFlood flood-opacity="0" result="BackgroundImageFix"/>
<feColorMatrix in="SourceAlpha" type="matrix" values="0 0 0 0 0 0 0 0 0 0 0 0 0 0 0 0 0 0 127 0" result="hardAlpha"/>
<feOffset dy="10"/>
<feGaussianBlur stdDeviation="2"/>
<feComposite in2="hardAlpha" operator="out"/>
<feColorMatrix type="matrix" values="0 0 0 0 0 0 0 0 0 0 0 0 0 0 0 0 0 0 0.25 0"/>
<feBlend mode="normal" in2="BackgroundImageFix" result="effect1_dropShadow_0_1"/>
<feBlend mode="normal" in="SourceGraphic" in2="effect1_dropShadow_0_1" result="shape"/>
</filter>
<filter id="filter10_d_0_1" x="132.459" y="56.4592" width="22.2325" height="57.0439" filterUnits="userSpaceOnUse" color-interpolation-filters="sRGB">
<feFlood flood-opacity="0" result="BackgroundImageFix"/>
<feColorMatrix in="SourceAlpha" type="matrix" values="0 0 0 0 0 0 0 0 0 0 0 0 0 0 0 0 0 0 127 0" result="hardAlpha"/>
<feOffset dy="4"/>
<feGaussianBlur stdDeviation="2"/>
<feComposite in2="hardAlpha" operator="out"/>
<feColorMatrix type="matrix" values="0 0 0 0 0 0 0 0 0 0 0 0 0 0 0 0 0 0 0.25 0"/>
<feBlend mode="normal" in2="BackgroundImageFix" result="effect1_dropShadow_0_1"/>
<feBlend mode="normal" in="SourceGraphic" in2="effect1_dropShadow_0_1" result="shape"/>
</filter>
<filter id="filter11_d_0_1" x="87.4925" y="100.493" width="57.6334" height="21.5448" filterUnits="userSpaceOnUse" color-interpolation-filters="sRGB">
<feFlood flood-opacity="0" result="BackgroundImageFix"/>
<feColorMatrix in="SourceAlpha" type="matrix" values="0 0 0 0 0 0 0 0 0 0 0 0 0 0 0 0 0 0 127 0" result="hardAlpha"/>
<feOffset dy="4"/>
<feGaussianBlur stdDeviation="2"/>
<feComposite in2="hardAlpha" operator="out"/>
<feColorMatrix type="matrix" values="0 0 0 0 0 0 0 0 0 0 0 0 0 0 0 0 0 0 0.25 0"/>
<feBlend mode="normal" in2="BackgroundImageFix" result="effect1_dropShadow_0_1"/>
<feBlend mode="normal" in="SourceGraphic" in2="effect1_dropShadow_0_1" result="shape"/>
</filter>
<filter id="filter12_d_0_1" x="122.113" y="111.5" width="26.8105" height="22.1838" filterUnits="userSpaceOnUse" color-interpolation-filters="sRGB">
<feFlood flood-opacity="0" result="BackgroundImageFix"/>
<feColorMatrix in="SourceAlpha" type="matrix" values="0 0 0 0 0 0 0 0 0 0 0 0 0 0 0 0 0 0 127 0" result="hardAlpha"/>
<feOffset dy="4"/>
<feGaussianBlur stdDeviation="2"/>
<feComposite in2="hardAlpha" operator="out"/>
<feColorMatrix type="matrix" values="0 0 0 0 0 0 0 0 0 0 0 0 0 0 0 0 0 0 0.25 0"/>
<feBlend mode="normal" in2="BackgroundImageFix" result="effect1_dropShadow_0_1"/>
<feBlend mode="normal" in="SourceGraphic" in2="effect1_dropShadow_0_1" result="shape"/>
</filter>
<filter id="filter13_d_0_1" x="56.0839" y="58.5342" width="78.4161" height="73.1378" filterUnits="userSpaceOnUse" color-interpolation-filters="sRGB">
<feFlood flood-opacity="0" result="BackgroundImageFix"/>
<feColorMatrix in="SourceAlpha" type="matrix" values="0 0 0 0 0 0 0 0 0 0 0 0 0 0 0 0 0 0 127 0" result="hardAlpha"/>
<feOffset dy="4"/>
<feGaussianBlur stdDeviation="2"/>
<feComposite in2="hardAlpha" operator="out"/>
<feColorMatrix type="matrix" values="0 0 0 0 0 0 0 0 0 0 0 0 0 0 0 0 0 0 0.25 0"/>
<feBlend mode="normal" in2="BackgroundImageFix" result="effect1_dropShadow_0_1"/>
<feBlend mode="normal" in="SourceGraphic" in2="effect1_dropShadow_0_1" result="shape"/>
</filter>
<filter id="filter14_d_0_1" x="69.1939" y="7.86694" width="38.6122" height="34.2074" filterUnits="userSpaceOnUse" color-interpolation-filters="sRGB">
<feFlood flood-opacity="0" result="BackgroundImageFix"/>
<feColorMatrix in="SourceAlpha" type="matrix" values="0 0 0 0 0 0 0 0 0 0 0 0 0 0 0 0 0 0 127 0" result="hardAlpha"/>
<feOffset dy="4"/>
<feGaussianBlur stdDeviation="2"/>
<feComposite in2="hardAlpha" operator="out"/>
<feColorMatrix type="matrix" values="0 0 0 0 0 0 0 0 0 0 0 0 0 0 0 0 0 0 0.25 0"/>
<feBlend mode="normal" in2="BackgroundImageFix" result="effect1_dropShadow_0_1"/>
<feBlend mode="normal" in="SourceGraphic" in2="effect1_dropShadow_0_1" result="shape"/>
</filter>
<filter id="filter15_d_0_1" x="47" y="13" width="38.9907" height="33.743" filterUnits="userSpaceOnUse" color-interpolation-filters="sRGB">
<feFlood flood-opacity="0" result="BackgroundImageFix"/>
<feColorMatrix in="SourceAlpha" type="matrix" values="0 0 0 0 0 0 0 0 0 0 0 0 0 0 0 0 0 0 127 0" result="hardAlpha"/>
<feOffset dy="4"/>
<feGaussianBlur stdDeviation="2"/>
<feComposite in2="hardAlpha" operator="out"/>
<feColorMatrix type="matrix" values="0 0 0 0 0 0 0 0 0 0 0 0 0 0 0 0 0 0 0.25 0"/>
<feBlend mode="normal" in2="BackgroundImageFix" result="effect1_dropShadow_0_1"/>
<feBlend mode="normal" in="SourceGraphic" in2="effect1_dropShadow_0_1" result="shape"/>
</filter>
</defs>
</svg>
