<svg width="206" height="159" viewBox="0 0 206 159" fill="none" xmlns="http://www.w3.org/2000/svg">
<path d="M89.462 45.1288C86.0754 40.7306 91.5234 40.5588 90.6891 34.1288C93.2413 30.4556 93.2413 21.8814 93.045 18.5466C92.6523 12.5535 88.8731 7.04369 83.7195 3.75716C76.9463 -0.592661 67.9154 -1.22096 60.6023 2.16223C53.2892 5.54543 47.9884 12.7951 47.0559 20.6731C46.3687 26.3279 47.6939 32.5143 44.749 37.4441C42.5895 40.9723 38.6139 43.0505 34.6874 44.4522C30.7118 45.8054 26.5399 46.7237 22.9079 48.802C19.2759 50.8802 16.1838 54.4567 16.2329 58.6132C16.2819 61.7548 18.0979 64.6547 18.2943 67.7479C18.5888 72.291 15.3494 76.3025 11.9137 79.299C8.42895 82.2956 4.45337 84.9055 2.09747 88.8203C-1.77994 95.2967 0.0360687 104.045 4.94419 109.844C9.85231 115.644 19.4568 126.222 26.819 128.107C46.9423 133.326 60.1352 131.907 80.8966 131.569C87.3262 131.472 92.2494 127.228 98.4828 125.633C104.716 124.039 92.8039 126.567 95.4052 120.767C98.0556 114.968 102 137.01 102 108.322C96.7241 101.892 102 102.386 98.4828 90.5154C96.5776 84.0854 94.9591 76.2542 91.5234 73.1609C88.0877 70.0677 86.0754 64.7996 88.3822 60.7881C89.2657 59.2415 90.7382 58.0332 91.5725 56.4866C93.2413 53.4901 92.5542 49.6719 90.6891 46.7721C90.3455 46.2887 89.9528 45.7571 89.462 45.1288Z" fill="#340404"/>
<path d="M205.836 122.471C206.714 127.782 189.205 135.163 188.218 135.326C180.492 134.576 180.492 134.576 178.36 130.874C181.636 119.183 178.465 122.438 186.027 122.177C194.201 120.826 204.958 117.16 205.836 122.471Z" fill="#E9C46A"/>
<path d="M70.7245 52.04C68.2 61.8222 68.9889 72.0778 68.9889 73.6555C66.6222 76.8111 55.5778 76.0222 54 64.9778C56.3667 50.7778 61.1 35 61.1 35L65.0444 43.6778L70.7245 52.04Z" fill="#E9C46A"/>
<path d="M57.1328 57.9907C64.35 60.995 77.5712 73.8629 88.4116 87.5879C99.252 101.313 115.027 108.268 115.027 108.268L112.52 112.894L106.853 115.128L78.4483 94.4288L54.4606 60.3941L57.1328 57.9907Z" fill="#117456"/>
<path d="M200.6 147.53C200.76 152.911 182.422 157.885 181.423 157.915C173.867 156.139 173.867 156.139 172.248 152.186C177.057 141.038 173.48 143.839 181.009 144.591C189.289 144.344 200.44 142.149 200.6 147.53Z" fill="#E9C46A"/>
<path d="M58.2183 126.473L100.623 121.983L104.575 122.748L181.623 121.983L181.623 133.983L102.334 144.917C102.334 144.917 90.0548 152.608 81.7487 152.298C73.4425 151.989 43.1233 146.5 43.1233 146.5L58.2183 126.473Z" fill="#2074D8"/>
<path d="M56.5 54C48.2983 56.6324 34.8123 75.9318 33.5 78.5C25.5 99 38.5 138.5 38.5 138.5H56H67H70.5H73C73 138.5 67.2193 107.462 70.5 103.609C73.7807 99.7571 76 92.1094 75.5 89.6094C75.2 88.1094 69.5213 60.0815 69.5213 60.0815L56.5 54Z" fill="#21C292"/>
<path d="M38.5 138.5C48.8242 158.603 61.9649 163.616 85.1425 153.386C106.002 141.718 119.791 133.587 119.791 133.587L174.086 155.58L177.322 143.019L126.427 110.915L124.045 109.66L120.845 109.757L68.7727 126.025L38.5 138.5Z" fill="#3691FC"/>
<path d="M70.1454 53.4049C69.6073 54.02 67.1895 53.1992 65.6162 51.8228C64.0428 50.4464 64.5302 45.767 65.0684 45.1519C65.6066 44.5367 65.4317 46.9222 68.2712 49.7988C69.8445 51.1752 70.6836 52.7897 70.1454 53.4049Z" fill="#C29D44"/>
<path d="M96.6278 26.0326C89 34 88.5 65 70.559 53.4822C60 46.7035 56.989 36.9185 64.5 22C75.8879 10.0016 73.5 13.5 73.5 13.5L85 10.5L96.6278 26.0326Z" fill="#E9C46A"/>
<path d="M87 48C87 48 85.9131 51.0589 84.5 50.5C83.5 50 82.5384 48.3119 82 46.5C82.5 46.5 83.608 46.6963 85 47.5C86.3919 48.3036 87.0512 47.5734 87 48Z" fill="#E75151"/>
<path d="M87.6736 38.1106C88.8834 38.5995 89.3733 39.4773 89.7526 38.5389C90.1319 37.6005 89.9187 36.6713 88.3544 36.4413C85.8815 36.1982 86.6287 35.8284 86.2238 36.4082C85.8446 37.3466 87.0939 37.7057 87.6736 38.1106Z" fill="#340404"/>
<ellipse cx="89.0754" cy="43.3492" rx="1.6127" ry="2" transform="rotate(15 89.0754 43.3492)" fill="#E9C46A"/>
<path d="M75.0122 36.3256C70.04 35.2493 70.8409 38.4532 71.8628 40.1897" stroke="#C29D44" stroke-linecap="round"/>
<line x1="144.191" y1="58.9597" x2="134.96" y2="103.003" stroke="#C9C7C7" stroke-width="5" stroke-linecap="round"/>
<line x1="133.125" y1="104.493" x2="91.493" y2="110.037" stroke="#C9C7C7" stroke-width="8" stroke-linecap="round"/>
<path d="M129.5 111.5C134 112.5 129.389 115.119 131.284 116C133.179 116.881 131.502 112.251 134 113.5C136 114.5 138 116 140.5 117.5C139.183 116.467 141.926 118.355 140.5 117.5C141.817 118.533 138.902 122.433 137.5 124.433C135.902 125.933 129.94 126.26 126.686 124.433C124.881 123.426 123.586 124.034 122.5 122C121.414 119.966 122.273 115.423 129.5 111.5Z" fill="#E9C46A"/>
<path d="M56.0839 58.3622C56.0839 58.3622 66.5351 65.3031 82.1631 98.1118C102.419 113.804 126.5 113.288 126.5 113.288L123.5 123.5C123.5 123.5 73.3071 116.936 70.0473 113.288C67.73 109.092 56.6793 86.7897 56.0839 58.3622Z" fill="#12B483"/>
<ellipse cx="84.5" cy="20.9706" rx="15.4953" ry="12.8715" transform="rotate(16.4068 84.5 20.9706)" fill="#340404"/>
<ellipse cx="62.4953" cy="25.8715" rx="15.4953" ry="12.8715" fill="#340404"/>
<path d="M91.5 119L123 125L123.5 123.5L92.228 119L91.5 119Z" fill="#0E8D67"/>
<path d="M57.4667 75.9124L60.9667 89.4124L61.9667 93.9124L64.2479 99.4544L70.2479 111.954L69.5 114L63.4667 101.412L60.9667 95.4124L59.4667 90.4124L58.4667 85.9124L57.4667 75.9124Z" fill="#06AA79"/>
</svg>
